<?xml version="1.0" encoding="UTF-8"?><svg xmlns="http://www.w3.org/2000/svg" xmlns:xlink="http://www.w3.org/1999/xlink" viewBox="0 0 3710 3710"><defs><style>.ao{fill:url(#t);}.ap,.aq{fill:#fff;}.ar{fill:url(#r);}.as{fill:#97a6b7;}.aq,.at{opacity:.48;}.aq,.at,.au{mix-blend-mode:soft-light;}.av{fill:url(#ai);}.aw{fill:url(#y);}.ax{fill:url(#l);}.ay{fill:url(#af);}.b`{fill:url(#c);}.ba{mix-blend-mode:color-burn;}.ba,.bb,.bc,.bd{opacity:.3;}.be{fill:url(#u);}.bf{fill:url(#ah);}.bg{isolation:isolate;}.bh{fill:url(#v);}.bi{fill:url(#a`);}.bj{fill:url(#m);}.bk{fill:url(#f);}.bl{fill:url(#ae);}.au{opacity:.5;}.bm{fill:url(#ad);}.bn{fill:url(#ab);}.bo{fill:url(#ak);}.bb,.bc,.bd{mix-blend-mode:multiply;}.bp{fill:url(#i);}.bq{fill:url(#aj);}.br{fill:url(#h);}.bs{fill:url(#d);}.bt{fill:url(#e);}.bu{fill:url(#am);}.bv{fill:none;}.bw{fill:url(#x);}.bx{fill:#beb8f2;}.by{fill:url(#aa);}.c`{fill:url(#s);}.ca{fill:#de8bdf;}.cb{fill:#f4f7fa;}.cc{fill:url(#n);}.cd{fill:url(#ac);}.ce{clip-path:url(#j);}.cf{fill:url(#w);}.cg{fill:url(#al);}.ch{fill:url(#o);}.bc{fill:url(#p);}.ci{fill:url(#q);}.cj{fill:url(#ag);}.bd{fill:url(#an);}.ck{fill:url(#k);}.cl{clip-path:url(#g);}.cm{fill:#fcfdfe;}</style><linearGradient id="c" x1="2165.86" y1="2264.93" x2="2172.75" y2="2523.36" gradientTransform="matrix(1, 0, 0, 1, 0, 0)" gradientUnits="userSpaceOnUse"><stop offset="0" stop-color="#444b8c"/><stop offset="1" stop-color="#26264f"/></linearGradient><linearGradient id="d" x1="2222.12" y1="1943.65" x2="1462.71" y2="-722.5" xlink:href="#c"/><linearGradient id="e" x1="2660.1" y1="667.4" x2="1361.88" y2="2169.79" gradientTransform="matrix(1, 0, 0, 1, 0, 0)" gradientUnits="userSpaceOnUse"><stop offset="0" stop-color="#e38ddd"/><stop offset="1" stop-color="#9571f6"/></linearGradient><linearGradient id="f" x1="1012.54" y1="2160.87" x2="3133.46" y2="2160.87" xlink:href="#c"/><clipPath id="g"><path class="bv" d="M1656.33,1928.15l-216.78,121.41s-103.09-88.35-93.92-196.58c18.71-220.83-176-221.8-257.49-234.41-122.9-19.02-222.9-89.37-120.72-201.61,102.18-112.24-133.12-236.24-336.02-238.35-198.56-2.06-309.46-356.21,120.69-391.2,256.89-20.9,346.27,213.82,419.59,321.61,73.32,107.8,247.1,22.79,266.95,193.52,16.95,145.84-28.37,284.48,88.6,325.77,116.97,41.28,175.4,128.29,129.1,299.85Z"/></clipPath><linearGradient id="h" x1="1140.82" y1="1221.37" x2="814.66" y2="2094.83" gradientTransform="matrix(1, 0, 0, 1, 0, 0)" gradientUnits="userSpaceOnUse"><stop offset="0" stop-color="#ffc444"/><stop offset="1" stop-color="#f36f56"/></linearGradient><linearGradient id="i" x1="2745.07" y1="1282.89" x2="3466.11" y2="2469.9" gradientTransform="translate(-2114.97 1066.8) rotate(-16.83)" gradientUnits="userSpaceOnUse"><stop offset="0" stop-color="#ff9085"/><stop offset="1" stop-color="#fb6fbb"/></linearGradient><clipPath id="j"><path class="bv" d="M1653.73,2491.67l304.87-92.25c4.7-48.53,3.29-135.01-66.43-135.33-96.93-.45-145.17-156.53-137.04-219.14,10.06-77.5,29.77-258.45-120.08-261.51-124.75-2.55-205.76,21.3-256.96-123.29-51.2-144.6-158.36-212.69-289.06-164.77-137.54,50.43-307.43-102.44-403.97-6.22-168.21,167.66,108.38,438.17,379.44,460.4,271.06,22.23,157.19,151.03,185.98,273.21,39.3,166.81,250.94,66.48,328.53,113.74,60.83,37.05,72.81,109.33,74.72,155.17Z"/></clipPath><linearGradient id="k" x1="1726.22" y1="2937.64" x2="1560.8" y2="3007.11" gradientTransform="matrix(1, 0, 0, 1, 0, 0)" gradientUnits="userSpaceOnUse"><stop offset="0" stop-color="#40447e"/><stop offset="1" stop-color="#3c3b6b"/></linearGradient><linearGradient id="l" x1="1505.33" y1="2208.57" x2="1325.8" y2="2283.97" xlink:href="#k"/><linearGradient id="m" x1="731.55" y1="2249.39" x2="2395.25" y2="2249.39" xlink:href="#k"/><linearGradient id="n" x1="2122.99" y1="1420.98" x2="770.91" y2="3310.44" xlink:href="#e"/><linearGradient id="o" x1="731.55" y1="2864.62" x2="3086.37" y2="2864.62" xlink:href="#k"/><linearGradient id="p" x1="962.48" y1="2845.32" x2="2687.84" y2="2845.32" xlink:href="#k"/><linearGradient id="q" x1="3126.79" y1="2629.75" x2="2800.36" y2="2351.29" xlink:href="#c"/><linearGradient id="r" x1="-1000.69" y1="4238.89" x2="245.1" y2="4285.23" gradientTransform="translate(-1389.03 1734.32) rotate(-90)" xlink:href="#c"/><linearGradient id="s" x1="2971.75" y1="2256.23" x2="2555.9" y2="2815.36" xlink:href="#e"/><linearGradient id="t" x1="2747.2" y1="964.46" x2="2414.4" y2="1284.34" xlink:href="#h"/><linearGradient id="u" x1="1758.04" y1="1037.35" x2="2889.34" y2="2887.66" xlink:href="#h"/><linearGradient id="v" x1="2357.93" y1="2090.84" x2="1439.15" y2="243.37" xlink:href="#h"/><linearGradient id="w" x1="1668.63" y1="1732.44" x2="2555.76" y2="1732.44" gradientTransform="matrix(1, 0, 0, 1, 0, 0)" gradientUnits="userSpaceOnUse"><stop offset="0" stop-color="#311944"/><stop offset="1" stop-color="#893976"/></linearGradient><linearGradient id="x" x1="2394.76" y1="1274.73" x2="2029.9" y2="1949.17" xlink:href="#e"/><linearGradient id="y" x1="2072.24" y1="1807.36" x2="2171.86" y2="1807.36" xlink:href="#w"/><linearGradient id="a`" x1="2289.33" y1="1217.7" x2="1924.47" y2="1892.14" xlink:href="#e"/><linearGradient id="aa" x1="-2300.18" y1="317.65" x2="-2331.62" y2="534.41" gradientTransform="translate(188.41 -458.3) rotate(-144.06) scale(1 -1)" gradientUnits="userSpaceOnUse"><stop offset="0" stop-color="#f36f56"/><stop offset="1" stop-color="#ffc444"/></linearGradient><linearGradient id="ab" x1="926.59" y1="3209.13" x2="966.34" y2="3209.13" gradientTransform="translate(.98 -81.33) rotate(-9.66)" xlink:href="#aa"/><linearGradient id="ac" x1="1003.41" y1="3045.36" x2="899.18" y2="3411.04" gradientTransform="translate(.98 -81.33) rotate(-9.66)" xlink:href="#e"/><linearGradient id="ad" x1="1578.11" y1="2583.69" x2="1241.07" y2="2860.55" gradientTransform="matrix(1, 0, 0, 1, 0, 0)" gradientUnits="userSpaceOnUse"><stop offset="0" stop-color="#ab316d"/><stop offset="1" stop-color="#792d3d"/></linearGradient><linearGradient id="ae" x1="1400.5" y1="2520.08" x2="1308.27" y2="2843.68" gradientTransform="translate(20.03 69.06) rotate(5.38)" xlink:href="#e"/><linearGradient id="af" x1="1258.28" y1="2892.07" x2="1305.18" y2="2892.07" gradientTransform="translate(20.03 69.06) rotate(5.38)" xlink:href="#aa"/><linearGradient id="ag" x1="1220.42" y1="3151.19" x2="833.53" y2="2942.72" gradientTransform="translate(.98 -81.33) rotate(-9.66)" xlink:href="#ad"/><linearGradient id="ah" x1="437.76" y1="2999.12" x2="64.21" y2="3387.03" gradientTransform="translate(-14.04 -148) rotate(-17.41)" xlink:href="#ad"/><linearGradient id="ai" x1="409.66" y1="2988.2" x2="43.87" y2="3368.06" gradientTransform="translate(-14.04 -148) rotate(-17.41)" xlink:href="#ad"/><linearGradient id="aj" x1="-1722.58" y1="2122.25" x2="-1730.8" y2="2023.61" gradientTransform="translate(-504.55 -55.8) rotate(176.92) scale(1 -1)" xlink:href="#c"/><linearGradient id="ak" x1="1345.75" y1="1879.25" x2="1372.84" y2="2285.49" gradientTransform="matrix(1, 0, 0, 1, 0, 0)" xlink:href="#aa"/><linearGradient id="al" x1="4134.81" y1="2681.21" x2="4212.34" y2="2762.93" gradientTransform="translate(-3411.84 402.95) rotate(-14.98)" xlink:href="#aa"/><linearGradient id="am" x1="-1927.18" y1="980.8" x2="-1960.91" y2="1213.33" gradientTransform="translate(-318.97) rotate(-180) scale(1 -1)" xlink:href="#aa"/><linearGradient id="an" x1="-1887.59" y1="2068.16" x2="-1787.02" y2="2591.97" gradientTransform="translate(-318.97) rotate(-180) scale(1 -1)" xlink:href="#aa"/></defs><g class="bg"><g id="a"><rect class="ap" width="3710" height="3710"/></g><g id="b"><g><circle class="cb" cx="1871.38" cy="1855" r="1400"/><g><path class="as" d="M2404.98,2514.9c-36.41-12.08-63.63-42.98-71.31-80.97l-53-262.31-453.37,16.1-55.8,273.27c-7.81,38.27,23.47,76.67,59.49,90.76l189.68,74.22c35.28,13.8,73.2,19.3,110.89,16.08l400.86-34.29c11.72-1,21.12-10.21,22.48-22.03s9.57-25.09-1.6-28.79l-148.34-42.03Z"/><path class="b`" d="M2409.47,2498.95c-36.38-11.93-63.57-42.44-71.23-79.95l-52.95-259.01-442.32,15.91-55.74,269.83c-7.81,37.79,12.85,75.69,48.84,89.6l189.49,73.28c35.24,13.63,73.13,19.06,110.78,15.88l400.46-33.86c11.71-.99,21.1-10.09,22.46-21.75s-5.68-22.68-16.84-26.34l-132.95-43.59Z"/><path class="bs" d="M3133.46,1989.24V813.06c0-24.12-19.88-44.65-44.23-45.63l-2020.71-81.23c-30.75-1.24-55.98,20.01-55.98,47.22V2033.28l2120.93-44.04Z"/><path class="bt" d="M3045.65,826.18l-1919.69-71.62c-27.97-1.04-50.92,18.41-50.92,43.24V1929.7c0,25.34,23.43,45.41,51.98,44.6l1917.78-54.54c22.89-.65,41.57-19.68,41.57-42.28V867.95c0-22.14-18.3-40.94-40.72-41.78Z"/><path class="bk" d="M1012.54,2033.28v259.6c0,27.21,25.23,48.41,55.98,47.11l2020.71-85.43c24.36-1.03,44.23-21.6,44.23-45.72v-227.14l-2120.93,51.59Z"/><g class="at"><path class="ap" d="M2914.6,1837.39c-165.96-56.06-303.27,58.28-422.56-31.74-134.49-101.5-25.79-296.48-150.19-411.35-172.82-159.57-518.33,87.9-668.4-62.54-103.17-103.43,18.53-269.02-68.83-443.21-44.42-88.57-127.65-148.95-228.69-189.99l-307.4-12.36c-30.75-1.24-55.98,20.01-55.98,47.22v1559.46c0,27.21,25.23,48.41,55.98,47.11l2020.71-85.43c24.36-1.03,44.24-21.6,44.24-45.72v-167.84c-71.16-125.81-149.72-180.25-218.87-203.61Z"/></g></g><g class="cl"><path class="br" d="M1656.33,1928.15l-216.78,121.41s-103.09-88.35-93.92-196.58c18.71-220.83-176-221.8-257.49-234.41-122.9-19.02-208.94-84.33-137.58-197.92,80.74-128.53-116.27-239.93-319.17-242.03-198.56-2.06-309.46-356.21,120.69-391.2,256.89-20.9,346.27,213.82,419.59,321.61,73.32,107.8,247.1,22.79,266.95,193.52,16.95,145.84-28.37,284.48,88.6,325.77,116.97,41.28,175.4,128.29,129.1,299.85Z"/><g class="au"><path class="bx" d="M1573.78,2000.82l-4.96,1.7c-1.05-3.07-107.33-310.49-304.57-583.47-181.71-251.49-480.07-524.37-869.51-396.19l-1.64-4.98c173.36-57.06,343.38-40.77,505.35,48.42,129.39,71.25,253.91,188.93,370.11,349.76,197.68,273.62,304.17,581.68,305.22,584.76Z"/><path class="bx" d="M964.52,1106.48l-4.86,1.98c-65.83-161.69-243.67-344.15-245.46-345.98l3.74-3.67c1.8,1.83,180.35,185.03,246.57,347.67Z"/><path class="bx" d="M854.97,1050.01c-207.81-9.7-325.96,116.96-327.12,118.24l-3.87-3.53c1.18-1.3,120.88-129.77,331.24-119.95l-.24,5.24Z"/><path class="bx" d="M1383.47,1604.53c-172.01-187.11-495.1-75.67-498.16-74.33l-2.42-4.65c2.87-1.61,330.91-113.35,504.45,75.42l-3.86,3.55Z"/><path class="bx" d="M1333.68,1512.31l-5.01,1.58c-48.77-154.68,48.12-334.16,49.1-335.96l4.6,2.52c-.97,1.78-96.79,179.35-48.69,331.86Z"/><path class="bx" d="M1551.03,1954.51c-53.63-80.28-210.78-79.63-212.36-79.62l-.05-5.24c6.57-.07,161.56-.71,216.77,81.95l-4.36,2.91Z"/><path class="bx" d="M1526.84,1881.37l-4.94,1.76c-25.56-71.93,32.72-200.66,51.87-242.96,2.71-5.98,5.04-11.14,5.28-12.14l5.12,1.13c-.31,1.42-1.85,4.85-5.62,13.18-18.94,41.82-76.56,169.09-51.71,239.04Z"/></g></g><g><path class="bp" d="M1633.6,2399.3c1.34,.16,2.68,.32,4.02,.48,79.44,9.18,167.88,5.17,265.17-19.96,18.62-6.24,37.24-12.47,55.85-18.71,2.45-49.35-4.05-96.72-66.47-97.01-96.94-.45-145.17-156.53-137.04-219.14,10.06-77.5,29.77-258.45-120.08-261.51-124.75-2.55-205.76,21.3-256.96-123.29-51.2-144.6-158.36-212.69-289.06-164.77-137.54,50.43-307.43-102.44-403.96-6.22-168.21,167.66,108.38,438.17,379.44,460.4,271.06,22.23,157.19,151.03,185.98,273.21,39.3,166.81,250.94,66.48,328.53,113.74,26.28,16.01,43.42,38.6,54.59,62.79Z"/><g class="ce"><g class="au"><path class="cm" d="M1782.77,2400.28l6.1-3.24c-236.68-445.67-688.5-774.29-1179.13-857.61l-1.15,6.8c488.57,82.97,938.49,410.23,1174.19,854.04Z"/><path class="cm" d="M1632.92,2168.36l6.62-1.97c-56.6-190.07,62-386.67,63.21-388.63l-5.88-3.61c-1.22,1.99-121.43,201.15-63.94,394.21Z"/><path class="cm" d="M1737,2319.49l4.89-4.87c-141.99-142.34-499.26-62.09-502.85-61.26l1.55,6.73c3.55-.82,357.12-80.23,496.41,59.41Z"/><path class="cm" d="M1275.38,1826.6l5.29-4.44c-102.59-122.12-75.32-365.17-75.03-367.61l-6.85-.81c-.29,2.47-27.89,248.48,76.6,372.86Z"/><path class="cm" d="M997.91,1666.24l1.79-6.67c-175.55-47.02-390.38,71.81-392.54,73.02l3.38,6.02c2.12-1.2,214.56-118.66,387.37-72.37Z"/></g></g></g><g><path class="ck" d="M3086.37,2847.12l-2354.82-20.51v60.68c0,16.47,10.27,30.48,24.18,32.97l665.87,119.49c7.9,1.42,15.92,1.79,23.89,1.12l1615.28-136.24c14.42-1.22,25.59-15.26,25.59-32.19v-25.33Z"/><path class="ax" d="M2328.32,2748.75l-1570.85,111.01c-28.11,1.99-50.96-19.12-50.96-47.15V1689.64c0-28.03,22.85-50.75,50.96-50.75h1570.85c23.16,0,41.88,20.54,41.88,45.88v1015.15c0,25.34-18.72,47.2-41.88,48.84Z"/><path class="bj" d="M2353.37,2748.75l-1570.85,111.01c-28.11,1.99-50.96-19.12-50.96-47.15V1689.64c0-28.03,22.85-50.75,50.96-50.75h1570.85c23.16,0,41.88,20.54,41.88,45.88v1015.15c0,25.34-18.72,47.2-41.88,48.84Z"/><path class="cc" d="M2304.43,2677.18l-1463.09,96.43c-22.88,1.51-41.46-15.82-41.46-38.7v-983.16c0-22.88,18.59-41.51,41.46-41.6l1463.09-6.06c19.1-.08,34.56,16.75,34.56,37.59v895.49c0,20.84-15.45,38.76-34.56,40.01Z"/><path class="ap" d="M1623.42,1669.6c0,10.43-8.08,18.92-18.07,18.95-10,.03-18.11-8.42-18.11-18.88s8.11-18.94,18.11-18.95c9.98,0,18.07,8.45,18.07,18.88Z"/><path class="ch" d="M2314.17,2743.71l-1582.62,116.85,690.05,123.83c7.9,1.42,15.92,1.79,23.89,1.12l1640.87-138.4-747.02-102.61c-8.35-1.15-16.78-1.41-25.18-.79Z"/><polygon class="bc" points="962.48 2863.5 2280.06 2764.77 2687.84 2820.33 1381.61 2925.87 962.48 2863.5"/><path class="aq" d="M1974.9,2440.76c-121.1-65.16-216.32,17.4-308.21-64.06-55.71-49.39-28.36-86.21-96.91-160.02-75.93-81.74-125.36-54.26-201.66-127.83-96.48-93.02-48.23-165.4-131.34-232.18-100.82-81.02-209.55-6.03-305.53-83.73-41.4-33.51-64.11-82.24-75.97-134.05h-93.91c-16.46,0-29.82,13.34-29.82,29.79v1164.06c0,16.45,13.36,28.84,29.82,27.67l1600.96-113.64c7.86-.56,14.82-5.14,19.29-11.8-117.19-4.27-189.19-43.56-235.22-84.17-90.03-79.45-74.42-157.8-171.51-210.04Z"/></g><g><g><g><path class="ci" d="M3043.65,2032.8v703.09c0,10.51-8.97,12.9-19.13,13.37l-340.17,22.31-5.04,.23c-10.32,.48-18.77-7.81-18.77-18.42v-709.12c0-10.6,8.45-19.53,18.77-19.83l6.83-.2,341.53,5.7c10.16-.29,15.97-7.64,15.97,2.87Z"/><path class="ar" d="M3054.53,2032.13v703.59c0,10.52-8.32,19.51-18.5,19.98l-346.36,15.96c-10.34,.48-18.8-7.82-18.8-18.43v-709.61c0-10.61,8.46-19.54,18.8-19.85l346.36-10.23c10.17-.3,18.5,8.06,18.5,18.58Z"/><path class="c`" d="M3043.04,2071.49v651.3c0,9.82-7.77,18.2-17.26,18.64l-325.69,14.9c-9.64,.44-17.52-7.29-17.52-17.19v-656.54c0-9.89,7.89-18.23,17.52-18.52l325.69-9.91c9.49-.29,17.26,7.51,17.26,17.32Z"/></g><path class="ca" d="M2869.96,2039.78c0,3.66-2.88,6.72-6.44,6.83-3.56,.11-6.44-2.78-6.44-6.44s2.88-6.72,6.44-6.83c3.55-.11,6.44,2.78,6.44,6.44Z"/></g><g class="at"><path class="ap" d="M2942.03,2439.78c-31.58-79.39-116.69-60.63-143.21-140.87-21.64-65.49,26.5-103.87,7.65-179.69-10.57-42.55-36.59-74.16-63.19-97.02l-52.74,1.55c-10.63,.31-19.34,9.25-19.34,19.85v709.01c0,10.6,8.71,18.36,19.34,17.25l265.29-27.83c-21.29-33.56-29.85-64.23-32.87-89.71-11-92.69,47.99-139.82,19.06-212.55Z"/></g></g><g><path class="ao" d="M2083.15,2460.21c-29.36,.85-57.99-6.55-82.8-21.41-75.57-45.3-187.24-120.11-287.7-218.04-127.48-124.27-200.72-250.59-216.74-374.63l-.25-1.94-3.11-529.28c0-104.6,68.23-189.51,196.32-245.3,105.83-46.1,246.1-68.94,394.28-64.65,146.46,4.24,281.98,34.46,382.29,84.81,119.24,59.86,181.8,143.98,181.8,243.71l-2.84,505.73-.23,1.86c-14.64,118.78-82.03,241.56-201.14,365.72-95.54,99.58-203.49,178.5-277.63,227.4-24.53,16.18-52.97,25.19-82.26,26.04Z"/><path class="be" d="M2112.21,2460.21c-28.97,.85-57.23-6.55-81.71-21.41-74.57-45.3-184.76-120.11-283.9-218.04-125.79-124.27-198.07-250.59-213.88-374.63l-.25-1.94-3.07-529.28c0-104.6,67.32-189.51,193.72-245.3,104.43-46.1,242.85-68.94,389.08-64.65,144.52,4.24,278.26,34.46,377.24,84.81,117.67,59.86,179.4,143.98,179.4,243.71l-2.8,505.73-.23,1.86c-14.45,118.78-80.95,241.56-198.48,365.72-94.27,99.58-200.8,178.5-273.96,227.4-24.2,16.18-52.27,25.19-81.17,26.04Z"/><path class="bh" d="M1564.36,1315.28l3.09,526.6c34.66,268.69,350.43,486.22,487.96,568.87,39.4,23.68,89.77,22.27,128.89-3.47,134.66-88.61,433.13-311.68,465.02-570.01l2.83-504.34c0-374.17-1087.79-408.38-1087.79-17.67Z"/><path class="cf" d="M2120.02,2329.59c-2.52,.06-6.34-.36-10.19-2.7-56.63-34.29-166.4-106.12-261.89-199.92-103.15-101.32-162.64-199.83-176.28-292.35l-3.03-517.88c.13-49.69,39.46-92.22,116.57-126.25,86.08-37.99,208.31-57.92,334.82-54.92,125.25,2.97,243.92,28.19,326.13,68.98,72.72,36.08,109.49,78.63,109.61,126.6l-2.82,499.95c-12.73,89.53-68.57,186.05-166.6,287.51-92.18,95.4-199.85,171.02-256.13,207.8-3.85,2.51-7.66,3.12-10.18,3.18Z"/><path class="cb" d="M2107.1,2294.19c-57.19-35.22-158.88-103.23-247.6-190.55-96.94-95.4-153.03-186.95-166.22-271.65l-3-514.88c.09-35.53,32.75-68.12,96.82-96.49,81.54-36.1,198.36-55.13,320-52.4,120.47,2.7,234.02,26.5,312.05,65.11,60.63,30,91.3,62.72,91.39,97.37l-2.81,498.12c-12.37,82.19-65.28,172.07-157.81,267.65-85.9,88.75-185.88,160.11-242.81,197.72Z"/><g><path class="bw" d="M2311.71,1620.08l-385.09,3.43c-29.6,.26-53.72,23.34-53.72,51.53v246.73c0,28.02,24.03,49.74,53.52,48.54l383.73-15.71c27.29-1.12,49.43-23.71,49.57-50.49l1.22-235.7c.14-26.92-21.84-48.56-49.23-48.32Z"/><path class="aw" d="M2171.86,1761.56c.09-27.25-23.3-48.79-51.86-46.98-25.28,1.6-46.26,22.02-47.68,46.52-1.1,19.01,9.18,35.47,24.83,43.83,6.65,3.55,9.94,11,8.63,18.35l-11.13,62.33c-1.42,7.93,4.87,14.91,13.16,14.62l28.17-.99c8.24-.29,14.5-7.67,13.14-15.47l-10.77-61.74c-1.29-7.37,2.51-14.68,9.19-18.7,14.51-8.73,24.25-24.27,24.31-41.79Z"/><path class="bi" d="M2306.31,1595.6c-11.56,.08-20.92-9.11-20.87-20.52l.23-53.75c.24-53.98-44.39-98.39-100.01-98.94l-125.69-1.25c-57.56-.57-104.89,44.31-104.94,100l-.05,55.44c-.01,11.77-10.03,21.38-22.41,21.46-12.41,.08-22.48-9.43-22.48-21.26l.02-55.67c.03-79.59,67.81-143.5,149.94-142.35l125.75,1.75c79,1.1,142.1,64.32,141.73,140.84l-.26,53.53c-.05,11.37-9.43,20.64-20.97,20.72Z"/></g></g><g><path class="by" d="M1506.83,1864.24s7.43-10.58,11.34-18.03c3.91-7.45-5.62-28.09-9.82-45.32-4.2-17.23-6.37,9.64-6.9,15.73-.53,6.09-.59,17.33-6.89,36.63l12.27,11Z"/><path class="bn" d="M1459.08,2899.89l-2.89,46.19s6.56,6.95,19.18,2.11l13.78-45.35-30.07-2.94Z"/><path class="cd" d="M1464.86,2933.85s-22.62,9.23-18.23,19.23c2.36,5.37,10.52,17.51,17.57,27.59,6.53,9.34,18.31,13.47,29.22,10.2,3.66-1.1,7.41-2.17,10.72-3.02,6.86-1.77,7.26-11.35,.58-13.71-3.24-1.14-6.45-2.06-9.24-2.5-8.28-1.28-19.68-20.84-21.01-28.68-1.33-7.84-9.62-9.11-9.62-9.11Z"/><path class="bm" d="M1410.49,2456.58c33.32,11.5,156.53,58.07,183.98,164.9,1.47,5.7,5.22,21.56,5.39,47.47,.71,107.83-61.99,199.08-107.6,252.17-14.38-.24-28.75-.48-43.13-.72-7.18-27.52-13.77-68.68-3.45-115,15.77-70.79,56.69-89.15,48.8-123.89-14.33-63.09-160.83-53.55-174.64-110.04-4.99-20.41,5.97-55.04,90.65-114.89Z"/><path class="bl" d="M998.38,3102.13l62.56-1.46c3.86-.09,5.51-4.9,2.56-7.38-2.91-2.44-6.93-4.45-12.07-3.91-11.89,1.24-38.59-15.41-50.7-11.84-3.96,1.17-7.17,10.47-8.82,13.05-3.23,5.05,.47,11.67,6.47,11.53Z"/><path class="ay" d="M1026.49,3054.06l-25.76,23.48s8.99,6.72,22.12,3.84l26.33-18.12-22.69-9.2Z"/><g class="ba"><path class="cj" d="M1521.02,2734.78c17.28-46.65,38-104.18,14.34-136.84-23.95-33.05-76.42-5.15-129.06-31.79-19.52-9.88-39.59-27.56-56.28-59.56-29.55,30.51-33.57,50.98-30.17,64.87,13.8,56.5,160.31,46.95,174.64,110.04,7.89,34.74-33.02,53.1-48.8,123.89-8.87,39.82-5.24,75.8,.52,102.61,5.13-24.89,13.09-51.04,25.27-77.43,18.88-40.91,31.34-46.65,49.55-95.8Z"/></g><path class="bf" d="M1429.58,2443.11c-20.28,93.11-63.49,235.28-162.5,383.68-73.3,109.86-153.82,188.14-216.97,240.43-4.49,1.34-12.15,2.99-21.54,1.84-6.98-.86-12.51-2.97-16.23-4.74,4.35-26.25,13.53-65.02,35.28-106.9,39.82-76.64,75.27-74.17,115.26-141.81,29.28-49.53,38.8-102.14,57.85-207.36,14.7-81.25,14.71-100.67,34.85-123.97,40.71-47.1,117.15-47.64,174-41.17Z"/><g class="bb"><path class="av" d="M1062.89,2974.75c14.21-22.43,39.42-45.78,89.15-91.85,51.4-47.61,49.42-39,59.54-53.07,45.29-62.99,20.77-130.3,31.96-211.53,6.25-45.32,26.26-104.54,84.52-170.88-27.3,5.03-53.45,15.86-72.48,36.86-23.37,25.78-21.65,51.03-34.85,123.97-19.04,105.22-28.56,157.83-57.85,207.36-39.99,67.64-75.45,65.18-115.26,141.81-21.76,41.88-30.93,80.66-35.28,106.9,3.72,1.78,9.25,3.88,16.23,4.74,5.53,.68,10.44,.37,14.48-.26-3.28-53.25,12.63-82.68,19.84-94.06Z"/></g><path class="cb" d="M1484.34,1838.07s16.66,124.05-114.05,211.51l139.09,33.18s44.52-83.24,12.29-221.12l-37.33-23.57Z"/><path class="bq" d="M1353.18,1956.08c6.83-13.45,9.65-13.37,11.33-20.48,3.82-16.18-6.05-36.73-14.42-37.02-5.4-.18-5.84,8.2-17.27,21.28-13.99,16.02-22.49,13.91-30.72,27.82-1.93,3.25-10.6,17.89-5.26,28.82,6.8,13.94,33.63,16.15,44.84,5.4,5.32-5.1,3.08-9.24,11.5-25.82Z"/><path class="bo" d="M1333.07,1970.59s4.79,25.57,1.38,46.36c-3.08,18.79-37.89,38.31-44.56,43.9-6.67,5.6,17.69,11.67,40.05,8.74,22.35-2.92,83.55-22.51,92.85-33.42,9.3-10.91-10.83-5.54-27.76-7.6-16.93-2.07-33.09-30.44-33.58-44.92-.49-14.48-28.38-13.07-28.38-13.07Z"/><path class="cg" d="M1340.36,1989.68s17.11,7.51,32.27-4.61c13.57-10.85-6.61-44.18-20.41-44.61-4.6-.14-11.33,3.16-15.29,7.98-2.34,2.85-2.48,4.75-6.4,9.34-3.61,4.23-5.2,4.61-5.75,6.66-.69,2.57,.49,6.86,9.78,14.24-4.63-.85-8.62,.37-10.17,3.07-.25,.43-.76,1.78-.61,3.17,.56,5.03,7.13,7.36,16.59,4.77Z"/><path class="bu" d="M1716.39,1900.74s10.36-1.44,7.13-21.23c-2.53-15.51-.61-20.73,3.05-17.98,3.66,2.75,4.18,11.71,4.18,11.71,0,0,13.36-11.39,18.86-26.32,5.5-14.93,9.04-2.36,10.21,5.11,1.18,7.46-7.86,30.64-12.96,34.96-5.11,4.32-12.57,23.37-12.57,23.37l-17.89-9.62Z"/><path class="ap" d="M1744,1906.04c-11.79-8.26-23.58-16.51-35.36-24.77-14.34,88.17-46.94,122.77-74.63,137.91-66.8,36.51-126.42-28.56-254.29-2-35.24,7.32-96.65,20.95-130.71,71.14-8.95,13.19-12.14,23.18-27,117.84-19,120.99-19.68,142.11-17,168.16,4.9,47.68,7.87,76.57,29.86,102.14,58.37,67.91,182.44,32.89,198,28.29,28.74-8.51,73.4-21.74,91.14-59.71,8.35-17.87,7.46-34.2-5.37-99.54-25.42-129.43-28.67-137.8-21.57-151.98,23.94-47.83,99.81-20.46,163.9-64.94,37.47-26.01,79.71-82.68,83.04-222.54Z"/><path class="bd" d="M1374.72,2487.47c12.51-25.66-4.3-49.3,14.14-80.14,23.51-39.3,65.8-25.96,81.71-55,27.22-49.66-79.91-118.93-58.14-198,10.39-37.75,46.68-65.08,77-75.43,67.3-22.98,111.33,35.6,174.43,17.29,14.95-4.34,32.12-13.34,49.48-32.01-15.34,32.37-34.4,51.93-52.38,64.41-64.09,44.48-139.96,17.11-163.9,64.94-7.1,14.17-3.85,22.55,21.57,151.98,12.83,65.34,13.72,81.67,5.37,99.54-17.74,37.97-62.41,51.2-91.14,59.71-8.51,2.52-49.55,14.12-94.52,13,20.06-8.15,30.86-18.96,36.38-30.28Z"/></g></g></g></g></svg>