<svg xmlns="http://www.w3.org/2000/svg" xmlns:xlink="http://www.w3.org/1999/xlink" width="2223.889" height="3547.526" viewBox="0 0 2223.889 3547.526"><defs><linearGradient id="a" x1="0.5" x2="0.5" y2="1" gradientUnits="objectBoundingBox"><stop offset="0" stop-color="#c86fca"/><stop offset="1" stop-color="#643865"/></linearGradient><linearGradient id="b" x1="0.5" x2="0.5" y2="1" gradientUnits="objectBoundingBox"><stop offset="0" stop-color="#e995e2"/><stop offset="1" stop-color="#b251b9"/></linearGradient></defs><g transform="translate(0 0.502)"><path d="M-284,4622.414s754-328,922-170-292,708,188,848,856-46,926,594S1166,6384,694,6626s174,569.5,0,910S-392,7940.41-392,7940.41" transform="translate(462 -4409.386)" stroke="#707070" stroke-width="1" fill="url(#a)"/><path d="M-284,4622.414s738-227.567,832-37.567-138,582,290,706,998-120,1016,514-726,442-1198,684S868,7195.5,694,7536-328,7934.846-328,7934.846" transform="translate(328 -4387.822)" fill="url(#b)"/><path d="M0,4636s578-308,694,0-194,508,34,714,1190-86,1260,554-822,480-1294,722,174,569.5,0,910S-2,7988-2,7988" transform="translate(232 -4466.972)" fill="#cb98f0"/></g></svg>