<?xml version="1.0" encoding="UTF-8"?><svg xmlns="http://www.w3.org/2000/svg" xmlns:xlink="http://www.w3.org/1999/xlink" viewBox="0 0 3710 3710"><defs><style>.ae{fill:url(#ac);}.ae,.af,.ag{mix-blend-mode:multiply;opacity:.3;}.ah{fill:url(#t);}.ai,.aj{fill:#fff;}.ak{fill:url(#r);}.al{fill:#97a6b7;}.aj{opacity:.48;}.aj,.am{mix-blend-mode:soft-light;}.an{fill:url(#y);}.ao{fill:url(#l);}.ap{fill:url(#u);}.aq{isolation:isolate;}.ar{fill:url(#v);}.as{fill:url(#a`);}.at{fill:url(#m);}.au{fill:url(#f);}.af,.av{fill:#d8dee8;}.am{opacity:.5;}.aw{fill:url(#p);}.ax{fill:url(#ad);}.ay{fill:url(#ab);}.b`{fill:url(#b);}.ba{clip-path:url(#c);}.bb{fill:url(#i);}.bc{clip-path:url(#d);}.bd{fill:url(#h);}.be{fill:url(#e);}.bf{fill:none;}.bg{fill:url(#x);}.bh{fill:#beb8f2;}.bi{fill:url(#aa);}.bj{fill:url(#s);}.bk{fill:#f4f7fa;}.bl{fill:url(#n);}.bm{fill:url(#w);}.bn{fill:url(#j);}.bo{fill:url(#o);}.bp{fill:url(#q);}.bq{fill:url(#k);}.br{clip-path:url(#g);}.bs{fill:#fcfdfe;}</style><linearGradient id="b" x1="-1549.32" y1="-195.34" x2="-541.36" y2="2453.16" gradientTransform="translate(1198.14 207.51) rotate(-162.3) scale(1 -1)" gradientUnits="userSpaceOnUse"><stop offset="0" stop-color="#aa80f9"/><stop offset="1" stop-color="#6165d7"/></linearGradient><clipPath id="c"><path class="bf" d="M1514.85,2553.41l-295.21-159.66s-22.49-256.47,109.75-290.46c132.25-33.99,144.02-271.98,165.01-398.16,56.96-342.35,412.2-221.61,520.56-655.69,28.82-115.45,45.18-345.26,165.41-413.03,136.97-77.21,192.39,45.72,285.5-24.18,145.52-109.24,338.63-113.4,411.41,54.36,71.83,165.57-126.33,410.33-503.11,552.98-258.72,132.95-275.87,187.75-292.82,327.36-11.87,97.79,17.18,367.45-136.14,434.12-153.32,66.67-278.26,148.85-255.28,268.33,34.96,181.81-175.07,304.02-175.07,304.02Z"/></clipPath><clipPath id="d"><path class="bf" d="M1588.57,2388.91l262.91,160.27s131.7-104.7,125.29-239.15c-13.08-274.33,228.1-266.64,329.6-278.53,153.07-17.93,280.13-100.49,158.73-244.16-121.41-143.67,175.66-286.47,427.03-279.8,245.99,6.53,399.53-426.98-131.58-489.99-317.18-37.63-438.61,248.96-534.33,379.1-95.73,130.15-307.05,16.92-339.44,227.45-27.67,179.83,22.12,353.6-124.62,399.38-146.74,45.78-223.09,150.86-173.59,365.43Z"/></clipPath><linearGradient id="e" x1="6327.97" y1="-271.19" x2="5715.01" y2="1470.91" gradientTransform="translate(-2558 -1919.83) rotate(31.36)" gradientUnits="userSpaceOnUse"><stop offset="0" stop-color="#e38ddd"/><stop offset="1" stop-color="#9571f6"/></linearGradient><linearGradient id="f" x1="3054.22" y1="1308.89" x2="1485.82" y2="3563.47" gradientTransform="matrix(1, 0, 0, 1, 0, 0)" xlink:href="#b"/><clipPath id="g"><path class="bf" d="M2275.03,2592.04l-297.21-66.78c-7.86-45.96-12.53-128.54,53.95-133.71,92.43-7.18,127.58-159.4,115.47-218.56-14.98-73.22-46.37-244.44,96.34-257.78,118.81-11.11,197.74,6.01,236.52-135.48,38.77-141.48,136.25-213.89,264.25-177.27,134.69,38.53,286.1-119.1,384.88-34.03,172.11,148.22-72.89,425.47-329.88,465.53-256.99,40.06-139.42,154.99-158.38,273.53-25.88,161.84-234.73,80.86-305.44,131.34-55.44,39.57-61.84,109.34-60.47,153.2Z"/></clipPath><linearGradient id="h" x1="2210.08" y1="935.23" x2="1810.12" y2="1319.65" gradientTransform="matrix(1, 0, 0, 1, 0, 0)" gradientUnits="userSpaceOnUse"><stop offset="0" stop-color="#311944"/><stop offset="1" stop-color="#a03976"/></linearGradient><linearGradient id="i" x1="1119.29" y1="2200.63" x2="435.98" y2="3339.49" gradientTransform="matrix(1, 0, 0, 1, 0, 0)" gradientUnits="userSpaceOnUse"><stop offset="0" stop-color="#ff9085"/><stop offset="1" stop-color="#fb6fbb"/></linearGradient><linearGradient id="j" x1="1742.26" y1="2288.88" x2="638.1" y2="68.64" xlink:href="#i"/><linearGradient id="k" x1="913.88" y1="1858.16" x2="1980.01" y2="1858.16" gradientTransform="matrix(1, 0, 0, 1, 0, 0)" gradientUnits="userSpaceOnUse"><stop offset="0" stop-color="#311944"/><stop offset="1" stop-color="#893976"/></linearGradient><linearGradient id="l" x1="1740.13" y1="1206.51" x2="958.18" y2="2424.99" gradientTransform="matrix(1, 0, 0, 1, 0, 0)" gradientUnits="userSpaceOnUse"><stop offset="0" stop-color="#fcb148"/><stop offset=".05" stop-color="#fdb946"/><stop offset=".14" stop-color="#fec144"/><stop offset=".32" stop-color="#ffc444"/><stop offset=".48" stop-color="#fdb946"/><stop offset=".78" stop-color="#f99c4c"/><stop offset=".87" stop-color="#f8924f"/><stop offset="1" stop-color="#f8924f"/></linearGradient><linearGradient id="m" x1="1206.89" y1="2498.34" x2="1494.72" y2="1826.73" xlink:href="#k"/><linearGradient id="n" x1="1875.03" y1="1293.51" x2="1093.09" y2="2512" xlink:href="#l"/><linearGradient id="o" x1="1099" y1="2452.11" x2="1386.83" y2="1780.5" xlink:href="#k"/><linearGradient id="p" x1="2497.66" y1="2955.43" x2="2516.75" y2="3299.05" gradientTransform="matrix(1, 0, 0, 1, 0, 0)" gradientUnits="userSpaceOnUse"><stop offset="0" stop-color="#444b8c"/><stop offset="1" stop-color="#26264f"/></linearGradient><linearGradient id="q" x1="2530.14" y1="3097.52" x2="2541.52" y2="2840.34" gradientTransform="matrix(1, 0, 0, 1, 0, 0)" gradientUnits="userSpaceOnUse"><stop offset="0" stop-color="#ffc444"/><stop offset="1" stop-color="#f36f56"/></linearGradient><linearGradient id="r" x1="2843.19" y1="2936.23" x2="2862.28" y2="3279.85" xlink:href="#p"/><linearGradient id="s" x1="2833.55" y1="3110.94" x2="2844.93" y2="2853.76" xlink:href="#q"/><linearGradient id="t" x1="2494.39" y1="2698.23" x2="2712.88" y2="2664.09" xlink:href="#p"/><linearGradient id="u" x1="2512.27" y1="2468.58" x2="3140.43" y2="3052.35" xlink:href="#p"/><linearGradient id="v" x1="2844.83" y1="2101.85" x2="2711.2" y2="1912.54" xlink:href="#p"/><linearGradient id="w" x1="2587.02" y1="1719.42" x2="2697.31" y2="2393.93" xlink:href="#i"/><linearGradient id="x" x1="2700.62" y1="1700.84" x2="2810.92" y2="2375.35" xlink:href="#q"/><linearGradient id="y" x1="2677.8" y1="1704.57" x2="2788.1" y2="2379.08" xlink:href="#i"/><linearGradient id="a`" x1="2206.73" y1="1931.74" x2="2613.63" y2="1931.74" gradientTransform="matrix(1, 0, 0, 1, 0, 0)" xlink:href="#b"/><linearGradient id="aa" x1="2490.42" y1="1753.53" x2="2725.98" y2="1486.11" xlink:href="#q"/><linearGradient id="ab" x1="4500.36" y1="3549.1" x2="4746.16" y2="3752.79" gradientTransform="translate(1680.61 -259.51) rotate(30.31)" xlink:href="#q"/><linearGradient id="ac" x1="2206.73" y1="1930.16" x2="2579.19" y2="1930.16" gradientTransform="matrix(1, 0, 0, 1, 0, 0)" xlink:href="#b"/><linearGradient id="ad" x1="2332.58" y1="1942.47" x2="2578.38" y2="2146.17" xlink:href="#q"/></defs><g class="aq"><g id="a"><g><path class="bk" d="M2917.14,2850.46c-72.97,75.21-138.25,119.42-188.24,152.8-487.5,325.51-1044.77,231.69-1217.07,199.62-277.98-51.74-512.63-88.24-714.23-270.38-458.11-413.88-435.83-1277.28-85.78-1812.11,41.51-63.42,391.03-581.52,949.5-654.52,13.66-1.79,23.85-2.8,32.78-3.75,86.39-9.15,621.77-57.43,1058.31,308.31,62.49,52.35,163.05,146.78,256.31,290.81,340.98,526.62,342.06,1342.23-91.58,1789.22Z"/><g><g><path class="b`" d="M1689.92,2249.38c20.1,104.52-44.58,187.99-99.96,241.22-9.48-2.3-15.63-1.04-25.78-1.09-91.55-.46-129.39-21.22-218.73-36.69-19.23-3.33-71.85-31.36-92.57-44.31l-38.22-24.81s-17.51-246.43,114.74-280.42c132.25-33.99,144.02-271.98,165.01-398.16,56.96-342.35,412.2-221.62,520.56-655.69,28.82-115.45,45.18-345.26,165.41-413.03,136.97-77.21,192.39,45.72,285.5-24.18,145.52-109.24,338.63-113.4,411.41,54.36,71.83,165.57-126.33,410.33-503.11,552.98-258.72,132.95-275.87,187.75-292.82,327.36-11.87,97.79,17.18,367.45-136.14,434.12-153.32,66.67-278.26,148.85-255.29,268.33Z"/><g class="ba"><g class="am"><path class="bs" d="M1390.28,2467.73l-6.21-2.39c14.25-36.99,29.08-74.13,44.08-110.37,111.05-268.32,243.12-516.56,392.56-737.83,126.63-187.49,267.46-358.28,418.59-507.64,121.54-120.11,250.37-227.07,382.91-317.91,93.18-63.86,187.21-119.15,279.49-164.33,16.08-7.88,32.97-15.03,49.3-21.95,21.76-9.22,44.26-18.75,65.02-30.07l3.18,5.84c-21.05,11.47-43.7,21.07-65.6,30.36-16.25,6.89-33.05,14.01-48.97,21.8-91.99,45.04-185.74,100.17-278.65,163.85-132.21,90.61-260.73,197.32-381.99,317.16-150.82,149.05-291.37,319.5-417.75,506.63-149.19,220.9-281.05,468.74-391.92,736.65-14.98,36.19-29.79,73.27-44.02,110.22Z"/><path class="bs" d="M2067.63,1303.52l-5.17-4.19c180.1-221.63,191.99-710.88,192.08-715.79l6.65,.13c-.1,4.94-12.03,496.45-193.57,719.86Z"/><path class="bs" d="M1618.16,1967.68l-5.62-3.57c104.78-164.94,476.04-220.06,479.78-220.6l.95,6.59c-3.71,.53-371.97,55.21-475.11,217.58Z"/><path class="bs" d="M1566.81,2066.41l-6.16-2.52c48.27-118.07,51.03-304.88,7.75-526q-2.18-11.12-1.71-12.3l6.19,2.44-3.09-1.22,3.31-.03c.06,.76,.88,4.95,1.84,9.82,43.53,222.39,40.65,410.54-8.12,529.8Z"/><path class="bs" d="M1417.24,2400.58l-5.18-4.17c88.16-109.39,296.54-109.4,298.64-109.39l-.04,6.65c-2.06-.01-207.28,.02-293.42,106.91Z"/><path class="bs" d="M1380.39,2465.8c2.33-113.27-27.79-230.91-92.08-359.64l5.96-2.97c64.78,129.72,95.13,248.38,92.78,362.75l-6.65-.14Z"/><path class="bs" d="M2548.78,851.86l-4.92-4.48c107-117.64,192.15-266.04,220.13-314.8,6.77-11.8,9.17-15.95,10.26-17.25l5.1,4.27c-.82,1-4.69,7.75-9.59,16.3-28.07,48.92-113.48,197.79-220.98,315.97Z"/><path class="bs" d="M2346.51,1017.4l-3.38-5.73c128.38-75.88,416.98-.67,429.21,2.57l-1.71,6.43c-2.97-.78-298.13-77.73-424.12-3.27Z"/></g></g></g><g class="bc"><path class="be" d="M1588.57,2388.91l262.91,160.27s131.7-104.7,125.29-239.15c-13.08-274.33,228.1-266.64,329.6-278.53,153.07-17.93,262.61-94.88,179.42-238.82-94.12-162.86,154.96-291.81,406.33-285.14,245.99,6.53,399.53-426.98-131.58-489.99-317.18-37.63-438.61,248.96-534.33,379.1-95.73,130.15-307.05,16.92-339.44,227.45-27.67,179.83,22.12,353.6-124.62,399.38-146.74,45.78-223.09,150.86-173.59,365.43Z"/><g class="am"><path class="bh" d="M1687.49,2482.67l6.07,2.33c1.44-3.76,147.11-379.61,403.86-708.65,236.54-303.14,618.5-627.44,1094.92-450.88l2.26-6.09c-212.08-78.6-423.39-66.2-628.05,36.85-163.49,82.32-323.08,222.36-474.34,416.23-257.32,329.81-403.28,706.46-404.73,710.22Z"/><path class="bh" d="M2482.89,1402.98l5.93,2.67c88.92-197.23,317.5-415.06,319.8-417.24l-4.47-4.72c-2.31,2.19-231.81,220.9-321.26,419.29Z"/><path class="bh" d="M2621.14,1338.05c257.8-2.51,398.32,159.75,399.71,161.39l4.96-4.2c-1.41-1.67-143.77-166.24-404.73-163.69l.06,6.5Z"/><path class="bh" d="M1941.29,2000.61c221.57-223.85,616.6-71.08,620.33-69.27l3.22-5.64c-3.49-2.12-404.62-155.5-628.16,70.34l4.62,4.57Z"/><path class="bh" d="M2007.16,1888.68l6.13,2.18c67.48-189.32-44.31-416.03-45.44-418.3l-5.81,2.91c1.13,2.25,111.67,226.53,45.13,413.21Z"/><path class="bh" d="M1717.78,2426.36c70.09-96.97,264.67-88.98,266.63-88.89l.31-6.49c-8.13-.39-200.04-8.26-272.2,91.57l5.27,3.81Z"/><path class="bh" d="M1751.08,2336.89l6.04,2.4c34.94-87.92-31.35-249.99-53.13-303.25-3.08-7.53-5.73-14.02-5.98-15.27l-6.4,1.16c.32,1.77,2.07,6.09,6.36,16.57,21.54,52.66,87.08,212.91,53.1,298.39Z"/></g></g><g><path class="au" d="M2287.81,2502.53c-1.27,.25-2.53,.49-3.8,.73-75.13,14.28-159.77,16.61-254.31-.59-18.19-4.65-36.38-9.31-54.58-13.96-5.77-46.9-2.86-92.53,56.65-97.15,92.43-7.18,127.58-159.4,115.47-218.56-14.98-73.23-46.37-244.44,96.34-257.78,118.81-11.11,197.74,6.01,236.52-135.48,38.77-141.48,136.25-213.89,264.25-177.27,134.69,38.53,286.1-119.1,384.88-34.03,172.11,148.22-72.89,425.47-329.88,465.53-256.99,40.06-139.42,154.99-158.38,273.53-25.88,161.84-234.73,80.86-305.45,131.34-23.95,17.1-38.72,39.84-47.7,63.69Z"/><g class="br"><g class="am"><path class="bs" d="M2145.59,2513.85l-6.04-2.66c194.74-441.55,602.83-786.42,1065.01-900.03l1.57,6.41c-460.23,113.13-866.61,456.57-1060.54,896.29Z"/><path class="bs" d="M2272.39,2282.21l-6.45-1.42c40.76-185.22-86.04-364.5-87.32-366.29l5.36-3.85c1.3,1.81,129.81,183.41,88.41,371.56Z"/><path class="bs" d="M2183.63,2433.6l-5-4.31c125.53-145.65,471.88-93.95,475.36-93.41l-1.01,6.52c-3.45-.53-346.21-51.68-469.35,91.2Z"/><path class="bs" d="M2589.64,1931.37l-5.35-3.87c89.36-123.62,46.44-353.54,45.99-355.85l6.48-1.25c.45,2.34,43.89,235.07-47.12,360.97Z"/><path class="bs" d="M2843.14,1759.11l-2.17-6.24c164.17-57.06,377.35,41.33,379.49,42.34l-2.8,5.98c-2.11-.99-212.9-98.25-374.51-42.08Z"/></g></g></g></g><g><g><path class="al" d="M2204.46,1088.55l-69.73,.12c-4.8-46.06-15.88-90.27-32.35-131.81l58.95-34.19c16.11-9.34,21.62-30.42,12.33-47.12l-24.77-44.55c-9.34-16.8-30.09-22.97-46.38-13.73l-58.22,33.04c-27.1-37.97-59.44-72.21-96.07-101.65l33.49-57.52c9.61-16.51,3.91-38.23-12.76-48.57l-44.57-27.65c-16.85-10.45-38.47-5.51-48.25,11.09l-33.56,56.93c-43.12-20.09-89.73-34.58-138.88-42.35v-67.52c0-19.92-16.38-36.81-36.66-37.74l-54.26-2.48c-20.54-.94-37.23,14.62-37.23,34.76v68.26c-50.67,4.22-99.51,15.61-145.43,33.24l-36.22-61.71c-10.64-18.13-34.29-25.17-52.84-15.65l-49.62,25.45c-18.77,9.62-25.21,32.27-14.36,50.53l37.53,63.13c-41.08,29.04-77.8,63.81-108.9,103.23l-67.89-38.41c-19.25-10.89-43.95-5.24-55.13,12.67l-29.84,47.8c-11.26,18.03-4.57,41.44,14.89,52.21l70.24,38.87c-19.48,44.86-32.63,92.94-38.36,143.22l-84.26,.14c-22.68,.04-41.12,17.23-41.12,38.39v56.28c0,21.16,18.44,38.09,41.12,37.81l86.5-1.08c7.3,49.1,21.73,95.84,42.22,139.24l-76.35,43.33c-19.47,11.05-26.15,34.54-14.89,52.42l29.84,47.38c11.18,17.76,35.88,23.05,55.13,11.89l77.22-44.78c30.85,36.49,66.74,68.56,106.56,95.24l-44.52,75.52c-10.85,18.41-4.41,40.97,14.36,50.33l49.62,24.75c18.55,9.25,42.2,1.89,52.84-16.4l44.15-75.84c43.6,15.38,89.74,25.14,137.5,28.51v84.55c0,20.14,16.7,35.46,37.23,34.23l54.26-3.24c20.28-1.21,36.66-18.34,36.66-38.26v-83.63c46.35-7.92,90.44-21.79,131.48-40.65l40.96,68.91c9.79,16.46,31.4,21.1,48.25,10.41l44.57-28.28c16.67-10.58,22.37-32.38,12.76-48.75l-39.77-67.75c35.6-28.17,67.28-60.76,94.24-96.8l66.33,36.7c16.28,9.01,37.03,2.54,46.38-14.39l24.77-44.9c9.29-16.83,3.78-37.83-12.33-46.94l-64.14-36.29c17.37-40.75,29.53-84.13,35.66-129.31l71.6-.89c18.46-.23,33.38-15.82,33.38-34.83v-50.54c0-19.01-14.92-34.39-33.38-34.36Zm-564.5,416.09c-206.32,7.66-378.98-152.47-378.98-357.9s172.66-367.76,378.98-362.75c199.31,4.85,355.98,165.09,355.98,358.05s-156.67,355.2-355.98,362.6Z"/><polygon class="al" points="1409.1 589.1 1359.44 587.39 1342.31 631.92 1409.1 589.1"/><polygon class="al" points="1901.54 609.65 1958.8 610.22 1958.8 652.47 1901.54 609.65"/><polygon class="al" points="2119.77 813.41 2176.86 815.72 2162.59 847.69 2119.77 813.41"/><polygon class="al" points="2209.39 1089.15 2267.05 1093.71 2248.21 1121.68 2209.39 1089.15"/><polygon class="al" points="2113.49 1484.73 2169.44 1492.72 2176.29 1447.05 2113.49 1484.73"/><polygon class="al" points="1899.44 1690.79 1949.67 1699.93 1953.66 1662.82 1899.44 1690.79"/><polygon class="al" points="1648.27 1779.84 1603.18 1771.85 1641.99 1714.2 1648.27 1779.84"/><polygon class="al" points="1403.96 1731.32 1351.45 1720.48 1391.97 1671.39 1403.96 1731.32"/><polygon class="al" points="1108.85 790.6 1163.64 792.32 1141.95 832.27 1108.85 790.6"/><polygon class="al" points="999.82 1220.43 1050.05 1227.86 1046.06 1186.76 999.82 1220.43"/><polygon class="al" points="1107.7 1521.26 1156.8 1529.25 1160.79 1496.71 1107.7 1521.26"/></g><path class="av" d="M2260.79,1093.08l-70.3,.12c-4.84-46.43-16.01-91.01-32.62-132.88l59.44-34.47c16.25-9.42,21.8-30.67,12.44-47.5l-24.98-44.91c-9.42-16.94-30.34-23.16-46.76-13.85l-58.7,33.31c-27.32-38.28-59.93-72.8-96.86-102.48l33.76-57.99c9.69-16.64,3.94-38.54-12.87-48.96l-44.94-27.88c-16.99-10.54-38.79-5.56-48.65,11.18l-33.84,57.4c-43.48-20.25-90.47-34.86-140.03-42.7v-68.07c0-20.08-16.52-37.11-36.96-38.05l-54.71-2.5c-20.71-.94-37.54,14.74-37.54,35.05v68.82c-51.09,4.26-100.34,15.74-146.63,33.51l-36.52-62.21c-10.73-18.28-34.57-25.37-53.28-15.78l-50.03,25.66c-18.92,9.7-25.42,32.54-14.47,50.94l37.84,63.65c-41.42,29.28-78.44,64.33-109.81,104.07l-68.45-38.72c-19.41-10.98-44.31-5.29-55.59,12.77l-30.09,48.19c-11.35,18.18-4.61,41.77,15.02,52.63l70.83,39.19c-19.64,45.22-32.9,93.7-38.68,144.38l-84.96,.15c-22.86,.04-41.46,17.37-41.46,38.7v56.74c0,21.34,18.6,38.4,41.46,38.12l87.21-1.09c7.36,49.5,21.91,96.62,42.57,140.37l-76.98,43.68c-19.63,11.14-26.37,34.83-15.02,52.85l30.09,47.76c11.28,17.9,36.18,23.24,55.59,11.99l77.86-45.15c31.11,36.79,67.29,69.11,107.44,96.02l-44.89,76.14c-10.94,18.56-4.45,41.3,14.47,50.74l50.03,24.95c18.71,9.33,42.55,1.9,53.28-16.53l44.52-76.46c43.96,15.5,90.48,25.34,138.64,28.74v85.24c0,20.3,16.84,35.75,37.54,34.51l54.71-3.27c20.44-1.22,36.96-18.49,36.96-38.57v-84.31c46.74-7.99,91.19-21.97,132.57-40.98l41.3,69.47c9.87,16.6,31.66,21.27,48.65,10.49l44.94-28.51c16.81-10.66,22.55-32.64,12.87-49.15l-40.1-68.3c35.89-28.4,67.84-61.25,95.02-97.59l66.87,37c16.42,9.08,37.34,2.57,46.76-14.51l24.98-45.27c9.36-16.97,3.81-38.14-12.44-47.33l-64.67-36.58c17.51-41.08,29.77-84.81,35.96-130.36l72.2-.9c18.61-.23,33.65-15.95,33.65-35.11v-50.96c0-19.16-15.04-34.67-33.65-34.64Zm-569.17,419.48c-208.03,7.72-382.12-153.71-382.12-360.82s174.09-370.76,382.12-365.7c200.96,4.89,358.93,166.43,358.93,360.97s-157.97,358.1-358.93,365.55Z"/></g><g><g><path class="al" d="M3258.82,2883.38l-2700.16-23.52v69.58c0,18.89,11.78,34.94,27.73,37.81l763.52,137.02c9.06,1.63,18.25,2.06,27.39,1.29l1852.17-156.22c16.54-1.39,29.34-17.5,29.34-36.91v-29.05Z"/><g><path class="al" d="M2389.61,2770.59l-1801.22,127.29c-32.23,2.28-58.44-21.93-58.44-54.07V1556.15c0-32.14,26.21-58.2,58.44-58.2h1801.22c26.55,0,48.02,23.55,48.02,52.61v1164.02c0,29.05-21.47,54.12-48.02,56Z"/><path class="al" d="M2418.33,2770.59l-1801.22,127.29c-32.23,2.28-58.44-21.93-58.44-54.07V1556.15c0-32.14,26.21-58.2,58.44-58.2h1801.22c26.55,0,48.02,23.55,48.02,52.61v1164.02c0,29.05-21.47,54.12-48.02,56Z"/><path class="ai" d="M2362.21,2688.52l-1677.65,110.57c-26.23,1.73-47.54-18.14-47.54-44.38V1627.36c0-26.24,21.32-47.6,47.54-47.71l1677.65-6.94c21.91-.09,39.62,19.21,39.62,43.11v1026.81c0,23.9-17.72,44.44-39.62,45.88Z"/><path class="ai" d="M1581.33,1533.17c0,11.96-9.27,21.69-20.72,21.73-11.46,.04-20.76-9.66-20.76-21.65s9.3-21.72,20.76-21.73c11.45,0,20.72,9.68,20.72,21.65Z"/><path class="aj" d="M1984.35,2417.42c-138.86-74.71-248.04,19.96-353.41-73.45-63.88-56.63-32.52-98.86-111.12-183.48-87.06-93.73-143.74-62.22-231.24-146.58-110.63-106.66-55.3-189.65-150.6-266.23-115.61-92.9-240.28-6.92-350.33-96.01-47.47-38.43-73.51-94.3-87.11-153.71h-107.68c-18.87,0-34.19,15.29-34.19,34.16v1334.77c0,18.87,15.32,33.07,34.19,31.73l1835.74-130.31c9.01-.64,17-5.9,22.12-13.52-134.38-4.9-216.94-49.95-269.71-96.52-103.24-91.1-85.33-180.95-196.66-240.85Z"/></g><path class="av" d="M2373.38,2764.81l-1814.72,133.99,791.25,141.99c9.06,1.63,18.25,2.06,27.39,1.29l1881.51-158.7-856.57-117.66c-9.58-1.32-19.24-1.62-28.87-.91Z"/><polygon class="af" points="823.46 2902.17 2334.27 2788.96 2801.85 2852.67 1304.06 2973.68 823.46 2902.17"/></g><g><polygon class="av" points="2357.63 1893.26 679.8 1918.84 679.8 1613.86 2357.63 1613.86 2357.63 1893.26"/><polygon class="av" points="1825.61 2437.25 762.62 2483.65 762.62 1971.94 1825.61 1952.84 1825.61 2437.25"/><polygon class="av" points="2287.56 2086.31 1887.71 2096.57 1887.71 1951.73 2287.56 1944.54 2287.56 2086.31"/><polygon class="av" points="2287.56 2417.09 1887.71 2434.54 1887.71 2147.87 2287.56 2136.51 2287.56 2417.09"/><polygon class="av" points="2287.56 2482.07 762.62 2554.01 762.62 2675.54 2287.56 2594.3 2287.56 2482.07"/></g></g><g><path class="bd" d="M1412.04,2732.78c-35.28,1.02-69.7-7.87-99.51-25.73-90.82-54.44-225.01-144.35-345.75-262.04-153.2-149.34-241.22-301.15-260.48-450.22l-.3-2.34-3.74-636.07c0-125.71,81.99-227.75,235.93-294.8,127.18-55.4,295.75-82.85,473.84-77.69,176.01,5.1,338.88,41.41,459.43,101.92,143.3,71.93,218.49,173.03,218.49,292.88l-3.41,607.77-.28,2.23c-17.6,142.75-98.59,290.3-241.73,439.51-114.81,119.68-244.55,214.52-333.65,273.28-29.48,19.44-63.65,30.27-98.86,31.29Z"/><path class="bb" d="M1446.97,2732.78c-34.82,1.02-68.78-7.87-98.19-25.73-89.62-54.44-222.04-144.35-341.18-262.04-151.17-149.34-238.03-301.15-257.03-450.22l-.3-2.34-3.69-636.07c0-125.71,80.91-227.75,232.81-294.8,125.5-55.4,291.85-82.85,467.58-77.69,173.69,5.1,334.4,41.41,453.36,101.92,141.41,71.93,215.6,173.03,215.6,292.88l-3.36,607.77-.27,2.23c-17.37,142.75-97.28,290.3-238.53,439.51-113.3,119.68-241.32,214.52-329.24,273.28-29.09,19.44-62.81,30.27-97.55,31.29Z"/><path class="bn" d="M788.57,1356.83l3.71,632.86c41.66,322.9,421.14,584.33,586.42,683.66,47.35,28.45,107.88,26.77,154.89-4.17,161.83-106.49,520.53-374.57,558.85-685.02l3.4-606.1c0-449.67-1307.28-490.78-1307.28-21.23Z"/><path class="bq" d="M1456.35,2575.8c-3.03,.07-7.61-.43-12.25-3.24-68.05-41.21-199.97-127.53-314.73-240.26-123.96-121.77-195.45-240.15-211.85-351.34l-3.64-622.38c.15-59.72,47.42-110.83,140.09-151.72,103.44-45.65,250.35-69.61,402.38-66,150.52,3.57,293.14,33.87,391.94,82.9,87.4,43.37,131.58,94.49,131.72,152.14l-3.39,600.83c-15.3,107.6-82.4,223.59-200.22,345.52-110.78,114.65-240.18,205.53-307.82,249.72-4.63,3.02-9.21,3.74-12.24,3.82Z"/><path class="ao" d="M1440.82,2533.26c-68.73-42.33-190.93-124.06-297.56-228.99-116.49-114.65-183.91-224.67-199.76-326.47l-3.61-618.77c.11-42.7,39.35-81.86,116.35-115.95,97.99-43.39,238.39-66.25,384.57-62.97,144.78,3.25,281.24,31.85,375.02,78.24,72.86,36.05,109.73,75.38,109.83,117.02l-3.38,598.62c-14.87,98.77-78.46,206.79-189.65,321.66-103.24,106.65-223.39,192.41-291.8,237.61Z"/><g><path class="at" d="M1686.72,1723.13l-462.79,4.12c-35.58,.32-64.56,28.05-64.56,61.93v296.51c0,33.68,28.88,59.78,64.32,58.33l461.15-18.88c32.8-1.34,59.4-28.5,59.57-60.67l1.47-283.26c.17-32.35-26.25-58.36-59.16-58.07Z"/><path class="bl" d="M1518.65,1893.16c.1-32.75-28-58.63-62.32-56.46-30.39,1.92-55.59,26.46-57.3,55.91-1.32,22.84,11.03,42.63,29.84,52.68,8,4.27,11.95,13.22,10.37,22.06l-13.38,74.9c-1.7,9.53,5.86,17.92,15.82,17.57l33.86-1.19c9.9-.35,17.43-9.22,15.79-18.59l-12.94-74.19c-1.55-8.86,3.02-17.64,11.04-22.47,17.44-10.49,29.15-29.17,29.21-50.22Z"/><path class="bo" d="M1680.22,1693.72c-13.9,.09-25.14-10.95-25.08-24.67l.28-64.59c.28-64.87-53.35-118.24-120.19-118.9l-151.06-1.5c-69.18-.69-126.05,53.25-126.11,120.18l-.06,66.63c-.01,14.15-12.06,25.69-26.93,25.79-14.91,.1-27.02-11.34-27.01-25.54l.03-66.91c.04-95.65,81.49-172.45,180.19-171.08l151.12,2.1c94.94,1.32,170.77,77.3,170.33,169.26l-.31,64.33c-.07,13.66-11.34,24.8-25.2,24.89Z"/></g></g><g><path class="aw" d="M2545.48,3077.61s2.39,19,.79,25.36c-1.6,6.36-56.83,10.96-75.58,8.75-18.75-2.21,11.17-21.36,23.11-24.96,11.94-3.59,51.68-9.15,51.68-9.15Z"/><path class="bp" d="M2517.68,3045.92l5.82,38.11s14.84,6.67,21.98,.08l.79-39.89-28.59,1.7Z"/><path class="ak" d="M2829.03,3044.22s-11.72,8.7-8.59,19.11c3.12,10.41,30.47,52.14,49.96,63.99,19.49,11.84,13.38-12.83,7.71-28.2-5.67-15.37-20.16-49.22-25.82-54.9-5.66-5.67-23.25,0-23.25,0Z"/><path class="bj" d="M2807.95,3002.35c5.66,15.79,11.11,28.77,15.38,38.35,9.43,21.18,14.58,29.13,20.42,36.02,5.09,6,17.14,18.81,20.38,16.68,3.29-2.16-5.53-17.73-22.52-63.34-2.47-6.62-10.26-27.71-10.26-27.71h-23.39Z"/><path class="ah" d="M2402.02,2342.55c-4.04,39.69-7.92,101.29-2.12,176.06,7.56,97.41,27.03,159.05,51.46,262.9,14.93,63.47,35.04,156.89,53.25,273.72,4.22,2.42,16.65,8.77,32.65,6.4,8.96-1.33,15.66-4.89,19.61-7.45,47.76-145.93,33.65-236.37,10.6-292.71-9.82-24.02-21.73-42.97-28.1-79.88-8.42-48.84,1.99-76.15,16.85-189.29,10.59-80.64,8.76-93.11,1.71-105.2-28.16-48.35-114.29-47.41-155.9-44.54Z"/><path class="ap" d="M2566.41,2359.52c29.26,151.09,57.97,230.45,79.7,275.33,5.36,11.07,23.24,46.78,40.14,97.98,14.96,45.32,21.2,78.66,24.39,93.33,10.09,46.31,35.02,113.94,102.09,202.63,.84,.49,12.27,6.96,23.21,1.19,5.53-2.92,8.29-7.57,9.39-9.74-8.77-84.8-18.84-156.06-27.57-211.05-1.83-11.53-9.91-62-22.57-128.67-4.96-26.09-12.22-64.32-20.91-103.59-10.83-48.9-27.43-115.42-53.03-195.14-51.61-7.43-103.23-14.85-154.84-22.27Z"/><path class="ar" d="M2541.48,1761.9c-16.59-15.34-48.33-33.02-64.26-74.12-4.79-12.37-21.77-56.21,3.27-89.74,14.86-19.9,42.48-33.42,66.82-28.63,20.8,4.09,24.05,18.57,59.39,47.72,13.76,11.35,35.87,29.59,60.48,39.73,42.16,17.38,67.49,1.03,109.82,2.89,52,2.29,112.41,31.31,141.51,73.51,51.66,74.9-23.17,150.88,33.41,238.63,18.54,28.75,27.68,22.3,71.59,77.95,43.97,55.72,65.95,83.58,62.04,117.72-5.43,47.38-56.47,92.65-104.53,95.72-46.95,3.01-76.79-33.93-100.69-17.77-17.01,11.5-7.28,33.86-25.35,60.74-23.29,34.65-69.07,41.56-76.46,42.67-68.62,10.35-161.15-70.12-200.45-165.45-70.86-171.91,53.62-338.19-36.59-421.57Z"/><path class="bm" d="M2259.9,1809.62c-.47-47.99,108.54-86.33,158.41-98.69,77.58-19.22,139.71-7.15,154.8-3.96,96.76,20.5,157.02,78.56,179.7,102.96-18.57,12.09-69.82,48.99-95.21,119-7.9,21.78-31.23,96.24,2.14,165.98,19.22,40.19,53.24,70.36,79.06,93.28,38.74,34.37,58.81,39.65,71.8,70.44,14.14,33.53-.11,49.88,17.46,72.84,18.86,24.65,40.97,13.19,72.94,38.12,32.75,25.53,21.1,46.55,50.91,74.77,43.31,41,100.73,27.68,103.4,46.13,2.3,15.87-38.51,37.4-73.18,46.13-68.66,17.29-128.55-11.73-146.36-20.68-49.31-24.77-40.79-40.8-78.38-59.69-62.95-31.62-105.96,3.57-249.33,7.19-77.64,1.96-116.89,2.4-138.4-23.86-19.64-23.99-9.32-50.31,2.47-163.73,5.61-53.98,7.63-108.28,11.77-162.4,11.69-153.08,12.05-166.55,1.67-187.71-37.19-75.81-125.26-73.07-125.68-116.13Z"/><g class="ag"><path class="bg" d="M2951.92,2444.37c-29.81-28.22-18.15-49.24-50.91-74.77-31.98-24.93-54.08-13.47-72.94-38.12-17.57-22.96-3.31-39.31-17.46-72.84-12.99-30.79-33.05-36.07-71.8-70.44-25.83-22.92-59.84-53.09-79.06-93.28-33.37-69.74-10.04-144.2-2.14-165.98,25.38-70,76.63-106.9,95.21-119-1.79-1.93-3.9-4.12-6.15-6.43-122.36,16.82-193.71,87.52-202.53,108.46-20.4,48.4,11.89,66.17,12.73,205.75,.4,66.71-6.8,93.06,14.85,120.9,24.76,31.85,53.29,21.99,89.09,63.63,27.51,31.99,23.1,52.27,48.79,65.75,27.62,14.49,45.21-2.4,76.36,4.24,52.04,11.1,63.17,71.1,97.57,103.93,26.02,24.82,74.12,42.18,168.98,23.55,2.19-3.19,3.25-6.31,2.83-9.23-2.67-18.45-60.09-5.13-103.4-46.13Z"/></g><path class="an" d="M2581.25,1949.62c-13.01,27.62,46.76,91.96,113.2,122.51,13.53,6.23,110.74,50.92,154.06,7.94,35.8-35.52,12.69-108.95,4.45-135.17-40.5-128.73-164.88-194.22-217.01-217.84-38.9,97.27-15.99,140.61-6.97,154.15,9.42,14.14,35.71,43.83,63.63,70,19.64,18.4,31.87,27.35,30.23,30.23-2.05,3.57-25.07-3.18-114.49-46.7-10.37,1.68-22.65,5.45-27.09,14.88Z"/><path class="as" d="M2207.09,1790.92l43.88,218.51c1.41,7,6.83,12.5,13.82,14l327.16,70.21c11.72,2.52,22.57-6.96,21.64-18.92l-17.27-222.23c-.6-7.71-6.06-14.16-13.57-16.02-51.9-12.81-251.65-60.78-357-67.01-11.77-.7-20.97,9.89-18.65,21.45Z"/><path class="bi" d="M2533.4,1631.34s6.17,49.33,24.38,60.64c18.21,11.3,47.64,26.06,50.89,30.07,3.24,4-112.8,16.48-170.31-12.54h0c18.95-3.95,24.1-5.41,24.1-5.41,5.14-1.45,14.74-4.16,24.36-9.64,6.55-3.73,17.1-11.01,26.78-24.76l-.21-27.32,20.01-11.04Z"/><path class="ay" d="M2536.17,1648.81s-11.87,16.3-30.49,9.5c-16.67-6.08-6.72-49.14,6.5-54.05,4.41-1.64,12.51-.91,17.92,2.46,3.81,2.38,13.98,15.01,8.15,29.16,4.21-1.22,7.92-.11,8.85,1.97,1.18,2.64-2.39,6.25-3.2,7.06-2.8,2.83-6.18,3.62-7.73,3.88Z"/><path class="ae" d="M2501.71,1979.84c-35.14-9.91-64.28,14.7-92.27-4.77-28.67-19.94-9.96-54-39.77-87.5-31.87-35.81-72.31-18.27-101.81-50.91-10.95-12.12-20.8-31.86-20.96-65.52-7.39-.71-14.47-1.28-21.16-1.68-11.77-.7-20.97,9.9-18.65,21.45l43.88,218.5c1.41,7,6.83,12.5,13.81,14l314.41,67.47c-22.2-77.88-51.82-103.82-77.48-111.05Z"/><path class="ax" d="M2227.91,1907.16s-20.87-19.29-23.14-41.7c-2.27-22.41,13.48-40.34,28.74-44.91,15.26-4.57,23.4,2.17,13.16,24.23-10.24,22.06-26.49,36.39-18.75,62.37Z"/></g></g></g></g></svg>