<?xml version="1.0" encoding="UTF-8"?><svg xmlns="http://www.w3.org/2000/svg" xmlns:xlink="http://www.w3.org/1999/xlink" viewBox="0 0 3710 3710"><defs><style>.al{fill:#26264f;}.am{fill:url(#t);}.an,.ao{fill:#fff;}.ap{fill:url(#r);}.aq{fill:#97a6b7;}.ao{opacity:.48;}.ao,.ar{mix-blend-mode:soft-light;}.as{fill:url(#ai);}.at{fill:url(#y);}.au{fill:url(#l);}.av{fill:url(#c);}.aw{fill:url(#u);}.ax{fill:url(#ah);}.ay{isolation:isolate;}.b`{fill:url(#v);}.ba{fill:url(#a`);}.bb{fill:url(#m);}.bc{fill:url(#f);}.bd{fill:url(#ae);}.ar{opacity:.5;}.be{fill:url(#p);}.bf{fill:url(#ad);}.bg{fill:url(#ab);}.bh{clip-path:url(#b);}.bi{fill:url(#ak);}.bj{fill:url(#af);}.bj,.bk{mix-blend-mode:multiply;opacity:.3;}.bl{fill:#d8dee8;}.bm{fill:url(#i);}.bn{clip-path:url(#e);}.bo{fill:url(#aj);}.bp{fill:url(#h);}.bq{fill:url(#d);}.br{fill:none;}.bs{fill:url(#x);}.bt{fill:#beb8f2;}.bu{fill:url(#aa);}.bv{fill:url(#s);}.bw{fill:#f4f7fa;}.bx{fill:url(#n);}.by{fill:url(#ac);}.bk{fill:url(#w);}.c`{fill:url(#j);}.ca{fill:url(#o);}.cb{fill:url(#q);}.cc{fill:url(#ag);}.cd{fill:url(#k);}.ce{clip-path:url(#g);}.cf{fill:#fcfdfe;}</style><clipPath id="b"><path class="br" d="M1577.37,2069.94l197.49-94.96s-11.54-119.18-94.31-167.41c-168.89-98.39-70.93-239.44-38.73-304.65,48.55-98.35,48.44-206.19-84.36-189.31-132.8,16.88-103.08-215.8-1.78-363.33,99.13-144.37-100.31-403.89-343.55-111.11-145.26,174.85-21.12,358.3,19.54,465.85,40.66,107.55-108.76,189.92,4.42,290.76,96.68,86.14,219.73,123.68,190.26,229.03-29.47,105.35,3.72,191.62,151.03,245.13Z"/></clipPath><linearGradient id="c" x1="3062.9" y1="189.99" x2="2626.66" y2="1429.85" gradientTransform="translate(-1468.51 1908.72) rotate(-25.68)" gradientUnits="userSpaceOnUse"><stop offset="0" stop-color="#e38ddd"/><stop offset="1" stop-color="#9571f6"/></linearGradient><linearGradient id="d" x1="-1571.08" y1="-865.18" x2="-943.79" y2="783.09" gradientTransform="translate(310.16 2786.28) rotate(122.8) scale(1 -1)" gradientUnits="userSpaceOnUse"><stop offset="0" stop-color="#ffc444"/><stop offset="1" stop-color="#f36f56"/></linearGradient><clipPath id="e"><path class="br" d="M1503.32,2037.34l-153.53,163.41s-160.86-23.06-156.51-111.6c4.35-88.54-138.73-130.58-211.78-162.19-198.22-85.77-57.06-292.79-301.53-424.39-65.02-35-202.23-78.75-220.79-164.6-21.14-97.81,64.44-114.98,39.44-184-39.08-107.87-4.95-230.55,111.29-252.18,114.73-21.34,226.56,139.51,242.12,398.43,32.06,182.88,62.26,201.69,144.29,232.7,57.45,21.72,227.61,42.55,239.22,149.17,11.6,106.61,38.06,197.54,115.38,200.39,117.65,4.33,152.39,154.87,152.39,154.87Z"/></clipPath><linearGradient id="f" x1="4652.5" y1="-1192.85" x2="5295.66" y2="-134.05" gradientTransform="translate(4308.29 -2451.84) rotate(122.15) scale(1 -1)" gradientUnits="userSpaceOnUse"><stop offset="0" stop-color="#ff9085"/><stop offset="1" stop-color="#fb6fbb"/></linearGradient><clipPath id="g"><path class="br" d="M1396.21,1622.83l-140.18,219.8c-37.82-5.55-102.95-23.07-87.11-77.4,22.03-75.54-84.98-142.71-134.26-148.28-60.99-6.88-202.51-25.89-170.24-143.11,26.86-97.59,63.61-156.12-34.03-223.43-97.64-67.3-124.46-163.65-58.02-256.29,69.91-97.49-6.6-258.75,88.52-315.63,165.73-99.11,306.67,167.54,260.94,382.76-45.73,215.21,78.05,151.03,163.89,196.63,117.2,62.26-7.59,207.95,10.28,277.32,14.01,54.38,65.95,77.43,100.21,87.62Z"/></clipPath><linearGradient id="h" x1="3233.21" y1="443.75" x2="2819.35" y2="841.54" gradientTransform="matrix(1, 0, 0, 1, 0, 0)" gradientUnits="userSpaceOnUse"><stop offset="0" stop-color="#311944"/><stop offset="1" stop-color="#a03976"/></linearGradient><linearGradient id="i" x1="2104.51" y1="1753.13" x2="1397.45" y2="2931.57" gradientTransform="matrix(1, 0, 0, 1, 0, 0)" xlink:href="#f"/><linearGradient id="j" x1="2749.13" y1="1844.45" x2="1606.59" y2="-452.96" gradientTransform="matrix(1, 0, 0, 1, 0, 0)" xlink:href="#f"/><linearGradient id="k" x1="1891.96" y1="1398.76" x2="2995.14" y2="1398.76" gradientTransform="matrix(1, 0, 0, 1, 0, 0)" gradientUnits="userSpaceOnUse"><stop offset="0" stop-color="#311944"/><stop offset="1" stop-color="#893976"/></linearGradient><linearGradient id="l" x1="2794.94" y1="829.59" x2="2341.22" y2="1668.28" gradientTransform="matrix(1, 0, 0, 1, 0, 0)" xlink:href="#c"/><linearGradient id="m" x1="2388.94" y1="1382.11" x2="2546.72" y2="1626.67" xlink:href="#k"/><linearGradient id="n" x1="2663.83" y1="758.66" x2="2210.11" y2="1597.35" gradientTransform="matrix(1, 0, 0, 1, 0, 0)" xlink:href="#c"/><linearGradient id="o" x1="646.08" y1="2388.21" x2="2350.52" y2="2388.21" gradientTransform="matrix(1, 0, 0, 1, 0, 0)" gradientUnits="userSpaceOnUse"><stop offset="0" stop-color="#444b8c"/><stop offset="1" stop-color="#26264f"/></linearGradient><linearGradient id="p" y1="3043.57" x2="3213.74" y2="3043.57" xlink:href="#o"/><linearGradient id="q" x1="1159.08" y1="2534.41" x2="1214.7" y2="2463.99" gradientTransform="translate(282.95 35.64) rotate(-4.23)" gradientUnits="userSpaceOnUse"><stop offset="0" stop-color="#aa80f9"/><stop offset="1" stop-color="#6165d7"/></linearGradient><linearGradient id="r" x1="1460.24" y1="3291.63" x2="1551.74" y2="3291.63" gradientTransform="translate(2447.53 -434.28) rotate(160.4) scale(1 -1)" xlink:href="#o"/><linearGradient id="s" x1="1280.33" y1="3305.96" x2="1318.91" y2="3226.09" gradientTransform="translate(2464.41 -354.05) rotate(164.36) scale(1 -1)" xlink:href="#d"/><linearGradient id="t" x1="1603.58" y1="3285.72" x2="1695.08" y2="3285.72" gradientTransform="translate(2447.53 -434.28) rotate(160.4) scale(1 -1)" xlink:href="#o"/><linearGradient id="u" x1="1423.74" y1="3309.97" x2="1462.32" y2="3230.11" gradientTransform="translate(2464.41 -354.05) rotate(164.36) scale(1 -1)" xlink:href="#d"/><linearGradient id="v" x1="856.4" y1="2860.02" x2="1079.32" y2="2577.76" xlink:href="#q"/><linearGradient id="w" x1="882.49" y1="2871.86" x2="1103.28" y2="2592.29" xlink:href="#q"/><linearGradient id="x" x1="721.59" y1="2747.07" x2="948.31" y2="2459.99" xlink:href="#q"/><linearGradient id="y" x1="1167.8" y1="3194.24" x2="1475.19" y2="2805.01" gradientTransform="translate(282.95 35.64) rotate(-4.23)" xlink:href="#f"/><linearGradient id="a`" x1="1350.84" y1="2834.74" x2="994.2" y2="3229.79" gradientTransform="translate(282.95 35.64) rotate(-4.23)" xlink:href="#f"/><linearGradient id="aa" x1="1183.04" y1="2937.6" x2="1132.97" y2="2795.73" gradientTransform="translate(282.95 35.64) rotate(-4.23)" xlink:href="#k"/><linearGradient id="ab" x1="964.3" y1="2732.06" x2="982.66" y2="2858.91" gradientTransform="translate(282.95 35.64) rotate(-4.23)" xlink:href="#k"/><linearGradient id="ac" x1="958.79" y1="2759.85" x2="1062.55" y2="2759.85" gradientTransform="translate(282.95 35.64) rotate(-4.23)" xlink:href="#d"/><linearGradient id="ad" x1="1328.08" y1="2743.16" x2="1230.46" y2="2604.54" gradientTransform="translate(282.95 35.64) rotate(-4.23)" xlink:href="#o"/><linearGradient id="ae" x1="1140.83" y1="2972.58" x2="1354.47" y2="2538.62" gradientTransform="translate(282.95 35.64) rotate(-4.23)" xlink:href="#k"/><linearGradient id="af" x1="1036.47" y1="2694.06" x2="1505.81" y2="2694.06" gradientTransform="translate(282.95 35.64) rotate(-4.23)" xlink:href="#k"/><linearGradient id="ag" x1="1549.36" y1="2199.87" x2="1559.69" y2="1924.55" gradientTransform="translate(667.9 -178.58) rotate(19.28)" xlink:href="#d"/><linearGradient id="ah" x1="993.01" y1="2259.37" x2="922.93" y2="2081.39" gradientTransform="translate(2763.92 280.66) rotate(-169.84) scale(1 -1)" gradientUnits="userSpaceOnUse"><stop offset="0" stop-color="#311944"/><stop offset="1" stop-color="#6b3976"/></linearGradient><linearGradient id="ai" x1="447.34" y1="2112.18" x2="444.11" y2="2371.86" gradientTransform="translate(1271.29 64.44) rotate(6.65)" xlink:href="#d"/><linearGradient id="aj" x1="971.6" y1="2267.89" x2="901.45" y2="2089.73" xlink:href="#ah"/><linearGradient id="ak" x1="902.94" y1="2160.54" x2="906.59" y2="2193.06" gradientTransform="translate(2763.92 280.66) rotate(-169.84) scale(1 -1)" gradientUnits="userSpaceOnUse"><stop offset="0" stop-color="#ffc444"/><stop offset="1" stop-color="#f36f56"/></linearGradient></defs><g class="ay"><g id="a"><g><path class="bw" d="M1125.07,623.29c-94.43,135.18,16.29,354.35-123.83,456.02-136.4,98.97-303.96-63.25-432.5,21.94-190.69,126.38-155.87,704.65,122.93,1063.94,83.84,108.05,153.9,150.09,184.93,272.29,66.63,262.4-167.53,418.49-122.97,548.26,100.33,292.21,1643.37,537.41,2262.5-340.78,289.16-410.15,332.43-1002.41,74.07-1452.24-466.85-812.83-1753.24-872.77-1965.13-569.44Z"/><g><g class="bh"><path class="av" d="M1577.37,2069.94l197.49-94.96s-11.54-119.18-94.31-167.41c-168.89-98.39-70.93-239.44-38.73-304.65,48.55-98.35,45-193.55-73.16-199.6-133.69-6.84-114.28-205.5-12.98-353.04,99.13-144.37-100.31-403.89-343.55-111.11-145.26,174.85-21.12,358.3,19.54,465.85,40.66,107.55-108.76,189.92,4.42,290.76,96.68,86.14,219.73,123.68,190.26,229.03-29.47,105.35,3.72,191.62,151.03,245.13Z"/><g class="ar"><path class="bt" d="M1671.66,2047.17l3.74-2.72c-1.69-2.32-169.74-234.81-266.85-515.52-89.46-258.61-135.25-612.25,154.62-828.41l-2.77-3.71c-129.04,96.22-203.43,227.21-221.13,389.33-14.13,129.5,7.71,279.02,64.93,444.4,97.34,281.34,265.76,514.32,267.45,516.64Z"/><path class="bt" d="M1334.81,1154.19l3.89-2.51c-83.36-129.46-124.95-350.28-125.36-352.5l-4.55,.84c.41,2.23,42.18,223.95,126.02,354.16Z"/><path class="bt" d="M1349.56,1046.5c98.3-154.93,249.6-176.02,251.12-176.22l-.59-4.59c-1.54,.2-154.93,21.5-254.43,178.32l3.91,2.48Z"/><path class="bt" d="M1482.03,1708.99c-47.9-218.98,196.26-395.74,198.78-397.26l-2.12-4.1c-2.62,1.26-249.5,181.43-201.17,402.35l4.52-.99Z"/><path class="bt" d="M1440.7,1626.31l3.67-2.81c-86.94-113.59-265.6-134.6-267.39-134.8l-.51,4.6c1.78,.2,178.51,21.01,264.23,133.01Z"/><path class="bt" d="M1649.76,2007.28c-30.78-79.4,49.32-192.5,50.14-193.63l-3.76-2.7c-3.38,4.71-82.38,116.26-50.69,198l4.31-1.67Z"/><path class="bt" d="M1609.22,1952.76l3.77-2.68c-38.97-54.9-161.42-78.06-201.66-85.67-5.69-1.08-10.59-2-11.44-2.34l-1.78,4.27c1.18,.49,4.44,1.12,12.36,2.62,39.78,7.52,160.86,30.42,198.75,83.8Z"/></g></g><g><path class="bq" d="M1381.91,1875.8c67.63,2.49,75.34,62.18,97.33,104.93-3.2,5.66-3.6,9.73-5.56,16.14-17.66,57.81-37.52,78.71-63.92,132.94-5.68,11.67-32.79,40.86-44.63,52.08l-22.41,20.56s-153.79-24.75-149.44-113.29c4.35-88.54-138.73-130.58-211.78-162.19-44.86-19.41-59.16-42.66-74.5-52.44-162.37-103.52-240.32-80.64-272.45-146.74-35.46-72.97,49.39-121.73,15.01-203.14-38.82-91.93-173.08-91.47-190.38-186.68-2.97-16.32-5.57-33.17-.66-54.75,12.12-53.26,59.54-75.58,40.1-129.24-39.08-107.87-4.95-230.55,111.29-252.18,114.73-21.34,226.56,139.51,242.12,398.43,32.06,182.88,62.26,201.69,144.29,232.69,57.45,21.72,227.61,42.55,239.22,149.17,11.6,106.61,69.04,190.87,146.36,193.72Z"/><g class="bn"><g class="ar"><path class="cf" d="M1427.36,2103.64l-2.64,3.58c-19.88-14.39-39.74-29.16-59.02-43.91-142.75-109.2-269.25-228.78-375.98-355.41-90.44-107.3-167.99-221.16-230.49-338.41-50.26-94.29-91.12-191.28-121.42-288.27-21.3-68.18-37.21-135.67-47.28-200.57-1.76-11.31-2.92-23.02-4.05-34.35-1.5-15.09-3.05-30.7-6.02-45.47l4.17-1.16c3.01,14.97,4.57,30.69,6.08,45.88,1.12,11.27,2.28,22.93,4.02,34.13,10.04,64.7,25.9,131.98,47.14,199.97,30.23,96.75,70.98,193.51,121.13,287.58,62.37,117.01,139.77,230.64,230.03,337.73,106.55,126.42,232.85,245.81,375.38,354.84,19.25,14.73,39.08,29.48,58.94,43.85Z"/><path class="cf" d="M845.11,1506.21l-3.54,2.66c-101.13-146.07-397.6-224.7-400.58-225.48l1.34-4.19c3,.78,300.84,79.77,402.78,227.01Z"/><path class="cf" d="M1165.3,1886.89l-3.24,3.03c-80.82-90.21-44-332.92-43.61-335.37l4.2,.36c-.38,2.42-36.9,243.17,42.65,331.97Z"/><path class="cf" d="M1215.84,1933.71l-2.71,3.53c-62.93-47.68-176.46-76.57-319.7-81.35q-7.2-.24-7.83-.7l2.67-3.56-1.33,1.78,.61-2.1c.47,.07,3.19,.16,6.35,.27,144.05,4.81,258.38,33.98,321.94,82.14Z"/><path class="cf" d="M1391.48,2076.84l-3.53,2.67c-50.05-71.63-10.5-203.37-10.1-204.69l4.06,.99c-.4,1.3-39.33,131.04,9.57,201.03Z"/><path class="cf" d="M1424.31,2109.61c-68.72-17.93-146.26-15.99-237.07,5.94l-.69-4.2c91.5-22.09,169.71-24.03,239.1-5.92l-1.35,4.18Z"/><path class="cf" d="M660.67,1136.39l-3.67,2.46c-51.52-84.74-125.96-160.14-150.42-184.92-5.92-6-8-8.12-8.59-8.99l3.57-2.61c.46,.66,3.84,4.09,8.13,8.43,24.54,24.85,99.22,100.49,150.97,185.62Z"/><path class="cf" d="M723.35,1288.33l-4.14,1.31c-21.96-92.19,78.75-263.7,83.05-270.96l3.6,2.01c-1.04,1.76-104.06,177.17-82.51,267.64Z"/></g></g></g><g><path class="bc" d="M1459.17,1874.42c-7.13,8.71,38.68,41.31-41.11,29.64-19.93-2.92,46.45-68.56,0,0-9.02,13.31-182.03-81.98-191.05-68.67-37.92-7.46-72.28-21.51-58.09-70.16,22.03-75.54-84.98-142.71-134.26-148.28-60.99-6.89-202.51-25.89-170.24-143.11,26.86-97.59,63.61-156.13-34.03-223.43-97.64-67.3-124.46-163.65-58.02-256.28,69.91-97.49-6.59-258.75,88.52-315.63,165.73-99.11,306.67,167.54,260.94,382.76-45.73,215.21,78.05,151.03,163.89,196.63,7.73,4.69,19.35,12.54,31.31,24.43,73.61,73.15,32.25,171.93,62.32,279.98,41.01,147.36,91.84,297.44,79.82,312.11Z"/><g class="ce"><g class="ar"><path class="cf" d="M1297.25,1705.93l-3.86,4.13c-282.73-268.84-427.22-682.92-377.06-1080.65l5.42,.39c-49.94,396.05,93.94,808.4,375.5,1076.13Z"/><path class="cf" d="M1156.27,1545.26l-3.02,4.78c-130.81-80.14-307-25.14-308.77-24.58l-1.37-5.27c1.79-.57,180.28-56.33,313.16,25.07Z"/><path class="cf" d="M1246.65,1654.96l-4.82,2.88c-74.98-137.55,68.22-400.41,69.67-403.05l4.73,2.48c-1.44,2.61-143.14,262.75-69.59,397.69Z"/><path class="cf" d="M980.09,1202.07l-4.58,3.27c-68.77-103.04-259.04-127.95-260.95-128.19l.97-5.49c1.94,.24,194.53,25.46,264.56,130.41Z"/><path class="cf" d="M922.74,955.64l-5.46,.13c4.92-145.58,144.45-290.24,145.86-291.69l3.78,3.77c-1.4,1.43-139.33,144.49-144.18,287.79Z"/></g></g></g></g><g><g><path class="aq" d="M3069.89,2448.4l-56.31,.1c-3.88-37.19-12.82-72.9-26.13-106.44l47.61-27.61c13.01-7.55,17.46-24.56,9.96-38.05l-20.01-35.98c-7.55-13.57-24.3-18.55-37.45-11.09l-47.02,26.68c-21.88-30.66-48-58.31-77.58-82.09l27.04-46.45c7.76-13.33,3.16-30.87-10.3-39.22l-35.99-22.33c-13.61-8.44-31.06-4.45-38.97,8.96l-27.1,45.98c-34.82-16.22-72.46-27.92-112.15-34.2v-54.52c0-16.08-13.23-29.73-29.6-30.47l-43.82-2c-16.58-.76-30.07,11.81-30.07,28.07v55.12c-40.92,3.41-80.36,12.61-117.44,26.84l-29.25-49.83c-8.6-14.64-27.69-20.32-42.67-12.64l-40.07,20.55c-15.15,7.77-20.36,26.06-11.59,40.8l30.31,50.98c-33.17,23.45-62.83,51.53-87.94,83.36l-54.82-31.02c-15.54-8.79-35.49-4.23-44.52,10.23l-24.1,38.6c-9.09,14.56-3.69,33.46,12.03,42.16l56.73,31.39c-15.73,36.22-26.35,75.05-30.98,115.65l-68.04,.12c-18.31,.03-33.21,13.91-33.21,31v45.45c0,17.09,14.89,30.76,33.21,30.53l69.85-.87c5.9,39.65,17.54,77.4,34.1,112.44l-61.65,34.99c-15.72,8.92-21.12,27.9-12.03,42.33l24.1,38.26c9.03,14.34,28.98,18.61,44.52,9.6l62.36-36.16c24.92,29.47,53.89,55.36,86.05,76.91l-35.95,60.99c-8.76,14.87-3.56,33.08,11.59,40.64l40.07,19.98c14.98,7.47,34.07,1.52,42.67-13.24l35.65-61.25c35.21,12.42,72.47,20.3,111.03,23.02v68.28c0,16.26,13.49,28.64,30.07,27.65l43.82-2.62c16.37-.98,29.6-14.81,29.6-30.89v-67.54c37.43-6.4,73.03-17.6,106.17-32.83l33.08,55.65c7.9,13.3,25.36,17.04,38.97,8.4l35.99-22.84c13.46-8.54,18.06-26.15,10.3-39.37l-32.11-54.71c28.74-22.75,54.33-49.06,76.1-78.17l53.56,29.64c13.15,7.28,29.9,2.06,37.45-11.62l20.01-36.26c7.5-13.59,3.05-30.55-9.96-37.91l-51.79-29.3c14.03-32.91,23.84-67.93,28.8-104.42l57.82-.72c14.91-.19,26.95-12.78,26.95-28.13v-40.82c0-15.35-12.05-27.77-26.95-27.74Zm-455.85,336c-166.61,6.18-306.04-123.13-306.04-289.02s139.43-296.98,306.04-292.93c160.95,3.92,287.47,133.31,287.47,289.14s-126.52,286.84-287.47,292.81Z"/><polygon class="aq" points="2427.61 2045.08 2387.51 2043.69 2373.68 2079.65 2427.61 2045.08"/><polygon class="aq" points="2825.27 2061.67 2871.52 2062.13 2871.52 2096.24 2825.27 2061.67"/><polygon class="aq" points="3001.51 2226.22 3047.6 2228.08 3036.08 2253.89 3001.51 2226.22"/><polygon class="aq" points="3073.88 2448.88 3120.44 2452.57 3105.22 2475.15 3073.88 2448.88"/><polygon class="aq" points="2996.44 2768.32 3041.61 2774.78 3047.14 2737.9 2996.44 2768.32"/><polygon class="aq" points="2823.58 2934.73 2864.14 2942.1 2867.37 2912.14 2823.58 2934.73"/><polygon class="aq" points="2620.75 3006.64 2584.34 3000.19 2615.68 2953.63 2620.75 3006.64"/><polygon class="aq" points="2423.46 2967.46 2381.06 2958.7 2413.78 2919.06 2423.46 2967.46"/><polygon class="aq" points="2185.15 2207.8 2229.4 2209.18 2211.88 2241.45 2185.15 2207.8"/><polygon class="aq" points="2097.1 2554.9 2137.67 2560.89 2134.44 2527.7 2097.1 2554.9"/><polygon class="aq" points="2184.23 2797.82 2223.87 2804.28 2227.09 2778 2184.23 2797.82"/></g><path class="bl" d="M3115.39,2452.05l-56.77,.1c-3.91-37.5-12.93-73.49-26.34-107.31l48-27.83c13.12-7.61,17.6-24.76,10.04-38.36l-20.17-36.27c-7.61-13.68-24.5-18.7-37.76-11.18l-47.41,26.9c-22.06-30.91-48.4-58.79-78.22-82.76l27.27-46.83c7.82-13.44,3.18-31.12-10.39-39.54l-36.29-22.51c-13.72-8.51-31.32-4.49-39.29,9.03l-27.33,46.35c-35.11-16.35-73.06-28.15-113.08-34.48v-54.97c0-16.22-13.34-29.97-29.85-30.72l-44.18-2.02c-16.72-.76-30.32,11.91-30.32,28.3v55.57c-41.26,3.44-81.02,12.71-118.41,27.06l-29.49-50.24c-8.67-14.76-27.92-20.49-43.02-12.74l-40.41,20.72c-15.28,7.84-20.53,26.27-11.69,41.14l30.56,51.4c-33.45,23.64-63.35,51.95-88.67,84.04l-55.27-31.27c-15.67-8.87-35.78-4.27-44.89,10.31l-24.3,38.91c-9.17,14.68-3.73,33.73,12.13,42.5l57.2,31.65c-15.86,36.52-26.57,75.66-31.23,116.59l-68.61,.12c-18.46,.03-33.48,14.02-33.48,31.25v45.82c0,17.23,15.02,31.01,33.48,30.78l70.43-.88c5.95,39.97,17.69,78.03,34.38,113.35l-62.16,35.28c-15.85,9-21.29,28.12-12.13,42.68l24.3,38.57c9.11,14.45,29.22,18.77,44.89,9.68l62.87-36.46c25.12,29.71,54.34,55.81,86.76,77.54l-36.25,61.48c-8.84,14.99-3.59,33.35,11.69,40.97l40.4,20.15c15.11,7.53,34.36,1.54,43.02-13.35l35.95-61.75c35.5,12.52,73.07,20.46,111.96,23.21v68.83c0,16.39,13.6,28.87,30.32,27.87l44.18-2.64c16.51-.99,29.85-14.93,29.85-31.14v-68.09c37.74-6.45,73.64-17.74,107.05-33.1l33.35,56.1c7.97,13.4,25.57,17.18,39.29,8.47l36.29-23.03c13.57-8.61,18.21-26.36,10.39-39.69l-32.38-55.15c28.98-22.93,54.78-49.46,76.74-78.81l54,29.88c13.26,7.33,30.15,2.07,37.76-11.72l20.17-36.56c7.56-13.7,3.08-30.8-10.04-38.22l-52.22-29.54c14.14-33.17,24.04-68.49,29.03-105.27l58.3-.73c15.03-.19,27.18-12.88,27.18-28.35v-41.15c0-15.47-12.15-28-27.18-27.97Zm-459.63,338.74c-167.99,6.23-308.58-124.13-308.58-291.37s140.58-299.4,308.58-295.32c162.28,3.95,289.85,134.4,289.85,291.49s-127.57,289.18-289.85,295.2Z"/></g><g><path class="bp" d="M2407.43,2303.78c-36.51,1.06-72.12-8.14-102.96-26.63-93.98-56.33-232.84-149.37-357.76-271.15-158.52-154.53-249.6-311.62-269.53-465.87l-.31-2.42-3.87-658.18c0-130.08,84.84-235.66,244.13-305.05,131.6-57.32,306.03-85.72,490.31-80.39,182.13,5.27,350.66,42.85,475.4,105.47,148.28,74.43,226.08,179.04,226.08,303.06l-3.53,628.9-.29,2.31c-18.21,147.71-102.01,300.39-250.13,454.79-118.8,123.83-253.05,221.97-345.25,282.78-30.5,20.12-65.87,31.33-102.29,32.38Z"/><path class="bm" d="M2443.58,2303.78c-36.03,1.06-71.17-8.14-101.6-26.63-92.73-56.33-229.76-149.37-353.04-271.15-156.43-154.53-246.3-311.62-265.97-465.87l-.31-2.42-3.82-658.18c0-130.08,83.72-235.66,240.9-305.05,129.87-57.32,301.99-85.72,483.83-80.39,179.72,5.27,346.03,42.85,469.12,105.47,146.32,74.43,223.1,179.04,223.1,303.06l-3.48,628.9-.28,2.31c-17.97,147.71-100.66,300.39-246.82,454.79-117.23,123.83-249.71,221.97-340.69,282.78-30.1,20.12-65,31.33-100.94,32.38Z"/><path class="c`" d="M1762.3,880.01l3.84,654.86c43.11,334.12,435.78,604.64,606.8,707.42,48.99,29.44,111.63,27.7,160.28-4.31,167.45-110.19,538.62-387.58,578.27-708.83l3.52-627.16c0-465.3-1352.71-507.84-1352.71-21.97Z"/><path class="cd" d="M2453.28,2141.34c-3.14,.07-7.88-.45-12.67-3.35-70.42-42.64-206.92-131.96-325.67-248.61-128.27-126-202.25-248.5-219.21-363.55l-3.76-644.01c.16-61.79,49.07-114.68,144.95-156.99,107.04-47.24,259.05-72.03,416.37-68.29,155.75,3.7,303.32,35.05,405.56,85.78,90.43,44.87,136.15,97.77,136.3,157.43l-3.51,621.71c-15.83,111.34-85.27,231.36-207.18,357.53-114.63,118.63-248.53,212.67-318.51,258.4-4.79,3.13-9.53,3.87-12.66,3.95Z"/><path class="bw" d="M2437.21,2097.32c-71.11-43.8-197.57-128.37-307.9-236.95-120.54-118.63-190.3-232.48-206.7-337.81l-3.73-640.27c.11-44.18,40.72-84.71,120.4-119.98,101.4-44.9,246.67-68.56,397.93-65.16,149.81,3.36,291.01,32.95,388.05,80.96,75.4,37.3,113.54,78,113.64,121.09l-3.5,619.43c-15.39,102.2-81.18,213.97-196.25,332.84-106.83,110.36-231.16,199.1-301.95,245.87Z"/><g><path class="au" d="M2691.66,1259.03l-478.87,4.26c-36.81,.33-66.8,29.02-66.8,64.08v306.82c0,34.85,29.88,61.86,66.56,60.36l477.18-19.54c33.94-1.39,61.47-29.49,61.64-62.78l1.52-293.1c.17-33.48-27.16-60.39-61.22-60.09Z"/><path class="bb" d="M2517.75,1434.97c.11-33.89-28.98-60.67-64.49-58.43-31.44,1.99-57.52,27.38-59.29,57.85-1.37,23.64,11.42,44.11,30.88,54.51,8.27,4.42,12.36,13.68,10.73,22.82l-13.84,77.51c-1.76,9.87,6.06,18.55,16.37,18.18l35.03-1.23c10.24-.36,18.03-9.54,16.34-19.23l-13.39-76.77c-1.6-9.17,3.12-18.25,11.43-23.25,18.05-10.86,30.16-30.18,30.23-51.96Z"/><path class="bx" d="M2684.94,1228.6c-14.38,.09-26.01-11.33-25.95-25.52l.29-66.83c.29-67.13-55.2-122.35-124.36-123.03l-156.31-1.55c-71.58-.71-130.43,55.1-130.49,124.35l-.06,68.95c-.01,14.64-12.48,26.59-27.87,26.69-15.43,.1-27.96-11.73-27.95-26.43l.03-69.23c.04-98.97,84.32-178.44,186.45-177.02l156.37,2.17c98.24,1.37,176.71,79.99,176.25,175.14l-.32,66.57c-.07,14.13-11.73,25.67-26.08,25.76Z"/></g></g><g><path class="al" d="M3213.74,3024.9l-2567.66-21.89v64.76c0,17.58,11.2,32.52,26.37,35.19l726.06,127.52c8.62,1.51,17.35,1.92,26.05,1.2l1761.28-145.39c15.72-1.3,27.9-16.29,27.9-34.35v-27.03Z"/><g><path class="al" d="M2281.95,2921.12l-1609.31,118.47c-28.8,2.12-52.21-20.41-52.21-50.32V1790.86c0-29.91,23.41-54.16,52.21-54.16h1609.31c23.72,0,42.91,21.92,42.91,48.96v1083.34c0,27.04-19.18,50.37-42.91,52.12Z"/><path class="ca" d="M2307.61,2921.12l-1609.31,118.47c-28.8,2.12-52.21-20.41-52.21-50.32V1790.86c0-29.91,23.41-54.16,52.21-54.16h1609.31c23.73,0,42.91,21.92,42.91,48.96v1083.34c0,27.04-19.18,50.37-42.91,52.12Z"/><path class="an" d="M2257.47,2844.74l-1498.91,102.91c-23.43,1.61-42.48-16.88-42.48-41.3V1857.14c0-24.42,19.04-44.3,42.48-44.4l1498.91-6.46c19.57-.08,35.4,17.88,35.4,40.12v955.64c0,22.24-15.83,41.36-35.4,42.7Z"/><path class="an" d="M1559.79,1769.48c0,11.14-8.28,20.19-18.51,20.22-10.24,.03-18.55-8.99-18.55-20.15s8.31-20.21,18.55-20.22c10.23,0,18.51,9.01,18.51,20.15Z"/></g><path class="be" d="M2371.75,2914.55l-1725.67,124.7,752.42,132.15c8.62,1.51,17.35,1.91,26.05,1.2l1789.18-147.7-814.54-109.5c-9.11-1.22-18.3-1.51-27.45-.85Z"/><polygon class="al" points="897.89 3040.32 2334.55 2934.96 2779.19 2994.25 1354.9 3106.88 897.89 3040.32"/><g><path class="bl" d="M1363.37,2904.37l-611.47,41.15c-17.94,1.21-33.16-13.02-33.16-31V1843.59c0-17.11,13.83-31,30.94-31.07l613.68-2.48v1094.33Z"/><polygon class="bl" points="2153.02 2320.38 1508.76 2343.01 1508.76 2277.87 2153.02 2257.68 2153.02 2320.38"/><polygon class="bl" points="2153.02 2423.09 1508.76 2449.73 1508.76 2384.59 2153.02 2360.39 2153.02 2423.09"/><polygon class="an" points="1300.29 2332.08 930.36 2344.69 930.36 2296 1300.29 2284.41 1300.29 2332.08"/><polygon class="an" points="1300.29 2410.18 930.36 2424.45 930.36 2375.76 1300.29 2362.5 1300.29 2410.18"/><polygon class="an" points="1300.29 2488.27 930.36 2504.21 930.36 2455.52 1300.29 2440.6 1300.29 2488.27"/><polygon class="an" points="1300.29 2566.37 930.36 2583.97 930.36 2535.29 1300.29 2518.7 1300.29 2566.37"/><polygon class="bl" points="1793.46 2542.91 1508.76 2556.45 1508.76 2491.31 1793.46 2478.85 1793.46 2542.91"/><g><path class="bl" d="M1747.62,2032.45v97.85c0,28.29,23.8,50.61,53.07,49.84l72.58-1.89c28.92-.75,52.29-24.06,52.29-52.05v-96.82l-177.94,3.07Zm66.84,101.16l13.49-40.87c-5.78-2.98-9.69-8.86-9.69-15.7,0-10.05,8.42-18.35,18.8-18.54,10.37-.2,18.76,7.77,18.76,17.79,0,6.83-3.9,12.85-9.66,16.07l13.44,40.2-45.14,1.05Z"/><path class="bl" d="M1904.93,2020.9c-7.7,.13-13.95-5.83-13.95-13.31,0-28.76-24.15-51.85-53.92-51.47-29.88,.38-54.27,24.25-54.27,53.19,0,7.53-6.33,13.74-14.15,13.87-7.83,.13-14.17-5.88-14.17-13.42,0-44.05,37.15-80.31,82.6-80.82,45.2-.51,81.79,34.58,81.79,78.2,0,7.47-6.23,13.63-13.92,13.76Z"/></g></g><path class="ao" d="M698.29,3039.59l1601.17-117.87,8.15-.6c10.89-.8,20.78-6.18,28.34-14.34-115.22-6.31-186.79-47.19-232.95-89.44-92.71-84.85-76.63-168.52-176.61-224.31-124.7-69.58-222.75,18.59-317.37-68.41-57.37-52.74-29.2-92.07-99.79-170.88-78.18-87.29-129.09-57.95-207.66-136.51-99.35-99.34-49.66-176.63-135.24-247.95-103.82-86.52-215.78-6.44-314.61-89.42-42.63-35.79-66.01-87.82-78.23-143.16h-75.19c-28.8,0-52.21,24.25-52.21,54.16v1198.41c0,29.91,23.41,52.43,52.21,50.32Z"/></g><g><path class="cb" d="M1774.3,2579.49c28.91-18.93,13.08-113.1-32.74-176.7-65.06-90.31-195.66-126.06-219.67-95.96-24.57,30.81,60.29,133.36,74.08,150.02,50.01,60.43,144.15,145.03,178.34,122.63Z"/><path class="ap" d="M2091.61,3163.64c-5.17,6.63-5.61,18.17-.29,23.45,5.22,5.19,12.15,.5,32.71-.41,22.03-.97,28.15,3.8,42.78-1.43,5.91-2.11,16.27-6.95,15.75-11.24-.37-3.02-5.91-4.18-24.48-8.91-26.36-6.72-26.28-7.19-31.81-7.69-13.89-1.26-27.83-2.52-34.66,6.23Z"/><path class="bv" d="M2103.04,3126.75l13.73,35.85c-.69,2.03-11.41,9.42-21.33,5.97l-19-34.38,26.6-7.45Z"/><path class="am" d="M1954.6,3206.16c-5.17,6.63-5.61,18.17-.3,23.45,5.22,5.19,12.15,.5,32.71-.41,22.03-.97,28.15,3.8,42.78-1.43,5.91-2.11,16.27-6.95,15.75-11.24-.37-3.02-5.91-4.18-24.48-8.91-26.36-6.72-26.28-7.19-31.81-7.7-13.89-1.26-27.83-2.52-34.66,6.23Z"/><path class="aw" d="M1966.03,3169.28l13.73,35.85c-.69,2.03-11.41,9.42-21.33,5.97l-19-34.38,26.6-7.45Z"/><path class="b`" d="M1280.57,2330.84c34.09-14.5,86.52-32.31,152.35-37.16,74.12-5.47,133.64-9.86,177.33,22.13,106.03,77.65,9.44,289.54,77.78,436.11,7.49,16.05,29.58,67.07,17.9,124.72-2.15,10.63-7.5,20.09-16.67,36.12-53.79,94.11-222.97,114-306.46,42.03-44.13-38.04-80.51-27.78-84.97-74.58-17.57-184.71-2.51-371.37-17.28-549.37Z"/><path class="bk" d="M1371.87,2561.51c-16.99-37.64-5.62-83-38.55-100.01-12.07-6.23-26.64-8.17-42.24-6.67,11.92,135.84,24.64,271.48,38.44,413.15,4.56,46.79,10.59,48.68,59.06,86.39,56.16,43.7,148.03,52.53,224.68,31.21-106.54-55.14-184.04-114.68-177.74-171.09,7.34-65.7,124.59-93.61,116.41-139.33-8.67-48.46-142.92-31.36-180.06-113.65Z"/><path class="bs" d="M1313.29,2332.63c-35.97-20.6-114.2,43.83-156.16,98.56-19.5,25.43-87.41,113.99-60.76,224.23,4.34,17.97,24.43,101.98,100.3,138.25,67.93,32.48,155.23,16.38,221.83-41.65,9-9.26,18.01-18.52,27.01-27.79,8.72-10.95,17.45-21.89,26.17-32.84-15.82-11.29-42.46-27.3-78.87-36.15-55.48-13.48-89.18,15.1-103.41-1.02-17.51-19.85,28.17-62.61,34.33-152.67,1.66-24.3,29.73-145.91-10.44-168.91Z"/><path class="at" d="M1412.5,2910.39c-17.19,75.35,22.51,42.3,104.77-6.07,86.64-50.94,278.47-129.08,369.32-52.02,67.66,57.39,30.29,158.81,135.86,259.6,18.6,17.75,35.87,29.84,46.62,36.8,17.05-8.58,34.1-17.15,51.14-25.73,3.92-40.8,14.17-197.74-93.87-329.63-26.12-31.89-75.86-93.14-154.82-114.77-213.47-58.48-443.16,162.32-459.02,231.81Z"/><path class="ba" d="M1324.41,2847.79c-11.53,43.4,5.26,91.06,31.44,119.51,58.12,63.15,176.95,47.27,249.66,16.99,88.48-36.84,104.68-93.23,141.34-82.37,56.98,16.87,27.63,156.27,135.86,259.6,18.59,17.75,35.87,29.84,46.62,36.8,17.05-8.58,34.1-17.15,51.14-25.73,6.35-94.81-8.92-169.27-22.58-216.54-15.67-54.21-29.71-102.77-72.02-147.48-52.57-55.55-117.1-71.65-154.09-80.37-156.48-36.92-377.42,6.84-407.38,119.61Z"/><g><polygon class="bu" points="1811.77 2696.73 1398.51 2721.08 1512.19 2765.95 1814.81 2723.57 1811.77 2696.73"/><path class="bg" d="M1384.75,2733.13h0c.57,7.73,5.92,14.27,13.37,16.38l135.73,41.96-2.05-35.9-133.29-34.49c-7.45-1.56-14.32,4.46-13.76,12.05Z"/></g><path class="by" d="M1442.46,2712.2c-2.57-.38,10.11-31.12,22.04-28.56,11.93,2.56,71.49,31.44,77.69,44.68l6.2,13.25s-24.77,3.79-40.61-.26c-15.84-4.05-44.39-26.04-65.33-29.11Z"/><g><g><path class="bf" d="M1524.16,2503.22l-9.51,267.09c-.33,9.22,13.48,21.89,22.63,20.78l424.93-57.76c6.99-.85,12.45-6.45,13.12-13.45l34.66-259.84c.91-9.43-16.54-17.81-25.96-16.85l-446.4,45.64c-7.45,.76-13.2,6.91-13.47,14.4Z"/><path class="bd" d="M1534.48,2510.22l-9.52,267.09c-.33,9.22,7.66,16.54,16.81,15.43l430.75-52.42c6.99-.85,12.45-6.45,13.12-13.45l25.16-260.32c.91-9.43-7.04-17.34-16.46-16.37l-446.4,45.64c-7.45,.76-13.2,6.91-13.47,14.39Z"/></g><path class="bj" d="M1803.02,2690.44c-38.93-13.21-27.86-44.7-75.24-79.42-62.51-45.8-120.83-19.62-144.68-56.94-7.43-11.62-11.94-30.23-2.81-61.56l-32.33,3.3c-7.45,.76-13.2,6.91-13.47,14.39l-9.52,267.09c-.32,9.22,7.66,16.54,16.81,15.43l430.75-52.42c6.99-.85,12.45-6.44,13.12-13.45l3.47-35.92c-13.65-6.33-29.82-11.81-48.38-14.17-64.37-8.18-92.91,28.85-137.73,13.65Z"/></g><g><path class="cc" d="M1432.35,2191.9c2.26,27.46,.81,49.48-.99,64.62-2.06,17.34-4.12,21.94-6.91,25.75-4.2,5.74-10.83,10.78-49.49,23.45-21.03,6.9-23.8,6.95-24.12,9.12-1.54,10.54,59.5,41.58,119.23,28.59,36.56-7.95,68.61-31.51,65.73-42.42-2.9-10.99-39.36-2.28-51.85-21.62-8.69-13.45-1.58-33.99,7.34-51.22-11.18-17.67-47.76-18.6-58.94-36.27Z"/><g><path class="ax" d="M1512.46,2221.11c10.69-9.85,14.87-29.69,7.27-44.11-6.54-12.41-19.68-16.41-27.54-18.81-22.79-6.95-53.94-2.6-68.08,16.95-8.38,11.59-.11,40.37,1.07,45.48,1.34,5.79,5.21,8.4,8.37,13.17,4.37,6.61,11.18,17.1,22.24,34.58,1.88-4.22,4.51-9.38,8.18-14.83,1.41-2.1,7.05-10.26,14.45-16.54,14.84-12.58,23.9-6.55,34.04-15.89Z"/><path class="as" d="M1438.41,2252.19s10.71,27.91,41.54,31.5c27.61,3.22,42.8-57.23,27.75-73.4-5.02-5.39-16.34-9.32-26.29-8.4-5.88,.54-8.2,2.52-17.82,3.22-8.88,.65-11.1-.73-14.05,.95-3.69,2.11-7.24,8.28-5.17,27.14-4.24-6.22-10.12-9.39-14.93-8.11-.77,.21-2.87,1.14-4.28,2.87-5.09,6.29-.34,16.38,13.25,24.22Z"/><path class="bo" d="M1448.99,2202.18c1.14,1.22-3.78,5.39-5.35,12.29-3.05,13.38,7.64,32.06,21.31,35.98,8.08,2.32,11.26-2.23,25.13-1.18,8.59,.65,15.41,3.01,19.64,4.78,1.57,15.57-5.15,29.58-16.29,34.62-11.99,5.42-24.77-1.54-30.11-4.45-3.57-1.95-15.03-8.15-19.35-20.49-4.5-12.86,3.29-18.69-2.88-27.96-3.11-4.67-7.84-7.32-11.34-15.91-.95-2.33-1.5-4.34-1.82-5.69,8.4-6.17,19.43-13.76,21.07-11.99Z"/><path class="bi" d="M1498.81,2257.72s-6.46,2-16.53-.44c-.49-.12-1.06-.07-1.17,.17-.41,.92,5.33,6.45,11.66,5.86,4.49-.42,8.56-3.86,8.17-4.99-.17-.48-1.14-.6-2.12-.6Z"/></g></g></g></g></g></g></svg>