<svg xmlns="http://www.w3.org/2000/svg" xmlns:xlink="http://www.w3.org/1999/xlink" viewBox="0 0 2788.59 2831.33"><defs><style>.cls-1{fill:url(#linear-gradient);}.cls-2{fill:url(#linear-gradient-2);}.cls-14,.cls-3,.cls-7{fill:#fff;}.cls-4{isolation:isolate;}.cls-5{fill:#f4f7fa;}.cls-6{clip-path:url(#clip-path);}.cls-7{opacity:0.7;}.cls-14,.cls-7{mix-blend-mode:soft-light;}.cls-8{clip-path:url(#clip-path-2);}.cls-9{fill:url(#linear-gradient-5);}.cls-10{fill:url(#linear-gradient-6);}.cls-11{fill:url(#linear-gradient-7);}.cls-12{fill:url(#linear-gradient-8);}.cls-13{fill:none;}.cls-14{opacity:0.48;}.cls-15{fill:#d8dee8;}.cls-16{clip-path:url(#clip-path-3);}.cls-17{opacity:0.4;}.cls-18{fill:#97a6b7;}.cls-19{fill:url(#linear-gradient-11);}.cls-20{fill:url(#linear-gradient-12);}.cls-21{fill:url(#linear-gradient-13);}.cls-22{fill:url(#linear-gradient-14);}.cls-23{fill:url(#linear-gradient-15);}.cls-24,.cls-36,.cls-43,.cls-46{opacity:0.3;mix-blend-mode:multiply;}.cls-24{fill:url(#linear-gradient-16);}.cls-25{fill:url(#linear-gradient-17);}.cls-26{fill:url(#linear-gradient-18);}.cls-27{fill:url(#linear-gradient-19);}.cls-28{fill:url(#linear-gradient-20);}.cls-29{fill:url(#linear-gradient-21);}.cls-30{fill:url(#linear-gradient-22);}.cls-31{fill:url(#linear-gradient-23);}.cls-32{fill:url(#linear-gradient-24);}.cls-33{fill:url(#linear-gradient-25);}.cls-34{fill:url(#linear-gradient-26);}.cls-35{fill:url(#linear-gradient-27);}.cls-36{fill:url(#linear-gradient-28);}.cls-37{fill:url(#linear-gradient-29);}.cls-38{fill:url(#linear-gradient-30);}.cls-39{fill:url(#linear-gradient-31);}.cls-40{fill:url(#linear-gradient-32);}.cls-41{fill:url(#linear-gradient-33);}.cls-42{fill:url(#linear-gradient-34);}.cls-43{fill:url(#linear-gradient-35);}.cls-44{fill:url(#linear-gradient-36);}.cls-45{fill:url(#linear-gradient-37);}.cls-46{fill:url(#linear-gradient-38);}.cls-47{fill:url(#linear-gradient-39);}.cls-48{fill:url(#linear-gradient-40);}.cls-49{fill:url(#linear-gradient-41);}.cls-50{fill:url(#linear-gradient-42);}.cls-51{fill:url(#linear-gradient-43);}.cls-52{fill:url(#linear-gradient-44);}</style><linearGradient id="linear-gradient" x1="1768.45" y1="756.77" x2="2110.62" y2="1960.24" gradientUnits="userSpaceOnUse"><stop offset="0" stop-color="#e38ddd"/><stop offset="1" stop-color="#9571f6"/></linearGradient><linearGradient id="linear-gradient-2" x1="2378.84" y1="1575.81" x2="2768.2" y2="2448.92" xlink:href="#linear-gradient"/><clipPath id="clip-path" transform="translate(-460.71 -400.69)"><path class="cls-1" d="M1393.72,2701.25c-75.34-128.47-2.24-342.42,87.25-467.67,104.48-146.24,189.36-112.89,261.76-232.94,134.81-223.52-104.15-430.8,13.92-667,96.52-193.09,292.85-127.84,390-346.53,70.11-157.8,1.58-267.63,107.87-384.88,9.09-10,108.63-116.71,229.53-97.38,122,19.5,194.43,156,218.12,250.19,43.78,174.17-72.37,230-96.23,455.49-32.49,307,163.59,385.33,92.94,606.46-58.33,182.6-205.49,171.32-266.15,375.07-56.33,189.2,50.09,267.68,0,391.33C2317.5,2867.87,1547.37,2963.3,1393.72,2701.25Z"/></clipPath><clipPath id="clip-path-2" transform="translate(-460.71 -400.69)"><path class="cls-2" d="M2001.1,2818.57c-64.35-109.74-1.91-292.49,74.53-399.48,89.24-124.91,161.74-96.43,223.59-199,115.15-190.94-89-368,11.89-569.74,82.45-164.94,250.15-109.2,333.14-296,59.89-134.8,1.35-228.61,92.15-328.76,7.76-8.56,92.79-99.69,196-83.19,104.23,16.66,166.09,133.23,186.32,213.72,37.4,148.77-61.82,196.44-82.2,389.07-27.75,262.26,139.74,329.14,79.39,518-49.83,156-175.53,146.34-227.34,320.38-48.12,161.62,42.78,228.65,0,334.27C2790.18,2960.89,2132.35,3042.41,2001.1,2818.57Z"/></clipPath><linearGradient id="linear-gradient-5" x1="1535.86" y1="1999.03" x2="1660.91" y2="1534.58" gradientUnits="userSpaceOnUse"><stop offset="0" stop-color="#311944"/><stop offset="1" stop-color="#893976"/></linearGradient><linearGradient id="linear-gradient-6" x1="1809.83" y1="3204.86" x2="1727.66" y2="2315.25" xlink:href="#linear-gradient-5"/><linearGradient id="linear-gradient-7" x1="2227.03" y1="639.59" x2="317.51" y2="3796.45" gradientUnits="userSpaceOnUse"><stop offset="0" stop-color="#ff9085"/><stop offset="1" stop-color="#fb6fbb"/></linearGradient><linearGradient id="linear-gradient-8" x1="2599.26" y1="864.74" x2="689.73" y2="4021.61" xlink:href="#linear-gradient-7"/><clipPath id="clip-path-3" transform="translate(-460.71 -400.69)"><path class="cls-3" d="M2214.65,2962.18l3.95-10.6c60.74-163,69-310.18,24.62-437.48-55.08-157.9-170.09-232.18-291.86-310.81-20.2-13.05-41.09-26.54-61.37-40.26l-3.88-2.62,1.12-4.56a182.57,182.57,0,0,0,5.22-43.27c0-72.15-43.24-136.88-107.86-161.91a170.59,170.59,0,0,0-65.49,45.38l-5.69,6.33-4.86-7a470.49,470.49,0,0,1-58.22-114.6c-30.13-86.07-35-171.81-15.22-269.84l1.09-5.41,905.88,1.56c69,.11,125.13,59.35,125.13,132v694c0,265.44-189.75,492.2-441.37,527.45Zm-313.27-807.72c19,12.75,38.43,25.32,57.29,37.51,118.32,76.41,240.67,155.42,297.28,317.7,44.48,127.52,37.48,274.13-20.8,435.89,239.43-39.38,418.58-257.59,418.58-512.4v-694c0-65.27-50.09-118.46-111.68-118.57l-894.8-1.54c-18,93.3-13,175.2,15.8,257.31a457.76,457.76,0,0,0,51.88,104.47,183.28,183.28,0,0,1,67.36-43.66l2.32-.86,2.33.86c71.17,26.31,119,96.81,119,175.43A196.12,196.12,0,0,1,1901.38,2154.46Zm571.62-591h-.1l-111.84-.35a32.58,32.58,0,0,1-4.56.35h-.08l-120.16-.38c-19-.06-34.5-16.23-34.5-36v-297.4c0-100.67-37.48-196-105.54-268.36S1937.42,848,1840.76,846l-156-3.16a353.42,353.42,0,0,0-78.43,16.54l-4,1.31-2.94-2.94c-58.79-58.87-136.26-111.49-230.26-156.39l-13-6.2,13.08-6a539.18,539.18,0,0,1,240.28-49.28l60.28,1.49a552.41,552.41,0,0,1,56.19-1.49l231.57,5.72C2105.09,649.25,2243.4,712.24,2347,823c103.34,110.44,160.24,255.56,160.24,408.63v296.13a36.21,36.21,0,0,1-10.59,25.87A33.31,33.31,0,0,1,2473,1563.5Zm-112.94-13.83,112.88.35h.06a20,20,0,0,0,14.14-6,22.85,22.85,0,0,0,6.63-16.33V1231.61c0-149.63-55.62-291.49-156.61-399.43s-236-169.55-380-173.1l-231.56-5.72a537.66,537.66,0,0,0-55.15,1.48l-.35,0-61-1.5A525.63,525.63,0,0,0,1388,695.57c88,43.41,161.23,93.73,218,149.74a367.6,367.6,0,0,1,77.85-15.91l.38,0L1841,832.53c100.31,2,194.43,44.49,265,119.56,70.42,74.9,109.2,173.48,109.2,277.59v297.4c0,12.41,9.45,22.53,21.07,22.57l120.16.37a21.75,21.75,0,0,0,3.08-.27Z"/></clipPath><linearGradient id="linear-gradient-11" x1="18.96" y1="1808.6" x2="38.07" y2="2051.83" gradientTransform="matrix(-1, 0, 0, 1, 1460.94, 0)" gradientUnits="userSpaceOnUse"><stop offset="0" stop-color="#311944"/><stop offset="1" stop-color="#a03976"/></linearGradient><linearGradient id="linear-gradient-12" x1="68.29" y1="1944.01" x2="64.82" y2="1692.11" gradientTransform="matrix(-1, 0, 0, 1, 1460.94, 0)" gradientUnits="userSpaceOnUse"><stop offset="0" stop-color="#ffc444"/><stop offset="1" stop-color="#f36f56"/></linearGradient><linearGradient id="linear-gradient-13" x1="380.1" y1="1780.23" x2="399.21" y2="2023.45" xlink:href="#linear-gradient-11"/><linearGradient id="linear-gradient-14" x1="399.26" y1="1939.45" x2="395.79" y2="1687.53" xlink:href="#linear-gradient-12"/><linearGradient id="linear-gradient-15" x1="8.17" y1="1535.93" x2="194.43" y2="1535.93" gradientTransform="matrix(-1, 0, 0, 1, 1460.94, 0)" gradientUnits="userSpaceOnUse"><stop offset="0" stop-color="#444b8c"/><stop offset="1" stop-color="#3e4177"/></linearGradient><linearGradient id="linear-gradient-16" x1="8.17" y1="1535.94" x2="194.43" y2="1535.94" xlink:href="#linear-gradient-15"/><linearGradient id="linear-gradient-17" x1="59.88" y1="1517.57" x2="434.83" y2="1517.57" xlink:href="#linear-gradient-15"/><linearGradient id="linear-gradient-18" x1="1374.86" y1="1502.38" x2="1512.98" y2="720.6" gradientUnits="userSpaceOnUse"><stop offset="0" stop-color="#aa80f9"/><stop offset="1" stop-color="#6165d7"/></linearGradient><linearGradient id="linear-gradient-19" x1="-3.93" y1="851.49" x2="-3.93" y2="700.99" xlink:href="#linear-gradient-12"/><linearGradient id="linear-gradient-20" x1="2353.51" y1="535.97" x2="2421.35" y2="535.97" gradientTransform="matrix(-0.87, 0.49, 0.49, 0.87, 3556.12, -337.91)" xlink:href="#linear-gradient-12"/><linearGradient id="linear-gradient-21" x1="-1400.78" y1="-102.58" x2="-1464.68" y2="-264.89" gradientTransform="matrix(-0.88, -0.48, -0.48, 0.88, 160.86, 210.43)" xlink:href="#linear-gradient-15"/><linearGradient id="linear-gradient-22" x1="-110.31" y1="808.12" x2="-39.95" y2="671.3" xlink:href="#linear-gradient-12"/><linearGradient id="linear-gradient-23" x1="1052.41" y1="1445.41" x2="1190.52" y2="663.63" xlink:href="#linear-gradient-18"/><linearGradient id="linear-gradient-24" x1="1058.34" y1="1224.18" x2="1073.36" y2="1139.17" gradientTransform="matrix(1, 0, 0, 1, 0, 0)" xlink:href="#linear-gradient-12"/><linearGradient id="linear-gradient-25" x1="1083.94" y1="500.23" x2="1981.29" y2="2604.93" gradientTransform="matrix(1, -0.03, 0.03, 1, 327.9, 226.07)" gradientUnits="userSpaceOnUse"><stop offset="0" stop-color="#ab316d"/><stop offset="1" stop-color="#792d3d"/></linearGradient><linearGradient id="linear-gradient-26" x1="1664.96" y1="754.85" x2="1261.53" y2="1662.57" gradientTransform="matrix(1, -0.03, 0.03, 1, 327.9, 226.07)" xlink:href="#linear-gradient-12"/><linearGradient id="linear-gradient-27" x1="1235.31" y1="563.92" x2="831.89" y2="1471.6" gradientTransform="matrix(1, -0.03, 0.03, 1, 327.9, 226.07)" xlink:href="#linear-gradient-12"/><linearGradient id="linear-gradient-28" x1="-3396.61" y1="-5387.4" x2="-2266.98" y2="-2737.9" gradientTransform="matrix(-0.05, -1, 1, -0.05, 6280.24, -2265.23)" xlink:href="#linear-gradient-12"/><linearGradient id="linear-gradient-29" x1="-3339.51" y1="-5364.47" x2="-2738.84" y2="-3955.62" gradientTransform="matrix(-0.05, -1, 1, -0.05, 6280.24, -2265.23)" xlink:href="#linear-gradient-12"/><linearGradient id="linear-gradient-30" x1="1110.61" y1="3217.34" x2="1045.82" y2="3003.72" gradientTransform="matrix(-1, 0.01, 0.01, 1, 3588.77, -14.86)" gradientUnits="userSpaceOnUse"><stop offset="0" stop-color="#444b8c"/><stop offset="1" stop-color="#26264f"/></linearGradient><linearGradient id="linear-gradient-31" x1="1054.76" y1="3175.75" x2="1054.76" y2="2832.54" gradientTransform="matrix(-1, 0.01, 0.01, 1, 3588.77, -14.86)" xlink:href="#linear-gradient-12"/><linearGradient id="linear-gradient-32" x1="1181.13" y1="3175.75" x2="1181.13" y2="2832.54" gradientTransform="matrix(-1, 0.01, 0.01, 1, 3128.07, -415.55)" xlink:href="#linear-gradient-12"/><linearGradient id="linear-gradient-33" x1="1204.99" y1="3188.72" x2="1140.2" y2="2975.09" xlink:href="#linear-gradient-30"/><linearGradient id="linear-gradient-34" x1="1025.11" y1="2435.17" x2="993.59" y2="3144.35" gradientTransform="matrix(-1, 0.01, 0.01, 1, 3588.77, -14.86)" xlink:href="#linear-gradient-5"/><linearGradient id="linear-gradient-35" x1="1025.11" y1="2435.17" x2="993.59" y2="3144.35" gradientTransform="matrix(-1, 0.01, 0.01, 1, 3588.77, -14.86)" xlink:href="#linear-gradient-5"/><linearGradient id="linear-gradient-36" x1="1505.58" y1="2736.87" x2="927.75" y2="2710.61" gradientTransform="matrix(-1, 0.01, 0.01, 1, 3588.77, -14.86)" xlink:href="#linear-gradient-5"/><linearGradient id="linear-gradient-37" x1="650.36" y1="2888.26" x2="1060.1" y2="2012.74" gradientTransform="matrix(-1, 0.01, 0.01, 1, 3588.77, -14.86)" xlink:href="#linear-gradient-12"/><linearGradient id="linear-gradient-38" x1="1474.18" y1="1924.72" x2="1794.24" y2="2582.88" gradientTransform="matrix(0.98, -0.19, 0.19, 0.98, 540.28, 295.69)" xlink:href="#linear-gradient-7"/><linearGradient id="linear-gradient-39" x1="1101.9" y1="1752.45" x2="1027.98" y2="1872.02" gradientTransform="matrix(-1, 0.01, 0.01, 1, 3588.77, -14.86)" xlink:href="#linear-gradient-12"/><linearGradient id="linear-gradient-40" x1="1377.18" y1="1937.58" x2="1228.19" y2="2178.59" xlink:href="#linear-gradient-30"/><linearGradient id="linear-gradient-41" x1="1361.97" y1="1922.12" x2="1397.43" y2="1848.58" gradientTransform="matrix(-1, 0.01, 0.01, 1, 3588.77, -14.86)" xlink:href="#linear-gradient-18"/><linearGradient id="linear-gradient-42" x1="1408.7" y1="2032.83" x2="1372.95" y2="2090.66" gradientTransform="matrix(-1, 0.01, 0.01, 1, 3588.77, -14.86)" xlink:href="#linear-gradient-12"/><linearGradient id="linear-gradient-43" x1="834.25" y1="2974.35" x2="1244.01" y2="2098.82" gradientTransform="matrix(-1, 0.01, 0.01, 1, 3588.77, -14.86)" xlink:href="#linear-gradient-12"/><linearGradient id="linear-gradient-44" x1="691.39" y1="2253.28" x2="990.21" y2="1614.76" xlink:href="#linear-gradient-30"/></defs><g class="cls-4"><g id="Illustration"><path class="cls-5" d="M1131.06,621.91c-93.66,134.08,16.16,351.44-122.81,452.28C873,1172.34,706.79,1011.45,579.3,1096c-189.13,125.33-154.59,698.86,121.92,1055.2,83.16,107.17,152.64,148.87,183.41,270.06,66.08,260.25-166.15,415.06-122,543.77,99.51,289.81,1629.88,533,2243.93-338,286.79-406.78,329.7-994.18,73.46-1440.31C2617.05,380.52,1341.21,321.07,1131.06,621.91Z" transform="translate(-460.71 -400.69)"/><path class="cls-1" d="M1393.72,2701.25c-75.34-128.47-2.24-342.42,87.25-467.67,104.48-146.24,189.36-112.89,261.76-232.94,134.81-223.52-104.15-430.8,13.92-667,96.52-193.09,292.85-127.84,390-346.53,70.11-157.8,1.58-267.63,107.87-384.88,9.09-10,108.63-116.71,229.53-97.38,122,19.5,194.43,156,218.12,250.19,43.78,174.17-72.37,230-96.23,455.49-32.49,307,163.59,385.33,92.94,606.46-58.33,182.6-205.49,171.32-266.15,375.07-56.33,189.2,50.09,267.68,0,391.33C2317.5,2867.87,1547.37,2963.3,1393.72,2701.25Z" transform="translate(-460.71 -400.69)"/><g class="cls-6"><path class="cls-7" d="M1495.74,2902.6a1.52,1.52,0,0,1-.16-3c130.87-13.85,253.09-54.47,363.27-120.73,104.38-62.77,212.32-127.68,260.26-247.32,36.28-90.53,16.33-157.16-8.93-241.52-24.53-81.93-55.07-183.91-38.21-339.73,9.62-89,21.6-199.68,98.65-304.39,44.87-61,88.43-87.1,126.87-110.14,40.43-24.25,72.37-43.41,91-94.77,30.41-83.6,10.47-155.4-12.61-238.54-14.23-51.23-28.94-104.22-34.51-167.1-6.95-78.37,5.51-159.94,37-242.43,39.75-104,110.88-212.79,211.42-323.27a1.53,1.53,0,0,1,2.26,2.05C2491.82,581.87,2420.89,690.31,2381.28,794c-31.35,82.06-43.75,163.16-36.84,241.07,5.55,62.61,20.22,115.45,34.41,166.56,23.23,83.64,43.28,155.87,12.55,240.4-19.05,52.37-53,72.74-92.35,96.33-38.18,22.9-81.47,48.85-126,109.34-76.57,104-88.5,214.31-98.08,302.91-16.79,155.2,13.64,256.85,38.1,338.53,25.43,84.93,45.52,152,8.84,243.53-48.33,120.58-156.71,185.76-261.52,248.79-110.56,66.49-233.2,107.25-364.51,121.15Z" transform="translate(-460.71 -400.69)"/><path class="cls-7" d="M2139.06,1700a1.53,1.53,0,0,1-1.4-.91c-105.43-238.68-122-423.44-117.33-536.4,5.06-122.52,35.53-189.49,35.84-190.15a1.52,1.52,0,0,1,2.76,1.28c-.3.66-30.55,67.22-35.56,189.21-4.62,112.6,11.94,296.79,117.08,534.83a1.52,1.52,0,0,1-.78,2A1.49,1.49,0,0,1,2139.06,1700Z" transform="translate(-460.71 -400.69)"/><path class="cls-7" d="M2069.48,2078.92a1.53,1.53,0,0,1-.39-3c134-35.56,249.38-92.43,342.95-169A734.06,734.06,0,0,0,2593.79,1687c77.93-144.11,84.17-270.84,84.22-272.1a1.53,1.53,0,1,1,3,.13c-.06,1.27-6.31,128.58-84.52,273.3a737.11,737.11,0,0,1-182.49,220.83c-93.93,76.92-209.73,134-344.18,169.69A1.74,1.74,0,0,1,2069.48,2078.92Z" transform="translate(-460.71 -400.69)"/><path class="cls-7" d="M1975.47,2714.48a1.53,1.53,0,0,1-1-.37c-100-86.17-178.79-180.72-234-281-44.21-80.27-73.56-164.39-87.23-250-23.29-145.83,7.5-246.86,7.81-247.87a1.52,1.52,0,0,1,2.91.91c-.31,1-30.9,101.48-7.69,246.64,13.64,85.25,42.88,169,86.92,248.95,55.07,100,133.56,194.18,233.3,280.08a1.52,1.52,0,0,1,.16,2.15A1.51,1.51,0,0,1,1975.47,2714.48Z" transform="translate(-460.71 -400.69)"/><path class="cls-7" d="M2346.22,1006.32a1.53,1.53,0,0,1-.6-2.93c97.05-41.06,177.77-98.21,239.93-169.86,49.72-57.31,87.75-124,113-198.17,43.05-126.33,34-232,33.92-233a1.53,1.53,0,0,1,3-.28c.09,1.06,9.18,107.34-34.07,234.27-25.41,74.56-63.63,141.58-113.61,199.19-62.47,72-143.57,129.43-241.05,170.67A1.56,1.56,0,0,1,2346.22,1006.32Z" transform="translate(-460.71 -400.69)"/></g><path class="cls-2" d="M2001.1,2818.57c-64.35-109.74-1.91-292.49,74.53-399.48,89.24-124.91,161.74-96.43,223.59-199,115.15-190.94-89-368,11.89-569.74,82.45-164.94,250.15-109.2,333.14-296,59.89-134.8,1.35-228.61,92.15-328.76,7.76-8.56,92.79-99.69,196-83.19,104.23,16.66,166.09,133.23,186.32,213.72,37.4,148.77-61.82,196.44-82.2,389.07-27.75,262.26,139.74,329.14,79.39,518-49.83,156-175.53,146.34-227.34,320.38-48.12,161.62,42.78,228.65,0,334.27C2790.18,2960.89,2132.35,3042.41,2001.1,2818.57Z" transform="translate(-460.71 -400.69)"/><g class="cls-8"><path class="cls-7" d="M2088.25,2990.79a1.54,1.54,0,0,1-1.52-1.37,1.52,1.52,0,0,1,1.36-1.67c111.75-11.83,216.12-46.52,310.21-103.1,89.13-53.61,181.29-109,222.22-211.15,31-77.26,13.93-134.14-7.64-206.16-21-70-47.05-157.14-32.65-290.28,8.22-76,18.46-170.63,84.31-260.12,38.36-52.12,75.58-74.44,108.43-94.14,34.5-20.69,61.76-37,77.68-80.83,25.94-71.35,8.92-132.65-10.78-203.62-12.16-43.78-24.73-89-29.49-142.78-13.4-151.23,58-313.87,212.28-483.39a1.52,1.52,0,0,1,2.25,2.05C2871.25,1083.1,2800.09,1245,2813.42,1395.3c4.73,53.46,17.26,98.59,29.38,142.23,19.85,71.48,37,133.22,10.71,205.48-16.29,44.81-45.34,62.23-79,82.4-32.6,19.55-69.55,41.71-107.55,93.34-65.36,88.82-75.55,183-83.73,258.64-14.34,132.53,11.65,219.33,32.54,289.08,21.73,72.58,38.9,129.92,7.54,208.16-41.3,103.07-133.91,158.77-223.47,212.62-94.47,56.82-199.26,91.65-311.46,103.53Z" transform="translate(-460.71 -400.69)"/><path class="cls-7" d="M2637.76,1963.52a1.53,1.53,0,0,1-1.4-.9c-90.07-203.92-104.22-361.77-100.24-458.29,4.33-104.7,30.37-161.94,30.63-162.51a1.53,1.53,0,0,1,2.77,1.28c-.26.57-26.09,57.4-30.36,161.57-3.94,96.15,10.2,253.44,100,456.71a1.52,1.52,0,0,1-.78,2A1.49,1.49,0,0,1,2637.76,1963.52Z" transform="translate(-460.71 -400.69)"/><path class="cls-7" d="M2578.33,2287.2a1.52,1.52,0,0,1-.39-3c114.41-30.37,212.94-78.93,292.85-144.34A627,627,0,0,0,3026,1952.14c66.54-123.06,71.88-231.27,71.93-232.35a1.52,1.52,0,1,1,3,.13c0,1.08-5.39,109.88-72.22,233.54a630.08,630.08,0,0,1-155.94,188.71c-80.26,65.72-179.2,114.5-294.07,145A1.31,1.31,0,0,1,2578.33,2287.2Z" transform="translate(-460.71 -400.69)"/><path class="cls-7" d="M2498,2830.09a1.51,1.51,0,0,1-1-.37c-85.48-73.62-152.76-154.4-200-240.11-37.78-68.59-62.86-140.46-74.54-213.62-19.89-124.61,6.41-211,6.68-211.82a1.52,1.52,0,0,1,2.91.91c-9.2,29.47-22.42,111.42-6.55,210.6,11.64,72.79,36.61,144.31,74.22,212.57,47,85.34,114.05,165.81,199.23,239.16a1.52,1.52,0,0,1-1,2.68Z" transform="translate(-460.71 -400.69)"/><path class="cls-7" d="M2814.71,1371a1.53,1.53,0,0,1-.59-2.93C2897,1333,2965.91,1284.22,3019,1223c42.46-48.94,74.92-105.86,96.51-169.2,36.75-107.87,29-198,29-198.95a1.53,1.53,0,0,1,3-.27c.08.9,7.84,91.73-29.12,200.2-21.71,63.71-54.37,121-97.09,170.22-53.38,61.53-122.68,110.6-206,145.84A1.52,1.52,0,0,1,2814.71,1371Z" transform="translate(-460.71 -400.69)"/></g><path class="cls-9" d="M2356.44,1556.76l-120.16-.37c-15.34-.05-27.79-13.17-27.79-29.31v-297.4c0-211.51-163.77-386.29-367.6-390.41l-231.56-4.68C1401.2,830.37,1231,1002.44,1231,1218.94v304.42c0,16.52-13,29.87-29.15,29.82l-127-.4c-16.21,0-29.36-13.54-29.36-30.13V1216.91c0-322.66,254.31-577.94,563.87-570.29l231.56,5.72C2142.61,659.8,2384,919.1,2384,1231.61v296.13C2384,1543.82,2371.68,1556.81,2356.44,1556.76Z" transform="translate(-460.71 -400.69)"/><path class="cls-10" d="M2425.59,1613.83l-1424.52-2.45c-70.32-.12-127.48,58.07-127.48,130v722.24c0,293.27,232.21,523.89,515.21,515.22l667.94-20.46C2327.26,2950.06,2544,2715,2544,2433.16v-694C2544,1670.05,2491.07,1614,2425.59,1613.83Zm-564.65,985.48-271.9,6,72.25-321.37c-65-25.69-111.06-90.8-111.06-167.73,0-100.53,78.62-182.49,175.2-183.07,96.14-.57,173.75,79.79,173.75,179.49,0,76.3-45.44,142.11-109.8,169.48Z" transform="translate(-460.71 -400.69)"/><path class="cls-11" d="M2472.92,1556.76l-120.16-.37c-15.34-.05-27.79-13.17-27.79-29.31v-297.4c0-211.51-163.78-386.29-367.6-390.41l-231.56-4.68c-208.13-4.22-378.36,167.85-378.36,384.35v304.42c0,16.52-13,29.87-29.16,29.82l-127-.4c-16.21,0-29.36-13.54-29.36-30.13V1216.91c0-322.66,254.31-577.94,563.87-570.29l231.56,5.72c301.72,7.46,543.14,266.76,543.14,579.27v296.13C2500.51,1543.82,2488.16,1556.81,2472.92,1556.76Z" transform="translate(-460.71 -400.69)"/><path class="cls-12" d="M2542.07,1613.83l-1424.53-2.45c-70.31-.12-127.47,58.07-127.47,130v722.24c0,293.27,232.21,523.89,515.21,515.22l667.94-20.46c270.52-8.29,487.25-243.38,487.25-525.19v-694C2660.47,1670.05,2607.55,1614,2542.07,1613.83Zm-564.65,985.48-271.9,6,72.25-321.37c-65-25.69-111.07-90.8-111.07-167.73,0-100.53,78.63-182.49,175.21-183.07,96.14-.57,173.75,79.79,173.75,179.49,0,76.3-45.44,142.11-109.81,169.48Z" transform="translate(-460.71 -400.69)"/><path class="cls-13" d="M1777.77,2283.89l-72.25,321.37,271.9-6-68-301.3c-92.92-68.94-178.54-128.37-240.57-210.49a190.41,190.41,0,0,0-2.18,28.64C1666.7,2193.09,1712.81,2258.2,1777.77,2283.89Z" transform="translate(-460.71 -400.69)"/><path class="cls-13" d="M1909.45,2298l-3.6-16c64.37-27.37,109.81-93.18,109.81-169.48,0-99.7-77.61-180.06-173.75-179.49-87.22.52-159.78,67.42-173,154.43C1730.91,2169.64,1816.53,2229.07,1909.45,2298Z" transform="translate(-460.71 -400.69)"/><path class="cls-14" d="M1161.94,1216.9v305.75c0,16.59,13.15,30.08,29.36,30.13l127,.4c16.1,0,29.15-13.3,29.15-29.82V1218.94c0-216.5,170.23-388.57,378.36-384.35l28.87.58c-24.36-66.49-58.48-128.36-99.32-185.71C1378.59,678.71,1161.94,919.1,1161.94,1216.9Z" transform="translate(-460.71 -400.69)"/><path class="cls-14" d="M1909.45,2298l68,301.3-271.9,6,72.25-321.37c-65-25.69-111.07-90.8-111.07-167.73a190.41,190.41,0,0,1,2.18-28.64c-35.76-47.35-63.69-102.22-80.62-170.85-28.24-114.51-12.22-212,20.81-304.44l-491.53-.85c-70.31-.12-127.47,58.07-127.47,130v722.24c0,293.27,232.21,523.89,515.21,515.22l667.94-20.46a478.14,478.14,0,0,0,197.42-49.43,1189.91,1189.91,0,0,0-96.41-220.54C2164.48,2494.23,2030.77,2388,1909.45,2298Z" transform="translate(-460.71 -400.69)"/><path class="cls-15" d="M1684.46,836.11A358.84,358.84,0,0,0,1604.15,853c-65.5-65.59-147-117-232.12-157.71a535.1,535.1,0,0,1,237.3-48.67l60.63,1.5a544.7,544.7,0,0,1,55.85-1.5l231.56,5.72c301.72,7.46,543.14,266.76,543.14,579.27v296.13c0,16.08-12.35,29.07-27.59,29l-112.35-.35a26.76,26.76,0,0,1-4.13.35l-120.16-.37c-15.34-.05-27.79-13.17-27.79-29.31v-297.4c0-211.51-163.77-386.29-367.6-390.41Zm857.61,777.72-900.35-1.55c-16.67,82.74-18.81,169.8,15,266.28a466,466,0,0,0,57.4,113,176.59,176.59,0,0,1,70.51-48.08c66.9,24.73,114.58,91,114.58,169.11a188.41,188.41,0,0,1-5.41,44.87c138.11,93.46,290.39,166.89,355.81,354.44,52.2,149.64,26.07,305.91-24.67,442.05,245.92-34.46,435.56-257.17,435.56-520.78v-694C2660.47,1670.05,2607.55,1614,2542.07,1613.83Z" transform="translate(-460.71 -400.69)"/><path class="cls-3" d="M2214.65,2962.18l3.95-10.6c60.74-163,69-310.18,24.62-437.48-55.08-157.9-170.09-232.18-291.86-310.81-20.2-13.05-41.09-26.54-61.37-40.26l-3.88-2.62,1.12-4.56a182.57,182.57,0,0,0,5.22-43.27c0-72.15-43.24-136.88-107.86-161.91a170.59,170.59,0,0,0-65.49,45.38l-5.69,6.33-4.86-7a470.49,470.49,0,0,1-58.22-114.6c-30.13-86.07-35-171.81-15.22-269.84l1.09-5.41,905.88,1.56c69,.11,125.13,59.35,125.13,132v694c0,265.44-189.75,492.2-441.37,527.45Zm-313.27-807.72c19,12.75,38.43,25.32,57.29,37.51,118.32,76.41,240.67,155.42,297.28,317.7,44.48,127.52,37.48,274.13-20.8,435.89,239.43-39.38,418.58-257.59,418.58-512.4v-694c0-65.27-50.09-118.46-111.68-118.57l-894.8-1.54c-18,93.3-13,175.2,15.8,257.31a457.76,457.76,0,0,0,51.88,104.47,183.28,183.28,0,0,1,67.36-43.66l2.32-.86,2.33.86c71.17,26.31,119,96.81,119,175.43A196.12,196.12,0,0,1,1901.38,2154.46Zm571.62-591h-.1l-111.84-.35a32.58,32.58,0,0,1-4.56.35h-.08l-120.16-.38c-19-.06-34.5-16.23-34.5-36v-297.4c0-100.67-37.48-196-105.54-268.36S1937.42,848,1840.76,846l-156-3.16a353.42,353.42,0,0,0-78.43,16.54l-4,1.31-2.94-2.94c-58.79-58.87-136.26-111.49-230.26-156.39l-13-6.2,13.08-6a539.18,539.18,0,0,1,240.28-49.28l60.28,1.49a552.41,552.41,0,0,1,56.19-1.49l231.57,5.72C2105.09,649.25,2243.4,712.24,2347,823c103.34,110.44,160.24,255.56,160.24,408.63v296.13a36.21,36.21,0,0,1-10.59,25.87A33.31,33.31,0,0,1,2473,1563.5Zm-112.94-13.83,112.88.35h.06a20,20,0,0,0,14.14-6,22.85,22.85,0,0,0,6.63-16.33V1231.61c0-149.63-55.62-291.49-156.61-399.43s-236-169.55-380-173.1l-231.56-5.72a537.66,537.66,0,0,0-55.15,1.48l-.35,0-61-1.5A525.63,525.63,0,0,0,1388,695.57c88,43.41,161.23,93.73,218,149.74a367.6,367.6,0,0,1,77.85-15.91l.38,0L1841,832.53c100.31,2,194.43,44.49,265,119.56,70.42,74.9,109.2,173.48,109.2,277.59v297.4c0,12.41,9.45,22.53,21.07,22.57l120.16.37a21.75,21.75,0,0,0,3.08-.27Z" transform="translate(-460.71 -400.69)"/><g class="cls-16"><path class="cls-3" d="M1580.58,2612.19l72.89-324.25c-67-29-110-95.79-110-171.78,0-104.06,81.6-189.21,181.9-189.8,46.92-.26,91.51,18.06,125.3,51.64,35.61,35.41,55.23,83.21,55.23,134.58,0,75.36-42.5,142.8-108.75,173.4l72.15,319.88Zm145.86-672.36h-1c-92.92.55-168.51,79.65-168.51,176.33,0,72.43,41.93,135.81,106.81,161.46l5.36,2.12-71.62,318.6,255-5.59-71-314.69,5.17-2.2c64.21-27.31,105.71-91.4,105.71-163.28,0-47.76-18.21-92.16-51.26-125C1810.2,1956.76,1769.48,1939.83,1726.44,1939.83Z" transform="translate(-460.71 -400.69)"/><path class="cls-3" d="M2473,1563.5h-.11l-120.17-.38c-19-.06-34.5-16.23-34.5-36v-297.4c0-100.67-37.48-196-105.53-268.36S2053.9,848,1957.24,846l-231.57-4.69c-96.55-2-188.07,34.6-257.78,102.91-73.32,71.85-113.71,169.41-113.71,274.71v304.42a36.67,36.67,0,0,1-10.79,26.17,35.2,35.2,0,0,1-25,10.38h-.12l-127-.39c-19.89-.06-36.08-16.6-36.08-36.87V1216.9c0-161.31,62-310.63,174.57-420.46C1437,691.82,1577.76,636.23,1726,639.89l231.56,5.72C2105.09,649.25,2243.41,712.24,2347,823c103.34,110.44,160.25,255.56,160.25,408.63v296.13a36.21,36.21,0,0,1-10.59,25.87A33.34,33.34,0,0,1,2473,1563.5Zm-754.7-735.73q3.81,0,7.63.08l231.57,4.68c100.31,2,194.43,44.49,265,119.56,70.41,74.9,109.19,173.48,109.19,277.59v297.4c0,12.41,9.45,22.53,21.06,22.57l120.17.37h.06a20,20,0,0,0,14.14-6,22.81,22.81,0,0,0,6.63-16.33V1231.61c0-149.63-55.62-291.49-156.61-399.43s-236-169.55-380-173.1l-231.56-5.72c-144.59-3.58-281.84,50.67-386.46,152.73-110,107.27-170.51,253.17-170.51,410.81v305.75c0,12.86,10.17,23.36,22.65,23.4l127,.39a21.59,21.59,0,0,0,15.56-6.46,23.29,23.29,0,0,0,6.83-16.62V1218.94c0-109,41.82-209.93,117.75-284.34C1528.93,865.54,1621,827.77,1718.31,827.77Z" transform="translate(-460.71 -400.69)"/><path class="cls-3" d="M1489.78,2985.79c-130.39,0-253.36-49.89-347.79-141.47-102.31-99.23-158.66-234.44-158.66-380.73V1741.35a137.05,137.05,0,0,1,40.29-97.71,131.9,131.9,0,0,1,93.7-39h.23l1424.53,2.46c69,.11,125.13,59.35,125.13,132v694c0,138.16-51.13,269.48-144,369.74-93.08,100.53-217.31,158.13-349.8,162.18l-667.95,20.47Q1497.62,2985.79,1489.78,2985.79ZM1117.32,1618.12a118.45,118.45,0,0,0-84.18,35.06,123.65,123.65,0,0,0-36.34,88.17v722.24c0,142.61,54.9,274.38,154.57,371,95.57,92.69,221.17,141.5,353.7,137.44L2173,2951.62c128.86-3.95,249.73-60,340.34-157.87s140.38-225.83,140.38-360.59v-694c0-65.27-50.09-118.46-111.68-118.57l-1424.52-2.45Zm579.74,994.07L1770,2287.94c-67-29-110-95.79-110-171.78,0-104.06,81.6-189.21,181.9-189.8,46.89-.26,91.51,18.06,125.3,51.64,35.61,35.41,55.23,83.21,55.23,134.58,0,75.36-42.5,142.8-108.76,173.4l72.16,319.88Zm145.86-672.36h-1c-92.92.55-168.51,79.65-168.51,176.33,0,72.43,41.92,135.81,106.8,161.46l5.37,2.12L1714,2598.34l255-5.59-71-314.69,5.18-2.2c64.21-27.31,105.7-91.4,105.7-163.28,0-47.76-18.2-92.16-51.25-125C1926.68,1956.76,1886,1939.83,1842.92,1939.83Z" transform="translate(-460.71 -400.69)"/><path class="cls-3" d="M1489.84,2884.73h0c-108.15,0-209.65-43.07-285.79-121.25-77.16-79.23-119.66-185.74-119.66-299.89V1741.35c0-19.65,14.78-35.64,32.94-35.64l1424.58,2.45c11.7,0,24.24,12.47,24.24,31v694c0,230.92-177.57,424.22-395.82,430.91l-667.94,20.46C1498.22,2884.66,1494,2884.73,1489.84,2884.73ZM1117.31,1719.18c-10.71,0-19.44,10-19.44,22.17v722.24c0,110.62,41.13,213.79,115.83,290.49,76.42,78.46,179.36,120.3,288.28,117l667.93-20.47c211.06-6.46,382.76-193.73,382.76-417.44v-694c0-10.51-6.49-17.5-10.79-17.51Z" transform="translate(-460.71 -400.69)"/><path class="cls-3" d="M2410.45,1553.2H2397V1188c0-243.33-198-441.3-441.3-441.3H1703c-243.33,0-441.3,198-441.3,441.3V1553.2h-13.48V1188c0-250.76,204-454.78,454.78-454.78h252.66c250.76,0,454.77,204,454.77,454.78Z" transform="translate(-460.71 -400.69)"/><polygon class="cls-3" points="1878.33 2531.86 1866.2 2525.98 1949.75 2353.62 1949.75 1312.86 1916.94 1215.22 1929.71 1210.93 1963.22 1310.65 1963.22 2356.72 1878.33 2531.86"/><polygon class="cls-3" points="1588.78 2558.45 1576.33 2553.29 1616.24 2456.84 1616.24 1312.44 1596.17 1214.42 1609.37 1211.72 1629.72 1311.07 1629.72 2459.51 1588.78 2558.45"/><polygon class="cls-3" points="2100.4 1498.09 524.78 1498.09 524.78 1484.61 2097.01 1484.61 2195.85 1431.52 2202.22 1443.39 2100.4 1498.09"/><polygon class="cls-3" points="2100.4 1857.44 524.78 1857.44 524.78 1843.97 2097.01 1843.97 2195.85 1790.87 2202.22 1802.74 2100.4 1857.44"/><polygon class="cls-3" points="524.9 2216.79 524.66 2203.32 2070.7 2175.71 2189.29 2116.41 2195.31 2128.46 2074 2189.13 2072.47 2189.16 524.9 2216.79"/><rect class="cls-3" x="1949.72" y="2028.04" width="13.47" height="115.03" transform="translate(-646.33 3579.25) rotate(-88.32)"/><rect class="cls-3" x="1394.47" y="1582.11" width="111.17" height="13.48"/><rect class="cls-3" x="1944.11" y="2104.29" width="13.48" height="106.37" transform="translate(-998.73 3262.12) rotate(-79.05)"/><g class="cls-17"><path class="cls-1" d="M1393.72,2701.25c-75.34-128.47-2.24-342.42,87.25-467.67,104.48-146.24,189.36-112.89,261.76-232.94,134.81-223.52-104.15-430.8,13.92-667,96.52-193.09,292.85-127.84,390-346.53,70.11-157.8,1.58-267.63,107.87-384.88,9.09-10,108.63-116.71,229.53-97.38,122,19.5,194.43,156,218.12,250.19,43.78,174.17-72.37,230-96.23,455.49-32.49,307,163.59,385.33,92.94,606.46-58.33,182.6-205.49,171.32-266.15,375.07-56.33,189.2,50.09,267.68,0,391.33C2317.5,2867.87,1547.37,2963.3,1393.72,2701.25Z" transform="translate(-460.71 -400.69)"/><path class="cls-3" d="M1802,2861.54c-167.09,0-345.88-40.6-414.06-156.88-73.72-125.71-9.9-338.56,87.58-475,54.32-76,104.13-104.68,148.08-130,42.36-24.37,78.94-45.42,113.39-102.54,67.17-111.37,39.86-217.34,11-329.54-27.72-107.56-56.37-218.78,2.71-337,47.38-94.78,119.46-129.23,189.17-162.55,74.34-35.53,151.21-72.28,200.71-183.69,30.16-67.88,34.19-125.77,38.08-181.76,4.92-70.54,9.55-137.17,71-204.91,11.12-12.27,112.21-119.25,235.58-99.52,131.13,21,202.24,170.28,223.59,255.21,25.12,99.91-1.87,163.21-33.12,236.51-24.64,57.81-52.57,123.33-62.94,221.32-16,151.34,24.35,247,60,331.37,37,87.56,68.87,163.17,32.69,276.44-28.75,90-79.67,134.72-128.92,178-52.3,46-106.39,93.48-137.2,196.95-29.34,98.57-13.67,167,.16,227.29,12.33,53.77,24,104.56-.37,164.65-29.73,73.38-103.47,138.59-213.25,188.57-99.37,45.25-222.85,75.17-347.69,84.27C1853.27,2860.57,1827.75,2861.54,1802,2861.54ZM2454.44,509.25c-103.29,0-185.18,86.78-194.92,97.52-58.27,64.28-62.54,125.69-67.49,196.8-3.8,54.48-8.09,116.24-39.21,186.29-51.52,115.95-130.67,153.79-207.22,190.38-70.77,33.83-137.61,65.78-182.92,156.42-56.84,113.7-28.82,222.44-1.72,327.6,28.33,110,57.63,223.65-12.46,339.86-36.25,60.11-76.06,83-118.21,107.26-44.85,25.79-91.22,52.47-143.84,126.12-47.55,66.56-85.59,150.49-104.36,230.25-15.34,65.24-24.77,158.11,17.44,230.1,55.83,95.21,205.07,150.41,398.5,150.42q38.42,0,79-2.94c219.5-16,485.06-105.57,549.43-264.46,22.75-56.16,12.08-102.7-.27-156.58-14.2-62-30.3-132.18.06-234.14,31.91-107.19,87.48-156,141.22-203.23,50.07-44,97.36-85.55,125-172,34.67-108.52,3.65-182-32.26-267.1-36.25-85.89-77.34-183.23-61-338,10.58-100,38.93-166.51,63.94-225.19,31.55-74,56.46-132.44,32.45-227.95C2675.1,675,2607.19,531.36,2483,511.51A181.45,181.45,0,0,0,2454.44,509.25Z" transform="translate(-460.71 -400.69)"/></g><g class="cls-17"><path class="cls-2" d="M2001.1,2818.57c-64.35-109.74-1.91-292.49,74.53-399.48,89.24-124.91,161.74-96.43,223.59-199,115.15-190.94-89-368,11.89-569.74,82.45-164.94,250.15-109.2,333.14-296,59.89-134.8,1.35-228.61,92.15-328.76,7.76-8.56,92.79-99.69,196-83.19,104.23,16.66,166.09,133.23,186.32,213.72,37.4,148.77-61.82,196.44-82.2,389.07-27.75,262.26,139.74,329.14,79.39,518-49.83,156-175.53,146.34-227.34,320.38-48.12,161.62,42.78,228.65,0,334.27C2790.18,2960.89,2132.35,3042.41,2001.1,2818.57Z" transform="translate(-460.71 -400.69)"/><path class="cls-3" d="M2349.87,2956.47c-143,0-296.14-34.81-354.59-134.49-63.17-107.74-8.58-290,74.87-406.81,46.52-65.11,89.17-89.65,126.79-111.29,36.07-20.75,67.22-38.67,96.51-87.24,57.16-94.78,33.89-185.11,9.24-280.74-23.72-92.05-48.24-187.23,2.4-288.54,40.62-81.26,102.34-110.76,162-139.29,63.34-30.28,128.84-61.59,171-156.43,25.69-57.82,29.13-107.18,32.45-154.92,4.21-60.43,8.18-117.51,60.86-175.63,9.54-10.51,96.2-102.24,202.12-85.31,112.5,18,173.49,146,191.78,218.72,21.54,85.67-1.58,139.88-28.34,202.66-21,49.31-44.85,105.2-53.69,188.77-13.65,129,20.78,210.59,51.16,282.56,31.64,75,59,139.72,28,236.81-24.64,77.12-68.24,115.43-110.41,152.48-44.57,39.16-90.66,79.66-116.9,167.78-25,83.94-11.63,142.22.16,193.64,10.56,46.09,20.54,89.62-.37,141.23-25.49,62.92-88.65,118.81-182.66,161.61-85,38.69-190.59,64.29-297.33,72.06C2393.7,2955.64,2371.9,2956.47,2349.87,2956.47Zm557.27-2009.3c-87.79,0-157.47,73.84-165.75,83-49.55,54.66-53.19,107-57.41,167.52-3.24,46.62-6.92,99.46-33.57,159.45-44.16,99.39-111.93,131.78-177.48,163.11-60.29,28.82-117.24,56-155.79,133.17-48.39,96.79-24.5,189.5-1.4,279.15C2340,2026.66,2365.07,2124,2305,2223.6c-31.09,51.56-65.21,71.18-101.32,92-38.22,22-77.74,44.71-122.56,107.45-40.55,56.76-73,128.32-89,196.33-13.07,55.55-21.11,134.61,14.78,195.83,47.51,81,174.66,128,339.51,128q32.79,0,67.47-2.51c187.2-13.64,413.66-89.95,468.48-225.29,19.32-47.68,10.24-87.29-.28-133.16-12.16-53-25.94-113.15.07-200.5,27.34-91.83,74.91-133.63,120.92-174.05,42.66-37.49,83-72.9,106.46-146.46,29.51-92.35,3.08-155-27.53-227.47-31-73.47-66.15-156.75-52.14-289.22,9.05-85.57,33.3-142.45,54.7-192.64,26.87-63,48.1-112.82,27.67-194.08-17.5-69.58-75.27-191.83-180.85-208.7A152.41,152.41,0,0,0,2907.14,947.17Z" transform="translate(-460.71 -400.69)"/></g></g><path class="cls-3" d="M2473,1561.81h-.11l-120.16-.37c-18.1-.06-32.82-15.47-32.82-34.36v-297.4c0-101.1-37.64-196.81-106-269.51s-159.53-113.88-256.65-115.85l-231.57-4.68a356.05,356.05,0,0,0-120,18.1l-3.19-9.59a366.12,366.12,0,0,1,123.37-18.62l231.56,4.69c99.86,2,193.55,44.29,263.82,119C2291.41,1027.83,2330,1126,2330,1229.68v297.4c0,13.33,10.2,24.21,22.74,24.25l120.17.37h.06a21.61,21.61,0,0,0,15.33-6.44,24.48,24.48,0,0,0,7.13-17.52V1231.61c0-150.06-55.78-292.32-157.07-400.58S2101.61,661,1957.25,657.39l-231.56-5.72a531.84,531.84,0,0,0-290.51,77.67l-5.26-8.63a541.74,541.74,0,0,1,296-79.14l231.56,5.72c147.09,3.64,285,66.44,388.27,176.84,103.05,110.13,159.79,254.84,159.79,407.48v296.13a34.53,34.53,0,0,1-10.09,24.68A31.67,31.67,0,0,1,2473,1561.81Z" transform="translate(-460.71 -400.69)"/><path class="cls-3" d="M2225.61,2959l-1.4-10c245.83-34.44,431.21-256.18,431.21-515.79v-694c0-66.2-50.86-120.15-113.36-120.25l-900.35-1.55,0-10.11,900.35,1.55c68.07.12,123.44,58.6,123.44,130.36v694C2665.52,2697.78,2476.4,2923.82,2225.61,2959Zm-236.5-740.51-8.43-5.57a181.49,181.49,0,0,0,29.93-100.3c0-48.21-18.38-93-51.76-126.21-31.54-31.36-73.06-48.52-116.91-48.22-46.8.27-92,20.95-124.14,56.73l-7.52-6.75c34-37.89,82-59.8,131.6-60.09h1c46.18,0,89.84,18.14,123.06,51.16,35.29,35.09,54.73,82.46,54.73,133.38A191.55,191.55,0,0,1,1989.11,2218.45Z" transform="translate(-460.71 -400.69)"/><circle class="cls-3" cx="2418.13" cy="1898.99" r="34.1" transform="translate(-1095.24 1865.39) rotate(-45)"/><circle class="cls-3" cx="2418.13" cy="1710.83" r="34.1" transform="translate(-118.65 3423) rotate(-80.78)"/><circle class="cls-3" cx="2418.13" cy="2249.63" r="34.1" transform="translate(-650.5 3875.5) rotate(-80.78)"/><circle class="cls-3" cx="2418.13" cy="2600.27" r="34.1" transform="translate(-1128.86 3955.6) rotate(-76.72)"/><circle class="cls-3" cx="2404.74" cy="1493.62" r="34.1" transform="translate(-62.12 3090.18) rotate(-76.72)"/><circle class="cls-3" cx="1621.02" cy="1491.7" r="21.6"/><circle class="cls-3" cx="2081.72" cy="1713.77" r="21.6" transform="translate(-404.08 3093.41) rotate(-80.78)"/><circle class="cls-3" cx="2081.72" cy="2249.63" r="21.6" transform="translate(-1163.14 567.2) rotate(-22.5)"/><circle class="cls-3" cx="2404.74" cy="1239.91" r="21.6" transform="translate(-554.78 -198.12) rotate(-4.73)"/><circle class="cls-3" cx="1879.76" cy="559.14" r="21.6"/><path class="cls-3" d="M2167,779.07a21.6,21.6,0,1,1-21.6-21.61A21.6,21.6,0,0,1,2167,779.07Z" transform="translate(-460.71 -400.69)"/><circle class="cls-3" cx="1364.56" cy="335.17" r="21.6"/><circle class="cls-3" cx="2306.37" cy="1112.96" r="34.1" transform="translate(232.59 2701.24) rotate(-76.72)"/><path class="cls-15" d="M1565.24,3109.41a2.83,2.83,0,0,1-2.83-2.82V1992.45a2.83,2.83,0,0,1,5.66,0V3106.59A2.83,2.83,0,0,1,1565.24,3109.41Z" transform="translate(-460.71 -400.69)"/><path class="cls-15" d="M1265.08,3039.43a2.83,2.83,0,0,1-2.83-2.83V1964.36a2.83,2.83,0,0,1,5.66,0V3036.6A2.83,2.83,0,0,1,1265.08,3039.43Z" transform="translate(-460.71 -400.69)"/><path class="cls-18" d="M571.12,3089.36a2.94,2.94,0,0,1-1-.17,2.83,2.83,0,0,1-1.69-3.63L969.71,1980a2.82,2.82,0,0,1,5.31,1.93L573.78,3087.49A2.84,2.84,0,0,1,571.12,3089.36Z" transform="translate(-460.71 -400.69)"/><path class="cls-18" d="M867.34,3175.87a3,3,0,0,1-.84-.12,2.84,2.84,0,0,1-1.87-3.54l360.12-1165.65a2.83,2.83,0,1,1,5.4,1.67L870,3173.88A2.82,2.82,0,0,1,867.34,3175.87Z" transform="translate(-460.71 -400.69)"/><polygon class="cls-15" points="807.68 1562.56 1108.78 1584.84 1108.78 1591.61 764.66 1607.04 507.46 1575.53 507.46 1568.75 807.68 1562.56"/><polygon class="cls-3" points="807.68 1555.78 1108.78 1584.84 764.66 1600.27 507.46 1568.75 807.68 1555.78"/><path class="cls-18" d="M945.24,2923.7a2.53,2.53,0,0,1-.71-.1l-286.71-75.21a2.83,2.83,0,0,1,1.44-5.47L946,2918.14a2.83,2.83,0,0,1-.72,5.56Z" transform="translate(-460.71 -400.69)"/><path class="cls-18" d="M1026.46,2659.84a2.92,2.92,0,0,1-.5-.05L744.59,2610a2.83,2.83,0,0,1,1-5.57L1027,2654.23a2.83,2.83,0,0,1-.49,5.61Z" transform="translate(-460.71 -400.69)"/><path class="cls-18" d="M1110.9,2387.49a2.19,2.19,0,0,1-.36,0l-272.32-35.1a2.82,2.82,0,1,1,.73-5.6l272.31,35.1a2.83,2.83,0,0,1-.36,5.63Z" transform="translate(-460.71 -400.69)"/><path class="cls-18" d="M1165,2198.49a3.25,3.25,0,0,1-.44,0l-256-40.07a2.82,2.82,0,1,1,.87-5.58l256,40.06a2.83,2.83,0,0,1-.43,5.62Z" transform="translate(-460.71 -400.69)"/><path class="cls-19" d="M1404.71,1929.9s76.93,35,78.18,40.55-49.47-1.87-70.18-1.07-37.74-5.32-35.87-14.09,9.13-30.83,9.13-30.83Z" transform="translate(-460.71 -400.69)"/><path class="cls-20" d="M1407.52,1901.53l-4.68,34.63s-12.17,4.34-20.36-.79l-3.49-38Z" transform="translate(-460.71 -400.69)"/><path class="cls-21" d="M1045.25,1902.36l-9,14.36a17.15,17.15,0,0,0-2,13.43c3.13,11.95,9.38,35.23,12.1,41.3,3.71,8.27,53.5,13.18,53.5,13.18s4.43-6.25-5.9-13.79-17-8.74-20.63-19.87-6.08-42.63-6.08-42.63Z" transform="translate(-460.71 -400.69)"/><path class="cls-22" d="M1082.49,1865.85c-3.27,2.61-19.26,51.14-19.26,51.14s-5.17,6.62-15-3.15-4.45-4.38-4.45-4.38l1.84-47.73Z" transform="translate(-460.71 -400.69)"/><path class="cls-23" d="M1449.85,1205.68c4.06,103.32,4.22,215.56-1.72,335.48-6.69,135-20.15,259.84-37.1,373-6.3.2-12.92.23-19.84,0-4.67-.13-9.19-.36-13.57-.66a860.71,860.71,0,0,1-28.5-91.16,875.23,875.23,0,0,1-19.9-106.74c-14.82-117,2.54-127.23-9.48-213.95-10.65-76.81-25.79-79.81-43.56-188.86-19.29-118.32-4.93-136.07,2-142.48C1308,1143,1377.77,1161.61,1449.85,1205.68Z" transform="translate(-460.71 -400.69)"/><path class="cls-24" d="M1278.23,1170.33c28.35-26,93.18-10.27,161.65,29.47-78.77,85.1-87.36,140.31-77.91,176.14,10.67,40.48,43.12,52.14,43,96.42-.15,54.4-49.25,68.81-48.21,126.38.69,38.07,22.27,37.68,27.37,84.7,6,55.63-22.16,74.8-13,116,3.93,17.71,15.14,40.85,47.06,64.69-2.3,16.9-4.66,33.63-7.12,50.05-6.3.2-12.92.23-19.84,0-4.67-.13-9.2-.36-13.57-.66a860.71,860.71,0,0,1-28.5-91.16,875.23,875.23,0,0,1-19.9-106.74c-14.82-117,2.54-127.23-9.48-213.95-10.65-76.81-25.79-79.81-43.56-188.86C1256.89,1194.49,1271.25,1176.74,1278.23,1170.33Z" transform="translate(-460.71 -400.69)"/><path class="cls-25" d="M1401.06,1203.94a2319.9,2319.9,0,0,0-318,680.72,41.41,41.41,0,0,1-22.7,3.52,42.23,42.23,0,0,1-25.72-13.9,667.8,667.8,0,0,1-5.9-164.74c2.33-26.23,6.45-69.9,23.17-123.82,18.72-60.4,31.6-63.8,56-127.7,25.35-66.32,19.21-82.87,43.49-165.87a1096.65,1096.65,0,0,1,54.23-145.54Z" transform="translate(-460.71 -400.69)"/><path class="cls-26" d="M1714.2,1329.9c-13,20.28-57.94,17.91-88.6,6.95C1553.91,1311.21,1508,1220,1504,1147.48c-.87-15.58-.32-30.81-3.47-31.27-8-1.17-28.34,93-44.35,172.88-12.87,4.71-32.38,9.72-54.68,6.06-36.49-6-40.84-28.65-81.65-43.43-23.82-8.63-47.15-8.65-93.82-8.69-52.68,0-54.13,6.45-64.28,1.74a53.44,53.44,0,0,1-4.67-2.93c-37.51-26.93,69.81-231.65,38.91-420.53-3.43-21-8.7-42.55,3-63.57,30.3-54.3,150-62,224.24-26.22,20.34,9.8,54.4,31.23,84.81,53.81,12.16,9,24.8,19.13,38,30.65,32,27.94,54.26,47.39,72.6,74.38,74,108.85-11.52,199.57,55.6,338.77C1697.32,1277,1727.86,1308.65,1714.2,1329.9Z" transform="translate(-460.71 -400.69)"/><path class="cls-27" d="M1515.29,711.9s-19.26,21.87-40,33.21c-18.71,10.24-59.95-7-69.5-9s1.91,23.67,19.91,41.38,77.51,58.21,93.56,58.88-2.58-13.37-12.44-29.74,4-50.2,16.47-60.63S1515.29,711.9,1515.29,711.9Z" transform="translate(-460.71 -400.69)"/><path class="cls-28" d="M1693.73,1293s30.6-2,49-9.11,29.8,4.44,27.86,12.11-32.22,17.38-44.18,17.35S1693.73,1293,1693.73,1293Z" transform="translate(-460.71 -400.69)"/><path class="cls-29" d="M1559.55,729c21.85-1.66,43.93-28.57,39.47-40.32-1.27-3.36-4.11-3.89-46.9-10.94-21.24-3.5-31.86-4.94-39.21.93-4.48,3.58-8,10-9.08,16-.57,3.1-.6,7.38-.07,15.9.48,7.56.34,7.23.54,9.47.47,5.36,1.93,14.8,7.16,27.88a67.65,67.65,0,0,1,8.71-8.05,59.53,59.53,0,0,1,13.25-7.81C1544.27,727.71,1552.45,729.55,1559.55,729Z" transform="translate(-460.71 -400.69)"/><path class="cls-30" d="M1503.47,733.36s1,20.91,20.68,30.09c17.64,8.22,41.06-28.61,34.62-42.68-2.15-4.69-8.81-9.8-15.62-11.38-4-.93-6-.13-12.56-1.78-6-1.52-7.22-2.93-9.55-2.46-2.92.59-6.64,3.91-9.42,16.9-1.45-5.07-4.66-8.47-8.14-8.68a6.69,6.69,0,0,0-3.47,1C1495.23,717.4,1496.17,725.16,1503.47,733.36Z" transform="translate(-460.71 -400.69)"/><path class="cls-31" d="M1032,1155.37c-29.55-14.48-93.32-51.56-112.93-119.87-32.64-113.72,83.46-222.2,143.4-262.78,68.72-46.54,137.77-54.05,179.74-58.62,52.06-5.67,83.84-9.12,107.71,10.42,61.73,50.56,24.62,217.37-36.48,234.54-20,5.62-27.58-9-69.5-19.11-13.65-3.29-115.53-27.83-168.51,26.06-37.08,37.72-41.82,105.32-15.64,168.52Z" transform="translate(-460.71 -400.69)"/><path class="cls-32" d="M1038,1150.9l15.64-11.73s9.81,6.8,21.8,5.87c6.54-.51,15.21,3.42,17.17,5.49s11.06,7.07-2,5.76-15.13,2.33-13.31,8.85,12.7,24.76,18.22,28.67-10.33,6.51-16.84,4.12-16.94-6.73-24.54-20.85C1051.39,1171.94,1038,1150.9,1038,1150.9Z" transform="translate(-460.71 -400.69)"/><path class="cls-33" d="M2269.85,1188.83v0a24.88,24.88,0,0,0-.83-2.48c-.08-.22-.18-.44-.27-.66-.26-.64-.56-1.27-.88-1.9-.12-.23-.23-.46-.36-.69a24.78,24.78,0,0,0-1.46-2.4l-31.39-45.51a27.48,27.48,0,0,0-22.52-11.94l-547.73,1c-29.77-80.19-94.67-145.55-176.13-178.46l-.27-.11q-3.12-1.25-6.27-2.45l-.68-.25q-3.21-1.21-6.46-2.35l-.17-.07q-6.76-2.37-13.67-4.45l-.94-.28c-1.9-.56-3.8-1.11-5.71-1.63-.5-.15-1-.28-1.52-.42-1.8-.49-3.6-1-5.42-1.42l-1.42-.37q-6.81-1.68-13.74-3.08l-1.31-.26q-2.73-.54-5.47-1l-2.07-.36c-1.63-.28-3.26-.55-4.9-.8l-2.14-.33q-2.67-.39-5.36-.75l-1.56-.21q-3.48-.43-7-.8l-1.23-.12q-2.85-.29-5.71-.52l-2.32-.17c-1.58-.12-3.16-.23-4.75-.32l-2.49-.14c-1.63-.08-3.25-.15-4.88-.21l-2.21-.08c-2.35-.07-4.7-.12-7.06-.13-166.45-1.1-296.35,128.3-288,289s151.49,288.68,317.73,285.8c2.35,0,4.7-.12,7-.21l2.2-.1c1.62-.08,3.24-.16,4.86-.26l2.47-.17c1.58-.11,3.15-.24,4.72-.37l2.29-.2c1.89-.17,3.78-.37,5.66-.58l1.21-.13c2.31-.27,4.6-.56,6.89-.88l1.54-.22c1.76-.26,3.53-.52,5.28-.81l2.1-.35c1.61-.27,3.22-.56,4.83-.86l2-.37q2.7-.53,5.39-1.1l1.26-.26q6.78-1.47,13.42-3.24l1.36-.37q2.65-.72,5.3-1.48l1.46-.43q2.81-.84,5.58-1.72c.28-.09.57-.17.85-.27q6.71-2.14,13.24-4.6l.11,0q3.15-1.18,6.27-2.44l.6-.24q3.06-1.24,6.09-2.55l.19-.08c78-33.76,136.16-99.78,157.64-180.25l94.61-.84,16.77-12.7-18.24-15.76,46.85-.36,1.46,28.4,23.36-.21,16.76-12.69L1836.45,1263l26.89-.21,1.46,28.34,37.55-.33,16.76-12.7-17.46-.7,48.1-.4.69,13.37,21.31-.19-1.34-26,57-.45,1.33,25.9,43.7-.39,16.76-12.7L2071,1261.22l46.52-.36,1.45,28,53.92-.48a25.07,25.07,0,0,0,16.9-6.62l73.24-68A24.87,24.87,0,0,0,2269.85,1188.83Zm-1079.79,22.25c-1.67-32.4,24.51-58.75,58.39-58.85s62.45,26,64.12,58.2-24.3,58.59-58.08,58.85S1191.74,1243.49,1190.06,1211.08Z" transform="translate(-460.71 -400.69)"/><path class="cls-34" d="M1517.94,1281.69l266.55-2.37-1.47-28.46,46.84-.36,1.47,28.4,23.35-.2-1.46-28.38,26.89-.2,1.46,28.34,37.54-.34-.69-13.4,48.09-.4.69,13.38,21.32-.19-1.34-26,57-.44,1.34,25.89,43.69-.39-1.45-28.09,46.53-.36,1.45,28,53.92-.48a25.13,25.13,0,0,0,16.9-6.63l73.24-68c9.09-8.44,10.37-22.49,3-33.16l-31.39-45.51a27.48,27.48,0,0,0-22.52-11.94l-664.45,1.19Z" transform="translate(-460.71 -400.69)"/><path class="cls-35" d="M1100.29,1199c8.3,160.74,151.48,288.68,317.73,285.8,164-2.84,288.69-132.21,280.6-289S1552.51,911,1388.34,909.92C1221.89,908.82,1092,1038.22,1100.29,1199Zm229-1.22c1.66,32.24-24.3,58.59-58.08,58.85s-62.76-25.79-64.43-58.2,24.51-58.75,58.39-58.85S1327.67,1165.49,1329.34,1197.73Z" transform="translate(-460.71 -400.69)"/><path class="cls-36" d="M1388.34,909.92c-166.45-1.1-296.35,128.3-288,289s151.48,288.68,317.73,285.8c133.44-2.31,240.84-88.39,271.86-204.59l28.45-.25c-2.58-35.77,6.82-53.59,17.69-63.14,30.49-26.79,73.49,10,160.31.76,72.35-7.67,79.81-37.28,147.44-35.8,47.09,1,64.26,15.89,103.21,23.8,34.46,7,80.66,7.43,139.49-15.23a26.12,26.12,0,0,0-3.66-22.34l-31.39-45.51a27.48,27.48,0,0,0-22.52-11.94l-547.73,1C1638.18,995.69,1522,910.81,1388.34,909.92Zm-181.51,288.46c-1.67-32.4,24.51-58.75,58.39-58.85s62.45,26,64.12,58.2-24.3,58.59-58.08,58.85S1208.5,1230.79,1206.83,1198.38Z" transform="translate(-460.71 -400.69)"/><path class="cls-37" d="M1160.33,1198.63c6.66,128.87,121.32,231.71,254.77,229.71,132-2,232.63-106,226.11-232.28s-117.85-229.17-250-229.73C1257.67,965.76,1153.68,1069.76,1160.33,1198.63Zm169-.9c1.66,32.24-24.3,58.59-58.08,58.85s-62.76-25.79-64.43-58.2,24.51-58.75,58.39-58.85S1327.67,1165.49,1329.34,1197.73Z" transform="translate(-460.71 -400.69)"/><path class="cls-38" d="M2584.37,3113.09c6.64,13.53,4.78,19.34,3.12,21.9-4.84,7.5-16.49.42-46.9,4a51.27,51.27,0,0,1-18.87-.66c-7.28-1.72-15.86-5.59-15.49-7.54.13-.71,1.43-1,1.92-1.1,8.44-1.8,61.27-18,61.27-18Z" transform="translate(-460.71 -400.69)"/><path class="cls-39" d="M2588.43,3083.36l-4.72,30.24s-13,9.18-16.4-2c-2.45-8-2.38-29.62-2.38-29.62Z" transform="translate(-460.71 -400.69)"/><polygon class="cls-40" points="1974.38 2697.64 1987.13 2732.45 2005.66 2729.5 2001.36 2697.27 1974.38 2697.64"/><path class="cls-41" d="M2453.61,3152.32c9-10.65,17-9.68,18.59-17,1.27-5.75-2.25-12.8-7.56-15.47-7.46-3.76-16.5,2.11-18.54,3.44-13.87,9-10.1,23.11-23.17,29.23-2.64,1.23-6.81,2.53-11.2,6.65-1.87,1.75-6.5,6.09-5.41,9.07,1.25,3.45,9.5,3.33,17.34,3.22,9.4-.13,14.11-.2,18.63-3C2448.56,3164.53,2446.68,3160.53,2453.61,3152.32Z" transform="translate(-460.71 -400.69)"/><path class="cls-42" d="M2687.56,2360.17a996.28,996.28,0,0,1-24.95,179.3c-12.32,52.65-19,61.64-23.31,98.14C2630,2717,2655.41,2729,2658.19,2819c3.07,99.44-25,177.81-36.06,207.7a569.12,569.12,0,0,1-27.06,61.79c-9.28,7.75-23.14,4.4-37.75,1.1-3.48-90.2-8.4-175.13-11.88-265.33q-21.8-203.83-43.6-407.68Z" transform="translate(-460.71 -400.69)"/><path class="cls-43" d="M2557.32,3089.6c-3.48-90.2-8.4-175.13-11.88-265.33q-21.8-203.83-43.6-407.68l185.72-56.42c-.22,4.66-.55,9.15-.84,13.72-87.85,73.05-106,132-106,172.52,0,49.1,26.29,74,19.52,145.07-4.85,50.81-20.34,59.45-21.31,105.37-1.26,59.13,23.4,92.92,35,127.35,11.24,33.29,14.48,80.15-10,146.19-3.18,6.8-6.17,12.89-8.84,18.11C2585.79,3096.24,2571.93,3092.9,2557.32,3089.6Z" transform="translate(-460.71 -400.69)"/><path class="cls-44" d="M2577.27,2425.62c-46.84,75.35-73.23,134.88-87.66,171.68-8.79,22.45-16.83,45.85-19.25,76.73a241.71,241.71,0,0,0,10,89.16,466.67,466.67,0,0,1,21.57,89.43c15.13,109.44-12.37,200.16-33.48,252.22l-33,11.44a1807.78,1807.78,0,0,1-70.63-290.2c-10.47-66.41-18.44-118.48-17.11-184.38,1.4-69.5,13.64-179.23,73.33-309.36Z" transform="translate(-460.71 -400.69)"/><path class="cls-45" d="M2564.92,1823.44c-69.74,10.44-122.9,21.73-147.3,57.61-25.77,37.9,13.27,67.68,22.25,152.25,13.74,129.46-61.53,176.1-43,306.56a336,336,0,0,0,30.25,98.5c22.06,18.8,57.21,44.55,105.26,62.53,69.92,26.16,105,12.58,199.66,20,154.85,12.19,177.1,57.66,247.74,31.51,71.4-26.43,124.26-100.85,109.93-133.44-8.58-19.52-37.2-8.06-77.37-32.66-51.78-31.7-42.08-73.25-83.85-110-60-52.73-119.89-2.06-171.19-47.9-51.9-46.37-55.85-156.5-32-221.5,15.59-42.46,16.86-89,28.7-132.62a28.23,28.23,0,0,0-.31-16.07c-8.12-25.41-54.17-31.24-89-35.32C2611.67,1816.72,2570.65,1822.58,2564.92,1823.44Z" transform="translate(-460.71 -400.69)"/><path class="cls-46" d="M2972.74,2503.28c-21.16-14.77-8.67-55.07-40-77.28-29.08-20.61-52.65,5-95.86-9.24-55.41-18.3-51.34-71.94-104.43-90.22-38.17-13.15-50.29,11.13-105.76,11s-127.43-24.53-172.12-84.19a197.61,197.61,0,0,1-34.74-76.89c-15.82,47.49-32.89,93.37-22.92,163.39a336,336,0,0,0,30.25,98.5c22.06,18.8,57.21,44.55,105.26,62.53,69.92,26.16,105,12.58,199.66,20,154.85,12.19,177.1,57.66,247.74,31.51,45.63-16.89,83.59-53.37,101.37-86C3019,2509.67,2988.09,2514,2972.74,2503.28Z" transform="translate(-460.71 -400.69)"/><path class="cls-47" d="M2527.36,1702.33s-19.91,35.53-21.66,60.73,26.75,24,26.75,24l-1.41,15.89a34.49,34.49,0,0,1-23.15,29.57l-11.32,3.89s73,17.27,113.61-10.16l-11.52-1.37a34.48,34.48,0,0,1-30.28-31.48l-.55-6.83S2582.23,1708.2,2527.36,1702.33Z" transform="translate(-460.71 -400.69)"/><path class="cls-48" d="M2410.8,2100.74l-90.66-202.32a6.21,6.21,0,0,0-6.45-3.63l-158.51,20a6.21,6.21,0,0,0-4.81,8.9l106.88,218.62a6.21,6.21,0,0,0,7.08,3.3l141.13-34.9Z" transform="translate(-460.71 -400.69)"/><path class="cls-3" d="M2385.85,2076.25l-73.4-163.82a5,5,0,0,0-5.22-2.94l-128.35,16.18a5,5,0,0,0-3.89,7.21l86.54,177a5,5,0,0,0,5.73,2.68l114.27-28.26Z" transform="translate(-460.71 -400.69)"/><path class="cls-49" d="M2285.84,1911.44l-5.81-13.13a4.56,4.56,0,0,0-4.7-2.68l-66,7.76a4.55,4.55,0,0,0-3.61,6.4l6.5,14.3a4.54,4.54,0,0,0,4.76,2.62l65.28-8.92A4.55,4.55,0,0,0,2285.84,1911.44Z" transform="translate(-460.71 -400.69)"/><path class="cls-15" d="M2195.88,1955.73l.3,0,116.25-14.92a2.63,2.63,0,0,0,2.28-2.93,2.67,2.67,0,0,0-2.94-2.27l-116.25,14.91a2.63,2.63,0,0,0,.36,5.23Z" transform="translate(-460.71 -400.69)"/><path class="cls-15" d="M2201.84,1967.47a1.76,1.76,0,0,0,.33,0l115.67-16a2.62,2.62,0,1,0-.72-5.2l-115.66,16a2.63,2.63,0,0,0,.38,5.23Z" transform="translate(-460.71 -400.69)"/><path class="cls-15" d="M2260,1985.93l.4,0,63.08-10.51a2.63,2.63,0,1,0-.86-5.18l-63.08,10.51a2.63,2.63,0,0,0,.46,5.22Z" transform="translate(-460.71 -400.69)"/><path class="cls-50" d="M2231.09,2088.79s-25.83-17.57-28.84-29.95-2.26-35.69-2.26-35.69l15.06,32.83s7.28-2.09,10.41-12.9,8.43-.91,6.29,7.26S2231.09,2088.79,2231.09,2088.79Z" transform="translate(-460.71 -400.69)"/><path class="cls-51" d="M2430,1868.84a192.27,192.27,0,0,0-52.4,46.44c-51.73,67-31.56,138.3-74.36,163.54-12.23,7.21-33.71,13.07-72.5-.64l-14.86,7.9s-18.16,92.35,94,95.8,168-136,168-136Z" transform="translate(-460.71 -400.69)"/><path class="cls-52" d="M2538.05,1738.32c3.8-.23,7-5,9.59-3.49s2.24,8.55-.23,13.42a17.67,17.67,0,0,1-7,7.22,46.46,46.46,0,0,1,7.81,18.76c3,18.29-7,32.74-11.17,41.23-19,38.27,7.95,100,38.29,131.52,24.66,25.63,36.63,15.79,51.23,36.6,28.42,40.51-12.93,83.48,1.06,137.48,21.27,82.11,149.63,109.16,155,110.21,2.1.42,3.51.68,5.69,1.08,57.62,10.42,144.94,26.22,207.67-19.91,46.94-34.51,69.44-95.84,67.11-150.34-.62-14.34-3.79-68.78-47.12-114.08-6.87-7.19-47.6-49.67-103.83-51.38-29.78-.91-36,9.46-58.65,2.48-31-9.56-49.6-38.32-61.15-56.17-21.22-32.82-12.17-39.54-27.59-55.79-30.24-31.83-67-8.13-99.44-36.35-31.95-27.82-11.53-64.19-42.44-88.34-31.88-24.9-94-17.78-107.86,10.77C2503.05,1697.77,2526.42,1739,2538.05,1738.32Z" transform="translate(-460.71 -400.69)"/></g></g></svg>