<svg xmlns="http://www.w3.org/2000/svg" xmlns:xlink="http://www.w3.org/1999/xlink" viewBox="0 0 2912.11 2915.94"><defs><style>.cls-1{fill:none;}.cls-2{isolation:isolate;}.cls-3{fill:#f4f7fa;}.cls-4{fill:url(#linear-gradient);}.cls-5{clip-path:url(#clip-path);}.cls-6{opacity:0.5;mix-blend-mode:soft-light;}.cls-7{fill:#fcfdfe;}.cls-8{clip-path:url(#clip-path-2);}.cls-9{fill:url(#linear-gradient-2);}.cls-10{fill:#beb8f2;}.cls-11{fill:url(#linear-gradient-3);}.cls-12{clip-path:url(#clip-path-3);}.cls-13{clip-path:url(#clip-path-4);}.cls-14{fill:url(#linear-gradient-4);}.cls-15{fill:url(#linear-gradient-5);}.cls-16{clip-path:url(#clip-path-5);}.cls-17{fill:url(#linear-gradient-6);}.cls-18{fill:url(#linear-gradient-7);}.cls-19{fill:url(#linear-gradient-8);}.cls-20{fill:#de8bdf;}.cls-21{fill:#fff;}.cls-22{fill:url(#linear-gradient-9);}.cls-23{fill:url(#linear-gradient-10);}.cls-24{fill:url(#linear-gradient-11);}.cls-25{fill:url(#linear-gradient-12);}.cls-26{fill:url(#linear-gradient-13);}.cls-27{fill:url(#linear-gradient-14);}.cls-28{fill:url(#linear-gradient-15);}.cls-29{fill:url(#linear-gradient-16);}.cls-30,.cls-31,.cls-38,.cls-47,.cls-61{opacity:0.3;}.cls-30,.cls-31,.cls-38,.cls-47,.cls-57,.cls-61,.cls-63{mix-blend-mode:multiply;}.cls-30{fill:url(#linear-gradient-17);}.cls-31{fill:url(#linear-gradient-18);}.cls-32{fill:url(#linear-gradient-19);}.cls-33{fill:url(#linear-gradient-20);}.cls-34{fill:url(#linear-gradient-21);}.cls-35{fill:url(#linear-gradient-22);}.cls-36{fill:url(#linear-gradient-23);}.cls-37{fill:url(#linear-gradient-24);}.cls-38{fill:url(#linear-gradient-25);}.cls-39{fill:url(#linear-gradient-26);}.cls-40{fill:url(#linear-gradient-27);}.cls-41{fill:url(#linear-gradient-28);}.cls-42{fill:url(#linear-gradient-29);}.cls-43{fill:url(#linear-gradient-30);}.cls-44{fill:url(#linear-gradient-31);}.cls-45{fill:url(#linear-gradient-32);}.cls-46{fill:url(#linear-gradient-33);}.cls-47{fill:url(#linear-gradient-34);}.cls-48{fill:url(#linear-gradient-35);}.cls-49{fill:url(#linear-gradient-36);}.cls-50{fill:url(#linear-gradient-37);}.cls-51{fill:url(#linear-gradient-38);}.cls-52{fill:url(#linear-gradient-39);}.cls-53{fill:url(#linear-gradient-40);}.cls-54{fill:url(#linear-gradient-41);}.cls-55{fill:url(#linear-gradient-42);}.cls-56{fill:url(#linear-gradient-43);}.cls-57{opacity:0.25;fill:url(#linear-gradient-44);}.cls-58{fill:url(#linear-gradient-45);}.cls-59{fill:url(#linear-gradient-46);}.cls-60{fill:url(#linear-gradient-47);}.cls-61{fill:url(#linear-gradient-48);}.cls-62{fill:url(#linear-gradient-49);}.cls-63{opacity:0.4;fill:url(#linear-gradient-50);}.cls-64{fill:url(#linear-gradient-51);}.cls-65{fill:url(#linear-gradient-52);}.cls-66{fill:url(#linear-gradient-53);}.cls-67{fill:url(#linear-gradient-54);}.cls-68{fill:url(#linear-gradient-55);}.cls-69{fill:url(#linear-gradient-56);}.cls-70{fill:url(#linear-gradient-57);}.cls-71{fill:url(#linear-gradient-58);}.cls-72{fill:url(#linear-gradient-59);}</style><linearGradient id="linear-gradient" x1="4362.62" y1="599.42" x2="4903.09" y2="1489.17" gradientTransform="matrix(0.97, 0.24, -0.24, 0.97, -3231.91, -714.33)" gradientUnits="userSpaceOnUse"><stop offset="0" stop-color="#ff9085"/><stop offset="1" stop-color="#fb6fbb"/></linearGradient><clipPath id="clip-path" transform="translate(-411.75 -369.02)"><path class="cls-1" d="M983.57,1835.17l232,56.57c21.51-29.54,53.54-85.91,8.65-112.68-62.41-37.21-34.1-156.34-5-193.67,36-46.21,117.66-155.52,22.08-214.57-79.56-49.16-141-64.62-118.93-177.47S1101.1,995.72,998.47,976.88C890.46,957.05,839,793.65,740,819c-172.45,44.18-96.92,324.16,69.61,441.76s44,157.37,16,247.22c-38.16,122.66,136.69,138.5,168.78,198.56C1019.59,1753.63,999.8,1804.85,983.57,1835.17Z"/></clipPath><clipPath id="clip-path-2" transform="translate(-411.75 -369.02)"><path class="cls-1" d="M1315.75,2014.37l-256.55-.87s-47.85-131.77,15.34-224.44C1203.46,1600,1028.87,1500.28,962,1447.57c-100.85-79.48-155.06-193.51-6.21-242.57S956,925,774.62,820.11c-177.49-102.64-97.45-477.39,307.11-290.5,241.6,111.61,202.83,368,214,502.18s210.62,145.93,141.8,309.52c-58.78,139.75-169.91,241.41-85.69,337.91S1444.48,1883.61,1315.75,2014.37Z"/></clipPath><linearGradient id="linear-gradient-2" x1="3201.75" y1="548.13" x2="2691" y2="1999.74" gradientTransform="matrix(-1, 0, 0, 1, 4070.41, -17.64)" gradientUnits="userSpaceOnUse"><stop offset="0" stop-color="#ffc444"/><stop offset="1" stop-color="#f36f56"/></linearGradient><linearGradient id="linear-gradient-3" x1="-1225.97" y1="457.67" x2="-589.59" y2="2129.82" gradientTransform="matrix(-1, -0.07, -0.07, 1, 1659.39, 96.12)" gradientUnits="userSpaceOnUse"><stop offset="0" stop-color="#aa80f9"/><stop offset="1" stop-color="#6165d7"/></linearGradient><clipPath id="clip-path-3" transform="translate(-411.75 -369.02)"><path class="cls-1" d="M2420.17,2081.29,2215,2028.43s-52.86-153.73,23-194.7,46.81-188.59,40.45-269.11c-17.25-218.45,218.81-198.59,219.08-481.08.07-75.13-24.92-218.44,38.42-278.28,72.17-68.18,124.86-1.3,171.26-58.31,72.52-89.11,190.21-121.07,260.37-29.37,69.24,90.51-14.89,270.68-224,415.49C2605.23,1254,2603.07,1290.14,2614,1378.26c7.62,61.73,66.51,222.54-17.28,286.75s-147.82,133.6-115.54,203.31C2530.24,1974.4,2420.17,2081.29,2420.17,2081.29Z"/></clipPath><clipPath id="clip-path-4" transform="translate(-411.75 -369.02)"><path class="cls-1" d="M2147.92,2396.63l244.82,76.74s85.44-111.14,53.23-218.58c-65.73-219.19,130.84-261.46,210.52-291.48,120.17-45.28,206.32-137.58,79.26-229.34s84.44-267,289.05-312.11C3225,1377.68,3262,996.27,2819.89,1052.1c-264,33.34-304.61,289.49-355.85,414s-244.89,75.41-228.75,252.16c13.78,151,89,281.48-20.47,348S2064.75,2233.07,2147.92,2396.63Z"/></clipPath><linearGradient id="linear-gradient-4" x1="5922.88" y1="417.72" x2="5412.11" y2="1869.37" gradientTransform="matrix(0.95, 0.3, -0.3, 0.95, -2498.87, -1062.55)" gradientUnits="userSpaceOnUse"><stop offset="0" stop-color="#e38ddd"/><stop offset="1" stop-color="#9571f6"/></linearGradient><linearGradient id="linear-gradient-5" x1="1800.66" y1="1483.1" x2="2341.13" y2="2372.86" gradientTransform="matrix(-1, 0.02, 0.02, 1, 4470.29, 119.34)" xlink:href="#linear-gradient-2"/><clipPath id="clip-path-5" transform="translate(-411.75 -369.02)"><path class="cls-1" d="M2386.86,2529.14l-238.7,5.42c-14.67-33.48-33.84-95.41,15.75-111.91,69-22.94,66.89-145.37,46.5-188.08-25.25-52.86-81.51-177.16,24.52-214.3,88.27-30.92,151.55-32.83,154.28-147.78s63.19-188.46,167.47-184.81c109.74,3.84,195.1-144.7,286.32-98.67,158.94,80.19,25,337.41-162.88,416.48s-76.74,144.26-68.74,238c10.92,128-163.25,105.9-207.5,157.67C2369.2,2441.76,2377.52,2496,2386.86,2529.14Z"/></clipPath><linearGradient id="linear-gradient-6" x1="2780.25" y1="2617.82" x2="1577.62" y2="1591.93" gradientUnits="userSpaceOnUse"><stop offset="0" stop-color="#444b8c"/><stop offset="1" stop-color="#26264f"/></linearGradient><linearGradient id="linear-gradient-7" x1="-1242.08" y1="3165.02" x2="3189.59" y2="3329.87" gradientTransform="translate(-1389.03 1734.32) rotate(-90)" xlink:href="#linear-gradient-6"/><linearGradient id="linear-gradient-8" x1="1163.81" y1="1784.73" x2="2484.75" y2="1784.73" gradientTransform="matrix(1, 0, 0, 1, 0, 0)" xlink:href="#linear-gradient"/><linearGradient id="linear-gradient-9" x1="1578.87" y1="533.57" x2="2736.52" y2="2900.71" gradientTransform="matrix(1, 0, 0, 1, 0, 0)" xlink:href="#linear-gradient-3"/><linearGradient id="linear-gradient-10" x1="1420.05" y1="611.24" x2="2577.7" y2="2978.37" gradientTransform="matrix(1, 0, 0, 1, 0, 0)" xlink:href="#linear-gradient-3"/><linearGradient id="linear-gradient-11" x1="1131.12" y1="752.54" x2="2288.77" y2="3119.68" gradientTransform="matrix(1, 0, 0, 1, 0, 0)" xlink:href="#linear-gradient-3"/><linearGradient id="linear-gradient-12" x1="768.93" y1="929.67" x2="1926.58" y2="3296.81" gradientTransform="matrix(1, 0, 0, 1, 0, 0)" xlink:href="#linear-gradient-3"/><linearGradient id="linear-gradient-13" x1="894.21" y1="868.4" x2="2051.86" y2="3235.54" gradientTransform="matrix(1, 0, 0, 1, 0, 0)" xlink:href="#linear-gradient-3"/><linearGradient id="linear-gradient-14" x1="1018.48" y1="807.63" x2="2176.13" y2="3174.76" gradientTransform="matrix(1, 0, 0, 1, 0, 0)" xlink:href="#linear-gradient-3"/><linearGradient id="linear-gradient-15" x1="1141.75" y1="747.35" x2="2299.4" y2="3114.49" gradientTransform="matrix(1, 0, 0, 1, 0, 0)" xlink:href="#linear-gradient-3"/><linearGradient id="linear-gradient-16" x1="1264.03" y1="687.54" x2="2421.68" y2="3054.68" gradientTransform="matrix(1, 0, 0, 1, 0, 0)" xlink:href="#linear-gradient-3"/><linearGradient id="linear-gradient-17" x1="1766.85" y1="1736.16" x2="2525.83" y2="1736.16" gradientTransform="matrix(1, 0, 0, 1, 0, 0)" xlink:href="#linear-gradient"/><linearGradient id="linear-gradient-18" x1="1111.09" y1="2062.76" x2="1757.13" y2="2086.79" gradientTransform="matrix(1, 0, 0, 1, 0, 0)" xlink:href="#linear-gradient"/><linearGradient id="linear-gradient-19" x1="2423.74" y1="2450.15" x2="2502.02" y2="2351.03" gradientTransform="translate(5.45 79.46) rotate(-2.14)" xlink:href="#linear-gradient-3"/><linearGradient id="linear-gradient-20" x1="153.96" y1="3762.25" x2="282.73" y2="3762.25" gradientTransform="matrix(-0.94, 0.35, 0.35, 0.94, 2143.65, -451.67)" xlink:href="#linear-gradient-6"/><linearGradient id="linear-gradient-21" x1="726.29" y1="3945.51" x2="780.59" y2="3833.12" gradientTransform="matrix(-0.85, 0.53, 0.53, 0.85, 1784.97, -593.76)" xlink:href="#linear-gradient-2"/><linearGradient id="linear-gradient-22" x1="411.23" y1="3812.86" x2="540.01" y2="3812.86" gradientTransform="matrix(-0.93, 0.37, 0.37, 0.93, 2120.78, -460.78)" xlink:href="#linear-gradient-6"/><linearGradient id="linear-gradient-23" x1="928.11" y1="3951.16" x2="982.41" y2="3838.77" gradientTransform="matrix(-0.85, 0.53, 0.53, 0.85, 1784.97, -593.76)" xlink:href="#linear-gradient-2"/><linearGradient id="linear-gradient-24" x1="1949.76" y1="2877.08" x2="2265.52" y2="2477.26" gradientTransform="translate(5.45 79.46) rotate(-2.14)" xlink:href="#linear-gradient-3"/><linearGradient id="linear-gradient-25" x1="2043.34" y1="2834.35" x2="2354.12" y2="2440.82" gradientTransform="translate(26.96 49.49) rotate(-0.03)" xlink:href="#linear-gradient-3"/><linearGradient id="linear-gradient-26" x1="1808.23" y1="2922.68" x2="2127.3" y2="2518.65" gradientTransform="matrix(1, -0.04, 0.03, 0.9, 7.58, 140.26)" xlink:href="#linear-gradient-3"/><linearGradient id="linear-gradient-27" x1="1659.79" y1="3683.31" x2="2092.4" y2="3135.52" gradientTransform="translate(-203.63 383.42) rotate(-20.29)" xlink:href="#linear-gradient-6"/><linearGradient id="linear-gradient-28" x1="1907.17" y1="3188.28" x2="1416.86" y2="3731.39" gradientTransform="translate(-203.63 383.42) rotate(-20.29)" xlink:href="#linear-gradient-6"/><linearGradient id="linear-gradient-29" x1="2066.79" y1="3159.71" x2="1996.33" y2="2960.06" gradientTransform="translate(-539.62 -162.99) rotate(-11.08)" gradientUnits="userSpaceOnUse"><stop offset="0" stop-color="#311944"/><stop offset="1" stop-color="#893976"/></linearGradient><linearGradient id="linear-gradient-30" x1="1758.95" y1="2870.46" x2="1784.79" y2="3048.98" gradientTransform="translate(-127.87 206.03) rotate(-11.08)" xlink:href="#linear-gradient-29"/><linearGradient id="linear-gradient-31" x1="1767.09" y1="2906.49" x2="1913.13" y2="2906.49" gradientTransform="translate(-127.87 206.03) rotate(-11.08)" xlink:href="#linear-gradient-2"/><linearGradient id="linear-gradient-32" x1="2514.83" y1="2767.63" x2="2377.44" y2="2572.52" gradientTransform="matrix(1, -0.08, 0.08, 1, -52.09, 75.74)" xlink:href="#linear-gradient-6"/><linearGradient id="linear-gradient-33" x1="2251.29" y1="3090.51" x2="2551.96" y2="2479.76" gradientTransform="matrix(1, -0.08, 0.08, 1, -52.09, 75.74)" xlink:href="#linear-gradient-29"/><linearGradient id="linear-gradient-34" x1="2104.39" y1="2698.5" x2="2764.96" y2="2698.5" gradientTransform="matrix(1, -0.08, 0.08, 1, -52.09, 75.74)" xlink:href="#linear-gradient-29"/><linearGradient id="linear-gradient-35" x1="2580.62" y1="1621.31" x2="2595.17" y2="1233.85" gradientTransform="translate(398.23 -120.18) rotate(21.36)" xlink:href="#linear-gradient-2"/><linearGradient id="linear-gradient-36" x1="-88.84" y1="1867.69" x2="-226.83" y2="1517.22" gradientTransform="matrix(-0.98, -0.21, -0.21, 0.98, 2475.96, 414.76)" xlink:href="#linear-gradient-6"/><linearGradient id="linear-gradient-37" x1="1598.12" y1="1689.99" x2="1593.59" y2="2055.43" gradientTransform="matrix(0.99, 0.15, -0.15, 0.99, 992.2, 145.26)" xlink:href="#linear-gradient-2"/><linearGradient id="linear-gradient-38" x1="-135" y1="1833" x2="-233.73" y2="1582.26" gradientTransform="matrix(-0.98, -0.21, -0.21, 0.98, 2475.96, 414.76)" xlink:href="#linear-gradient-6"/><linearGradient id="linear-gradient-39" x1="-231.63" y1="1681.92" x2="-226.49" y2="1727.69" gradientTransform="matrix(-0.98, -0.21, -0.21, 0.98, 2475.96, 414.76)" gradientUnits="userSpaceOnUse"><stop offset="0" stop-color="#ffc444"/><stop offset="1" stop-color="#f36f56"/></linearGradient><linearGradient id="linear-gradient-40" x1="774.4" y1="1224.93" x2="1056.08" y2="1492.66" gradientTransform="matrix(0.95, 0.3, -0.3, 0.95, 179.61, -132.16)" xlink:href="#linear-gradient-3"/><linearGradient id="linear-gradient-41" x1="1104.26" y1="2979.55" x2="1186.49" y2="2979.55" gradientTransform="translate(-84.72 -32.23) rotate(6.16)" xlink:href="#linear-gradient-3"/><linearGradient id="linear-gradient-42" x1="1261.26" y1="3003.46" x2="1343.49" y2="3003.46" gradientTransform="translate(-84.72 -32.23) rotate(6.16)" xlink:href="#linear-gradient-3"/><linearGradient id="linear-gradient-43" x1="751.54" y1="2446.44" x2="1251.45" y2="2446.44" gradientTransform="translate(-179.44 43.82) rotate(-1)" xlink:href="#linear-gradient-6"/><linearGradient id="linear-gradient-44" x1="778.16" y1="2419.11" x2="1261" y2="2419.11" gradientTransform="translate(68.89 -44.29) rotate(5.92)" xlink:href="#linear-gradient-6"/><linearGradient id="linear-gradient-45" x1="1767.99" y1="1545.83" x2="829.42" y2="1051.22" gradientTransform="translate(68.89 -44.29) rotate(5.92)" gradientUnits="userSpaceOnUse"><stop offset="0" stop-color="#311944"/><stop offset="1" stop-color="#6b3976"/></linearGradient><linearGradient id="linear-gradient-46" x1="1757.28" y1="1566.15" x2="818.71" y2="1071.54" xlink:href="#linear-gradient-45"/><linearGradient id="linear-gradient-47" x1="1005.41" y1="1550.96" x2="1822" y2="2068.41" gradientTransform="translate(191.9 -160.84) rotate(14.31)" xlink:href="#linear-gradient-3"/><linearGradient id="linear-gradient-48" x1="930.93" y1="1502.78" x2="1704.93" y2="1993.24" gradientTransform="translate(68.89 -44.29) rotate(5.92)" xlink:href="#linear-gradient-3"/><linearGradient id="linear-gradient-49" x1="2123.06" y1="1325.96" x2="2138.03" y2="927.19" gradientTransform="matrix(-1, -0.02, -0.02, 1, 3063.37, 184.08)" xlink:href="#linear-gradient-2"/><linearGradient id="linear-gradient-50" x1="998.47" y1="1368.11" x2="1010.73" y2="1041.53" gradientTransform="translate(68.89 -44.29) rotate(5.92)" xlink:href="#linear-gradient-2"/><linearGradient id="linear-gradient-51" x1="2128.65" y1="1186.6" x2="2124.62" y2="1511.89" gradientTransform="matrix(-0.99, 0.16, 0.17, 1.03, 2789.71, -426.16)" xlink:href="#linear-gradient-2"/><linearGradient id="linear-gradient-52" x1="1788.65" y1="1506.64" x2="850.08" y2="1012.03" xlink:href="#linear-gradient-45"/><linearGradient id="linear-gradient-53" x1="1287.4" y1="1355.58" x2="1750.38" y2="1648.95" gradientTransform="matrix(0.95, 0.3, -0.3, 0.95, 179.61, -132.16)" xlink:href="#linear-gradient-3"/><linearGradient id="linear-gradient-54" x1="1768.93" y1="1544.03" x2="830.36" y2="1049.42" xlink:href="#linear-gradient-45"/><linearGradient id="linear-gradient-55" x1="1148.85" y1="1334.24" x2="1060.95" y2="1438" gradientTransform="matrix(0.95, 0.3, -0.3, 0.95, 179.61, -132.16)" xlink:href="#linear-gradient-2"/><linearGradient id="linear-gradient-56" x1="854.52" y1="1501.96" x2="1337.32" y2="1501.96" gradientTransform="matrix(0.95, 0.3, -0.3, 0.95, 179.61, -132.16)" xlink:href="#linear-gradient"/><linearGradient id="linear-gradient-57" x1="-2106.61" y1="517.47" x2="-1938.16" y2="517.47" gradientTransform="matrix(0.62, 0.78, -0.78, 0.62, 2472.98, 2960)" xlink:href="#linear-gradient-2"/><linearGradient id="linear-gradient-58" x1="-1858.44" y1="4026.2" x2="-1689.98" y2="4026.2" gradientTransform="matrix(-0.79, 0.62, -0.62, -0.79, 1651.1, 5826.49)" xlink:href="#linear-gradient-2"/><linearGradient id="linear-gradient-59" x1="944.1" y1="1510.81" x2="822.48" y2="1772.65" gradientTransform="matrix(0.95, 0.3, -0.3, 0.95, 179.61, -132.16)" xlink:href="#linear-gradient-3"/></defs><g class="cls-2"><g id="Illustration"><path class="cls-3" d="M3234.93,1790.59c47.17,240.67,142.76,728.45-86,1054.75-408.8,583.1-1809.76,558.07-2423.62-196.17-42.87-52.68-402.42-509-292.9-1089.43C573.53,811.85,1415.67,270.75,2084,417.38c422.82,92.77,693.48,442.58,803.31,584.71C2934.09,1062.57,3148.13,1347.7,3234.93,1790.59Z" transform="translate(-411.75 -369.02)"/><path class="cls-4" d="M1005.76,1767.87l2.42,1.84c47.79,36.18,106.41,67.28,178.79,88.11l43.19,9.19c20.37-30.92,34.22-64-6-88-62.41-37.21-34.1-156.34-5-193.67,36-46.21,117.66-155.52,22.08-214.57-79.56-49.16-141-64.62-118.93-177.47S1101.1,995.72,998.47,976.88C890.46,957.05,839,793.65,740,819c-172.45,44.18-96.92,324.16,69.61,441.76s44,157.37,16,247.22c-38.16,122.66,136.69,138.5,168.78,198.56C1005.3,1726.88,1007.76,1748,1005.76,1767.87Z" transform="translate(-411.75 -369.02)"/><g class="cls-5"><g class="cls-6"><path class="cls-7" d="M1101.69,1825.32l5.17.23c16.94-377.87-149.59-762.11-434.61-1002.78l-3.33,4C952.73,1066.38,1118.56,1449,1101.69,1825.32Z" transform="translate(-411.75 -369.02)"/><path class="cls-7" d="M1093.28,1618.51l5,1.25c35.85-144.26,187.3-226,188.83-226.83l-2.42-4.57C1283.16,1389.18,1129.7,1472,1093.28,1618.51Z" transform="translate(-411.75 -369.02)"/><path class="cls-7" d="M1102.91,1755.72l5-1.28c-37.45-146-298.67-230.24-301.3-231.08l-1.57,4.94C807.66,1529.12,1066.17,1612.52,1102.91,1755.72Z" transform="translate(-411.75 -369.02)"/><path class="cls-7" d="M992.62,1261.7l5.1-.85C978,1142.93,1088.18,996.4,1089.3,994.94l-4.12-3.14C1084.05,993.29,972.53,1141.6,992.62,1261.7Z" transform="translate(-411.75 -369.02)"/><path class="cls-7" d="M874.56,1052.48l3.69-3.62C782.83,951.64,598.87,946.53,597,946.49l-.11,5.17C598.73,951.7,780.62,956.78,874.56,1052.48Z" transform="translate(-411.75 -369.02)"/></g></g><g class="cls-8"><path class="cls-9" d="M1315.75,2014.37l-256.55-.87s-47.85-131.77,15.34-224.44C1203.46,1600,1028.87,1500.28,962,1447.57c-100.85-79.48-145.07-181.89-23.23-247.81C1076.6,1125.18,956,925,774.62,820.11c-177.49-102.64-97.45-477.39,307.11-290.5,241.6,111.61,202.83,368,214,502.18s210.62,145.93,141.8,309.52c-58.78,139.75-169.91,241.41-85.69,337.91S1444.48,1883.61,1315.75,2014.37Z" transform="translate(-411.75 -369.02)"/><g class="cls-6"><path class="cls-10" d="M1204.64,2037.8l-5.33-1c.62-3.3,61.1-333.67,22.31-679.26-35.73-318.39-165.5-715.21-580.74-797.63l1-5.31C826.78,591.3,971.4,692.25,1071.76,854.67c80.18,129.75,132.42,298.77,155.26,502.38C1265.88,1703.43,1205.25,2034.5,1204.64,2037.8Z" transform="translate(-411.75 -369.02)"/><path class="cls-10" d="M1110.77,924.36l-5.37-.69c22.88-178.81-44.41-433.15-45.09-435.7l5.23-1.4C1066.22,489.13,1133.79,744.5,1110.77,924.36Z" transform="translate(-411.75 -369.02)"/><path class="cls-10" d="M1040.93,818C859,703.75,688.46,757.68,686.76,758.24l-1.69-5.14c1.73-.57,174.57-55.33,358.74,60.28Z" transform="translate(-411.75 -369.02)"/><path class="cls-10" d="M1234.67,1584.86C1175,1329.3,827.89,1265.5,824.46,1265.16l.17-5.41c3.41,0,355.1,66,415.32,323.88Z" transform="translate(-411.75 -369.02)"/><path class="cls-10" d="M1236.71,1476.67l-5.3-1.13c34.66-163.84,212.89-276,214.69-277.16l2.86,4.6C1447.18,1204.08,1270.88,1315.11,1236.71,1476.67Z" transform="translate(-411.75 -369.02)"/><path class="cls-10" d="M1207.68,1984.61c-7.47-99.41-149.1-178.59-150.53-179.38l2.61-4.75c5.94,3.28,145.63,81.38,153.33,183.73Z" transform="translate(-411.75 -369.02)"/><path class="cls-10" d="M1223.06,1906.57l-5.34-.93c13.54-77.66,131.28-163.82,170-192.13,5.46-4,10.18-7.46,10.9-8.24l4,3.61c-1,1.12-4.13,3.43-11.75,9C1352.64,1745.87,1236.22,1831.06,1223.06,1906.57Z" transform="translate(-411.75 -369.02)"/></g></g><path class="cls-11" d="M2481.13,1868.32c28.23,61,1.32,122-24.5,163-6.16,0-9.74,1.75-16,3.26-56.16,13.67-82.51,6.71-139.61,10.85-12.29.89-48.8-8.27-63.47-13l-27.2-9.38S2162.1,1874.7,2238,1833.73s46.81-188.59,40.45-269.11c-17.25-218.45,218.81-198.59,219.08-481.08.07-75.13-24.92-218.44,38.42-278.28,72.17-68.18,124.86-1.3,171.26-58.31,72.52-89.11,190.21-121.07,260.37-29.37,69.24,90.51-14.89,270.68-224,415.49C2605.23,1254,2603.07,1290.14,2614,1378.26c7.62,61.73,66.51,222.54-17.28,286.75S2448.84,1798.61,2481.13,1868.32Z" transform="translate(-411.75 -369.02)"/><g class="cls-12"><g class="cls-6"><path class="cls-7" d="M2330.78,2047.76l-4.17-.52c3.1-24.84,6.53-49.85,10.2-74.34,27.16-181.33,70.27-353.56,128.13-511.91,49-134.17,109.3-260.28,179.15-374.82,56.17-92.12,118.81-177.28,186.19-253.14,47.36-53.32,96.56-101.53,146.22-143.27,8.65-7.28,17.9-14.24,26.86-21,11.92-9,24.26-18.23,35.26-28.33l2.84,3.1c-11.15,10.24-23.57,19.57-35.58,28.59-8.91,6.7-18.12,13.62-26.68,20.82-49.5,41.62-98.55,89.68-145.78,142.85-67.21,75.67-129.7,160.63-185.75,252.54-69.7,114.3-129.86,240.16-178.79,374.08-57.76,158.08-100.8,330-127.92,511.08C2337.3,1998,2333.87,2023,2330.78,2047.76Z" transform="translate(-411.75 -369.02)"/><path class="cls-7" d="M2568.46,1231.2l-3.8-1.78c76.59-163.24,9.34-464.83,8.65-467.86l4.09-.93C2578.1,763.67,2645.67,1066.65,2568.46,1231.2Z" transform="translate(-411.75 -369.02)"/><path class="cls-7" d="M2394.24,1706.64l-4-1.33c39.07-117,258.17-207.36,260.37-208.26l1.59,3.89C2650,1501.83,2432.7,1591.44,2394.24,1706.64Z" transform="translate(-411.75 -369.02)"/><path class="cls-7" d="M2377.81,1775l-4.16-.6c11.59-79.7-15.18-194.59-75.39-323.49-3-6.48-3-6.48-2.92-7.27l4.16.55-2.08-.28,2-.52c.15.46,1.29,2.9,2.62,5.74C2362.62,1578.73,2389.52,1694.46,2377.81,1775Z" transform="translate(-411.75 -369.02)"/><path class="cls-7" d="M2337.07,2002.51l-3.81-1.76c37.36-80.46,165-112.22,166.33-112.53l1,4.08C2499.31,1892.61,2373.57,1923.9,2337.07,2002.51Z" transform="translate(-411.75 -369.02)"/><path class="cls-7" d="M2324.43,2048.09c-15.83-69.76-52.21-137.25-111.21-206.34l3.19-2.73c59.46,69.62,96.13,137.7,112.12,208.14Z" transform="translate(-411.75 -369.02)"/><path class="cls-7" d="M2794.47,881.15l-3.69-2c47.64-88.38,77.2-192.28,86.92-226.43,2.35-8.26,3.18-11.17,3.65-12.13l3.78,1.84c-.35.74-1.69,5.46-3.39,11.44C2872,688.13,2842.33,792.36,2794.47,881.15Z" transform="translate(-411.75 -369.02)"/><path class="cls-7" d="M2695.75,1013.4l-2.94-3c67.1-66.06,255.4-63.94,263.38-63.82l-.06,4.2C2954.19,950.76,2761.6,948.58,2695.75,1013.4Z" transform="translate(-411.75 -369.02)"/></g></g><g class="cls-13"><path class="cls-14" d="M2147.92,2396.63l244.82,76.74s85.44-111.14,53.23-218.58c-65.73-219.19,130.84-261.46,210.52-291.48,120.17-45.28,193.27-129.52,97.07-229.19-108.85-112.77,66.63-267.11,271.24-312.26C3225,1377.68,3262,996.27,2819.89,1052.1c-264,33.34-304.61,289.49-355.85,414s-244.89,75.41-228.75,252.16c13.78,151,89,281.48-20.47,348S2064.75,2233.07,2147.92,2396.63Z" transform="translate(-411.75 -369.02)"/><g class="cls-6"><path class="cls-10" d="M2246.76,2452.56l5.37.67c.41-3.33,42.64-336.53,184.1-654.23,130.32-292.68,374-631.7,794.71-584.72l.61-5.38c-187.3-20.91-355.67,31.6-500.44,156.07-115.65,99.43-216.55,244.76-299.88,431.93C2289.47,2115.33,2247.17,2449.23,2246.76,2452.56Z" transform="translate(-411.75 -369.02)"/><path class="cls-10" d="M2672.86,1419.6l5.33,1c32.25-177.36,173.28-399.46,174.7-401.68l-4.56-2.92C2846.9,1018.2,2705.3,1241.2,2672.86,1419.6Z" transform="translate(-411.75 -369.02)"/><path class="cls-10" d="M2771.59,1339.31c208-53.87,354.21,49.09,355.66,50.14l3.16-4.4c-1.47-1.06-149.67-105.51-360.17-51Z" transform="translate(-411.75 -369.02)"/><path class="cls-10" d="M2355.06,2011.74c134.16-225.56,484.3-181.44,487.68-180.73l1.46-5.21c-3.24-1-358.44-44.39-493.79,183.17Z" transform="translate(-411.75 -369.02)"/><path class="cls-10" d="M2385.83,1908l5.39.53c16.5-166.65-119.47-327.5-120.84-329.11l-4.12,3.53C2267.62,1584.53,2402.1,1743.66,2385.83,1908Z" transform="translate(-411.75 -369.02)"/><path class="cls-10" d="M2259.93,2400.94c37.18-92.51,196.13-125.16,197.73-125.48l-1.06-5.31c-6.65,1.32-163.42,33.53-201.69,128.77Z" transform="translate(-411.75 -369.02)"/><path class="cls-10" d="M2268.87,2321.9l5.37.73c10.58-78.12-75.61-195.85-103.93-234.53-4-5.47-7.46-10.19-7.91-11.15l-4.94,2.22c.62,1.37,2.91,4.51,8.48,12.13C2193.94,2129.55,2279.16,2246,2268.87,2321.9Z" transform="translate(-411.75 -369.02)"/></g></g><path class="cls-15" d="M2379.65,2458.64l-2.76,1.28c-54.45,25.07-118.38,42.85-193.54,47.64l-44.16-.3c-13.26-34.58-19.68-69.84,24.72-84.61,69-22.94,66.89-145.37,46.5-188.08-25.25-52.86-81.51-177.16,24.52-214.3,88.27-30.92,151.55-32.83,154.28-147.78s63.19-188.46,167.47-184.81c109.74,3.84,195.1-144.7,286.32-98.67,158.94,80.19,25,337.41-162.88,416.48s-76.74,144.26-68.74,238c10.92,128-163.25,105.9-207.5,157.67C2388.9,2418.71,2382,2438.8,2379.65,2458.64Z" transform="translate(-411.75 -369.02)"/><g class="cls-16"><g class="cls-6"><path class="cls-7" d="M2273.61,2494.14l-5.09-.88c64.62-372.69,309.8-712.19,639.87-886l2.41,4.58C2582.12,1784.92,2338,2123,2273.61,2494.14Z" transform="translate(-411.75 -369.02)"/><path class="cls-7" d="M2326.25,2294l-5.17.14c-4-148.6-134.38-261-135.69-262.1l3.35-3.94C2190.07,2029.2,2322.16,2143,2326.25,2294Z" transform="translate(-411.75 -369.02)"/><path class="cls-7" d="M2287.37,2425.91l-4.62-2.33c67.94-134.53,341.16-160.71,343.92-161l.46,5.15C2624.41,2268,2354,2293.94,2287.37,2425.91Z" transform="translate(-411.75 -369.02)"/><path class="cls-7" d="M2501.21,1967.11l-4.8-1.93c44.59-110.93-31.54-277.7-32.31-279.37l4.69-2.18C2469.57,1685.32,2546.63,1854.13,2501.21,1967.11Z" transform="translate(-411.75 -369.02)"/><path class="cls-7" d="M2661.46,1788.14l-2.83-4.34c114.08-74.44,294.84-39.92,296.66-39.56l-1,5.08C2952.49,1749,2773.76,1714.85,2661.46,1788.14Z" transform="translate(-411.75 -369.02)"/></g></g><path class="cls-17" d="M2487,481.07V2994.25c0,37.58-32.1,45.67-68.51,46.86l-1247.9,64.54-18.91.62a68.15,68.15,0,0,1-70.58-68.4V437.45a68.13,68.13,0,0,1,70.58-68.39l25.66.84,1252.47,97.41C2466.17,468.5,2487,443.49,2487,481.07Z" transform="translate(-411.75 -369.02)"/><path class="cls-18" d="M2525.83,481.07V2994.25c0,37.58-29.74,69.3-66.15,70.5l-1269.17,41.52a68.15,68.15,0,0,1-70.59-68.4V437.45a68.13,68.13,0,0,1,70.59-68.39l1269.17,41.52C2496.09,411.77,2525.83,443.49,2525.83,481.07Z" transform="translate(-411.75 -369.02)"/><path class="cls-19" d="M2484.75,619.23V2947.39c0,35.09-27.79,64.67-61.81,65.74l-1193.43,37.49a63.55,63.55,0,0,1-65.7-63.81v-2404a63.73,63.73,0,0,1,65.7-64l1193.43,34.8C2457,554.63,2484.75,584.15,2484.75,619.23Z" transform="translate(-411.75 -369.02)"/><path class="cls-20" d="M1858.44,468a22.92,22.92,0,0,1-23.57,23.26c-13-.39-23.6-11.46-23.6-24.72a22.92,22.92,0,0,1,23.6-23.26C1847.89,443.73,1858.44,454.79,1858.44,468Z" transform="translate(-411.75 -369.02)"/><path class="cls-3" d="M2299.55,2033.08l-953.13,12.78a21.48,21.48,0,0,1-21.83-21.54V1815.61a22,22,0,0,1,21.83-22l953.13-6.45a20.84,20.84,0,0,1,20.73,21.13v203.24C2320.28,2023.28,2311,2032.93,2299.55,2033.08Z" transform="translate(-411.75 -369.02)"/><path class="cls-3" d="M2297.39,2417.52,1348.7,2440.1a23.45,23.45,0,0,1-24.11-23.55V2212.4a24.62,24.62,0,0,1,24.11-24.53l948.69-16.27c12.64-.22,22.89,10.12,22.89,23.09v198.79C2320.28,2406.46,2310,2417.22,2297.39,2417.52Z" transform="translate(-411.75 -369.02)"/><path class="cls-21" d="M2203.31,1163.55c0,209.49-166.63,379.33-374.26,379.37-210,0-381.9-173.22-381.9-387s171.94-383.55,381.9-379.29C2036.68,780.87,2203.31,954.07,2203.31,1163.55Z" transform="translate(-411.75 -369.02)"/><path class="cls-22" d="M1983.36,1046.25c0,86.31-68.92,155.64-154.21,154.84-85.61-.8-155.24-71.89-155.24-158.78s69.63-156.21,155.24-154.83C1914.44,888.85,1983.36,959.93,1983.36,1046.25Z" transform="translate(-411.75 -369.02)"/><path class="cls-23" d="M1829.05,1542.92a370.11,370.11,0,0,0,240.32-88.17c-22.06-114.11-120.95-200.9-240.32-201.8-120.15-.91-220.84,85.38-243.45,200.74C1651.89,1509.46,1736.81,1542.93,1829.05,1542.92Z" transform="translate(-411.75 -369.02)"/><path class="cls-24" d="M1960.24,1944.31,1440.05,1950a31.92,31.92,0,0,1-32.19-31.93h0a32.71,32.71,0,0,1,32.19-32.59l520.19-4.79c17.2-.15,31.26,14,31.26,31.51h0C1991.5,1929.66,1977.44,1944.12,1960.24,1944.31Z" transform="translate(-411.75 -369.02)"/><path class="cls-25" d="M1485.69,2310.62a42.09,42.09,0,0,1-41,42,40.06,40.06,0,0,1-41-40.28,42.1,42.1,0,0,1,41-42A40.06,40.06,0,0,1,1485.69,2310.62Z" transform="translate(-411.75 -369.02)"/><path class="cls-26" d="M1639.07,2307.48c0,22.6-18.18,41.31-40.62,41.79a39.82,39.82,0,0,1-40.71-40.13,41.84,41.84,0,0,1,40.71-41.79A39.83,39.83,0,0,1,1639.07,2307.48Z" transform="translate(-411.75 -369.02)"/><path class="cls-27" d="M1791.2,2304.37c0,22.5-18,41.13-40.29,41.61a39.58,39.58,0,0,1-40.38-40c0-22.56,18.09-41.19,40.38-41.62A39.58,39.58,0,0,1,1791.2,2304.37Z" transform="translate(-411.75 -369.02)"/><path class="cls-28" d="M1942.12,2301.28c0,22.41-17.89,41-40,41.45s-40.05-17.35-40.05-39.81,17.94-41,40.05-41.45S1942.12,2278.87,1942.12,2301.28Z" transform="translate(-411.75 -369.02)"/><path class="cls-29" d="M2091.82,2298.22c0,22.32-17.74,40.8-39.65,41.27s-39.73-17.28-39.73-39.65,17.8-40.85,39.73-41.28S2091.82,2275.89,2091.82,2298.22Z" transform="translate(-411.75 -369.02)"/><path class="cls-21" d="M1829,1552.22c-104.14,0-202.24-41.22-276.24-116.08s-114.9-174.46-114.9-280.2c0-106.63,41.4-205.92,116.57-279.58,73.87-72.39,171.44-111.12,274.81-109,102.79,2.08,199.21,44.46,271.5,119.31a396.64,396.64,0,0,1,111.88,276.88c0,103.88-39.76,201.46-111.94,274.76-72.33,73.43-168.8,113.89-271.62,113.91Zm-7.72-766.34c-95.49,0-185.36,36.67-253.83,103.76-71.57,70.13-111,164.71-111,266.3,0,100.81,38.9,195.68,109.53,267.12,70.48,71.29,163.89,110.56,263,110.56h0c201.25,0,365-166,365-370.07S2030.2,790,1828.86,786C1826.33,785.9,1823.79,785.88,1821.27,785.88Z" transform="translate(-411.75 -369.02)"/><path class="cls-30" d="M2525.83,479.64A69.13,69.13,0,0,0,2459,410.55l-692.12-22.64c256.72,272.06,314.45,500.32,321,656.3,18.8,445.24-364.76,639.22-293.44,1126.14,19.55,133.48,62.79,217.32,79.68,447.91a2199.94,2199.94,0,0,1-15.65,466.15l601.2-19.67c36.41-1.19,66.15-32.91,66.15-70.49Z" transform="translate(-411.75 -369.02)"/><path class="cls-31" d="M1501.06,1734c7.3-214.47-66.19-304.13-85.66-326.09-13.76-15.51-26.5-26.5-121.6-105-70.65-58.33-129.53-106.68-171.33-140.94l-2.55,1802.43c28.47-230.61,83.2-404.53,124.83-515.58C1361.3,2137.89,1491.7,2009.14,1501.06,1734Z" transform="translate(-411.75 -369.02)"/><path class="cls-32" d="M2722.94,2587.9c41.63-25.15,24.18-158.4-37-250.19-86.87-130.35-268.73-187.32-304-146.21-36.13,42.07,78,190.66,96.5,214.79C2545.63,2493.85,2673.7,2617.65,2722.94,2587.9Z" transform="translate(-411.75 -369.02)"/><path class="cls-33" d="M3195.62,3139.06c-7.13,9.44-7.5,25.69.08,33s17.11.44,46-1.27c31-1.83,39.69,4.75,60.17-2.91,8.27-3.1,22.75-10.12,21.92-16.15-.58-4.25-8.4-5.77-34.63-12-37.24-8.89-37.14-9.57-44.93-10.16C3224.69,3128.08,3205,3126.59,3195.62,3139.06Z" transform="translate(-411.75 -369.02)"/><path class="cls-34" d="M3195,3088l32.54,43.14c-.14,3-11.77,17.18-26.53,16.39l-39.09-39.1Z" transform="translate(-411.75 -369.02)"/><path class="cls-35" d="M3027.55,3248.9c-6.94,9.59-7,25.84.77,33s17.11.08,46-2.24c30.93-2.48,39.78,3.91,60.09-4.18,8.21-3.27,22.53-10.59,21.58-16.61-.66-4.23-8.52-5.58-34.88-11.29-37.41-8.11-37.32-8.79-45.13-9.21C3056.38,3237.31,3036.7,3236.23,3027.55,3248.9Z" transform="translate(-411.75 -369.02)"/><path class="cls-36" d="M3026.29,3198.84l32.53,43.14c-.14,3-11.76,17.18-26.53,16.38l-39.08-39.1Z" transform="translate(-411.75 -369.02)"/><path class="cls-37" d="M2041.26,2212.9a675.14,675.14,0,0,1,216.18-44.47c104.52-3.89,188.46-7,248.27,40.21,199,157.15,101.45,571.28,87.06,617.35-17.1,54.79-49.63,92-49.63,92a234.86,234.86,0,0,1-49,42.24c-149.68,99-242.73,160.61-341,135.45-13.07-3.35-72.47-24-105.25-73.37-5.85-8.81-9.5-20.1-10.43-35.87C2022.18,2725.76,2052.92,2464,2041.26,2212.9Z" transform="translate(-411.75 -369.02)"/><path class="cls-38" d="M2127.08,2523.62c-20-54.58.67-117.08-43.8-144.34-16.3-10-36.55-14.21-58.6-13.72,2.73,191.89,6.6,383.6,11.36,583.85,1.57,66.15,9.85,69.42,74,127.35,74.32,67.13,135.48,45.48,245.27,23.46-143.85-88.37-179.62-136.43-165-215,17.07-91.46,184.53-118.54,177.76-183.56C2360.92,2632.79,2170.73,2642.94,2127.08,2523.62Z" transform="translate(-411.75 -369.02)"/><path class="cls-39" d="M2087.16,2216.37c-49.41-27.6-163,50.91-225.12,118.61-28.86,31.46-129.33,141-98.08,281.93,5.09,23,28.6,130.35,133.24,179.47,93.68,44,217.33,27.14,314.25-43.74q19.77-17.07,39.55-34.14l38.65-40.58a333,333,0,0,0-108.86-49.09c-77.24-19.37-112,7.76-131.09-13.27-23.5-25.89,28.89-70.53,42.62-184.51C2096,2400.29,2142.36,2247.2,2087.16,2216.37Z" transform="translate(-411.75 -369.02)"/><path class="cls-40" d="M2176.87,3064.2c6.08,108.6,46.91,48.45,139.34-49,97.34-102.62,326.36-283,479.23-214.13,113.85,51.29,102.8,203,284.81,298.21a446.6,446.6,0,0,0,77.38,31.62l59.15-54.71c-10.58-56.71-57.81-273-255.28-409.26-47.75-33-138.86-96.43-254.07-94.95C2396,2576,2171.26,2964,2176.87,3064.2Z" transform="translate(-411.75 -369.02)"/><path class="cls-41" d="M2033.37,3013.82c1.3,63.19,42.56,121.11,89,149.39,103.19,62.78,257.72-5,344.27-74.22,105.32-84.27,105.28-166.84,159.1-166.43,83.62.63,98.2,200.59,284.81,298.21a447.09,447.09,0,0,0,77.38,31.62l59.15-54.71c-32.37-122.45-82.47-211.43-119.41-266.81-46.09-69.07-90.45-135.55-176.35-183.74-90.45-50.74-176.87-53.09-213.59-53.66C2306.15,2689.86,2030,2849,2033.37,3013.82Z" transform="translate(-411.75 -369.02)"/><polygon class="cls-42" points="2250.39 2265.24 1677.01 2368.64 1843.4 2412.24 2259.15 2302.22 2250.39 2265.24"/><path class="cls-43" d="M2071.56,2756.8h0a25.91,25.91,0,0,0,21.43,20.63l196.7,35.85-8.89-49.81-192-25.82A16.11,16.11,0,0,0,2071.56,2756.8Z" transform="translate(-411.75 -369.02)"/><path class="cls-44" d="M2163.69,2711.8c-3.67-.1,8.9-45.18,26-43.61s105.18,31.93,116.06,49.4l10.89,17.47s-34,9.45-56.78,6.45S2193.46,2712.58,2163.69,2711.8Z" transform="translate(-411.75 -369.02)"/><path class="cls-45" d="M2263.23,2405.66l-12.58,375.92c-.44,13,19,30.77,31.91,29.17l597.86-82.57a21.12,21.12,0,0,0,18.43-19l48-365.8c1.25-13.28-23.33-25-36.6-23.64l-628.11,65.59A21.12,21.12,0,0,0,2263.23,2405.66Z" transform="translate(-411.75 -369.02)"/><path class="cls-46" d="M2277.79,2415.49l-12.59,375.92a21.13,21.13,0,0,0,23.71,21.67L2895,2738a21.11,21.11,0,0,0,18.43-19L2948,2352.59a21.13,21.13,0,0,0-23.22-23l-628.11,65.59A21.11,21.11,0,0,0,2277.79,2415.49Z" transform="translate(-411.75 -369.02)"/><path class="cls-47" d="M2656.26,2668.31c-54.83-18.47-39.35-62.83-106.13-111.54-88.11-64.28-170.12-27.26-203.8-79.71-10.49-16.33-16.9-42.5-4.15-86.62l-45.48,4.75a21.11,21.11,0,0,0-18.91,20.3l-12.59,375.92a21.13,21.13,0,0,0,23.71,21.67L2895,2738a21.11,21.11,0,0,0,18.43-19l4.78-50.57a230.27,230.27,0,0,0-68.13-19.79C2759.44,2637.37,2719.37,2689.57,2656.26,2668.31Z" transform="translate(-411.75 -369.02)"/><path class="cls-48" d="M2261.85,2025.27a453,453,0,0,1-4.7,90.83c-3.78,24.28-6.92,30.64-11,35.86,0,0-1.31,1.65-2.79,3.13-3.78,3.77-51.32,13-65.32,16.3-1.48.35-28.92,7-36.79,21.77a2.57,2.57,0,0,0-.29.83c-2.71,14.75,81.55,61.52,166.23,46.32,51.82-9.3,98.11-40.79,94.61-56.3s-55.24-5.22-71.81-33.06c-11.53-19.36-.48-47.88,12.94-71.66C2328.08,2053.87,2276.67,2050.69,2261.85,2025.27Z" transform="translate(-411.75 -369.02)"/><path class="cls-49" d="M2373,2070.45c33.11-9.61,54.47-123.64,26.61-137.42-13.32-6.6-23.19,17-76.29,38.14-42.5,16.91-60.46,11.45-72.22,30.1-11.62,18.42-4.48,45.1-.82,64,1.59,8.21,6.9,12.08,11.09,18.95,5.81,9.52,14.85,24.62,29.51,49.77a138.08,138.08,0,0,1,12.26-20.44c2.1-2.87,10.44-14.07,35.1-30.83C2354,2072,2369.23,2071.55,2373,2070.45Z" transform="translate(-411.75 -369.02)"/><path class="cls-50" d="M2267.29,2110.37s13.64,39.8,56.82,46.43c38.66,5.94,63.12-78.3,42.78-101.82-6.79-7.84-22.5-13.94-36.54-13.16-8.3.47-11.66,3.13-25.22,3.62-12.52.46-15.57-1.59-19.81.62-5.3,2.78-10.61,11.28-8.67,37.91-5.65-9-13.75-13.72-20.58-12.17a13.31,13.31,0,0,0-6.17,3.83C2242.42,2084.21,2248.58,2098.65,2267.29,2110.37Z" transform="translate(-411.75 -369.02)"/><path class="cls-51" d="M2284.72,2040.57c1.54,1.78-5.59,7.39-8.16,17-5,18.66,9.1,45.48,28.13,51.7,11.25,3.67,15.95-2.56,35.4-.37a89.16,89.16,0,0,1,27.38,7.72c1.41,22-8.76,41.35-24.68,47.85-17.14,7-34.76-3.43-42.12-7.79-4.93-2.92-20.72-12.24-26.17-29.82-5.68-18.31,5.58-26.11-2.62-39.46-4.14-6.74-10.65-10.7-15.14-23a54.32,54.32,0,0,1-2.27-8.09C2266.61,2048.11,2282.5,2038,2284.72,2040.57Z" transform="translate(-411.75 -369.02)"/><path class="cls-52" d="M2352,2121.24s-9.18,2.48-23.23-1.46c-.68-.19-1.49-.16-1.66.18-.62,1.28,7.16,9.34,16.09,8.84,6.34-.37,12.24-5,11.75-6.6C2354.69,2121.51,2353.33,2121.29,2352,2121.24Z" transform="translate(-411.75 -369.02)"/><path class="cls-53" d="M459.25,1669.62c-15.89-46.68-4.76-100.34,19.77-137.85,41.44-63.37,95.45-41.35,149.55-111.63,35-45.46,66.84-84.29,105.7-113.37,28.58-21.39,96.22-45.62,122.65-28.8,79.06,50.33-66,478.85-225.94,503.24C567,1791,483.14,1739.78,459.25,1669.62Z" transform="translate(-411.75 -369.02)"/><path class="cls-54" d="M762.64,3022.83a111,111,0,0,1,10.25,38.62,108.76,108.76,0,0,1-.25,19.38C768,3087.67,746.3,3111.16,717,3117c-18.13,3.59-47.51-11.78-14.22-32.58s38.26-25.8,28.48-79c-2.52-13.68-1.53-18.69.62-19.65C736.9,2983.5,751.19,3004.48,762.64,3022.83Z" transform="translate(-411.75 -369.02)"/><path class="cls-55" d="M916.17,3063.44a111.07,111.07,0,0,1,10.25,38.62,108.74,108.74,0,0,1-.25,19.38c-4.64,6.84-26.34,30.33-55.64,36.13-18.13,3.59-47.51-11.78-14.22-32.58s38.26-25.81,28.48-79c-2.52-13.68-1.53-18.69.62-19.65C890.43,3024.11,904.72,3045.09,916.17,3063.44Z" transform="translate(-411.75 -369.02)"/><path class="cls-56" d="M1075.84,1952.62q16.52,100.55,33,201.09a1903.28,1903.28,0,0,0-65.52,207.11C974.73,2630.34,932,2889.93,928.82,3075.88l-45.31,16.39c-27.06-102.18-18.89-256.69-43-438.89-28.42-215.26-9.09-383.54-19-384.13-9.48-.57-36.05,153.49-36.09,329.42-.05,186-21.45,335.71-7.66,443.21l-54.28,3.24c-50.12-142.16-72-311.52-97.38-535.47-17.62-155.52-38.41-362.12,65.49-575.28,10.37-21.28,46.59-68.53,53.38-80.21C864.18,1877,956.69,1929.83,1075.84,1952.62Z" transform="translate(-411.75 -369.02)"/><path class="cls-57" d="M1043.34,2360.82a1903.28,1903.28,0,0,1,65.52-207.11q-16.52-100.55-33-201.09C956.69,1929.83,864.18,1877,745,1854.16c-6.79,11.68-43,58.93-53.38,80.21-35,71.86-55.84,143-67.43,211.62,230.51-2.52,297.22,45.48,315.59,89.72,29.23,70.44-59.68,141.86-28.22,284.41,9.46,42.87,23.59,64,25.25,117.7,2.17,70.47-20.83,77.3-24.43,149-3.94,78.44-31.11,155.1-18.37,210.7a683.1,683.1,0,0,0,24.32,82.15l10.46-3.78C932,2889.93,974.73,2630.34,1043.34,2360.82Z" transform="translate(-411.75 -369.02)"/><path class="cls-58" d="M977.07,1022.45c7.39,9.88-3.59,23.13-5.78,71.37a341.63,341.63,0,0,0,1.81,53.71c.42,11.89,1.1,22.91,2,32.65.68,7.15,1.41,12.73,2.44,18.68a227.93,227.93,0,0,0,8.1,32.49,1.4,1.4,0,0,1-.78,1.73l-.12.05a1.42,1.42,0,0,1-1.78-.9,231.86,231.86,0,0,1-8.2-32.89c-1-6-1.77-11.67-2.46-18.89-.49-5.13-.9-10.64-1.25-16.41a152.07,152.07,0,0,0,3.5,54.43c16.41,68.07-36.43,112.88-78.07,114.69-48,2.07-80.59-36-90.66-48.44-40.58-50.2-48.39-132-10.22-191.84C845.61,1014.5,959,998.24,977.07,1022.45Z" transform="translate(-411.75 -369.02)"/><path class="cls-59" d="M855.62,1088c2.06-7.61,11.35-38.64,39.75-58.09,53.88-36.9,140.25-7.29,189.77,36.17,51.81,45.47,30.26,76.93,81.2,127.43,55.32,54.84,94.14,30.89,171,83.87,30.25,20.83,111.76,77,117.21,164.6,4.7,75.7-48.83,151.51-114.34,180.75-112.15,50.08-252.6-39.34-318.86-121.58-63.56-78.87-20.68-98.17-111-250.49C877.67,1195.57,840.27,1144.85,855.62,1088Z" transform="translate(-411.75 -369.02)"/><path class="cls-60" d="M774.8,1308.79c-41,41.47-52,91.33-55.22,113.61-10,69.32,17.18,125.87,23.58,140.72,30.21,70.18,19.08,208.5-157,506.36,16.74,13.95,74.45,117.23,101.75,67.7,37.22-67.52,206.06-542.64,43.22,20.4-2.15,7.42,14.45,5.93,22,8.74a530.36,530.36,0,0,0,192.85,34c115.67-1.44,203.81-40.64,250.41-65.85a1058.24,1058.24,0,0,1-78.83-294.37c-27-230.84,29.18-417,68.33-517.4-35.7-24.68-148.77-96.15-282.56-73C870,1255.38,818,1265.1,774.8,1308.79Z" transform="translate(-411.75 -369.02)"/><path class="cls-61" d="M1117.53,1840.08c-27-230.84,29.18-417,68.33-517.4-35.7-24.68-148.77-96.15-282.56-73-33.34,5.75-85.35,15.47-128.5,59.16-32.61,33-46.23,71.31-52.06,96.81,1-.17,2.38-.39,4-.62,82.39-11.38,177.55,54.91,210.08,117.62,54.29,104.64-70.6,190.14-67.47,356,1.69,89.65,40.65,195.65,159.77,314a549.46,549.46,0,0,0,167.22-58.16A1058.34,1058.34,0,0,1,1117.53,1840.08Z" transform="translate(-411.75 -369.02)"/><path class="cls-62" d="M934.58,1166.61c-11.74,23.82-21.65,53.62-8.73,73.61,7.88,12.18,20.91,19,33.78,25.36,30.42,15.11,44.53,9,50.54,18.14,13.21,20.17-24.21,97.17-85.24,103.86-60.74,6.65-115.7-59.53-106.56-87.48,8.25-25.22,68-17.31,78.73-49.19,5.38-16-4.47-33.86-13.12-45.93l-7.15.63Z" transform="translate(-411.75 -369.02)"/><path class="cls-63" d="M1010.17,1283.72c-6-9.17-20.12-3-50.54-18.14-12.87-6.39-25.9-13.18-33.78-25.36-12.92-20-3-49.79,8.73-73.61l-57.75,39L884,1205c6.87,9.58,14.36,22.78,14.52,35.84a49.78,49.78,0,0,1,10.25,9.18,132.65,132.65,0,0,0-11.7,41.61c-1.61,15-2.81,26.07,3.6,36.57,7,11.45,19,15.47,29.43,19,23.24,7.8,45,5.21,59.23,1.79C1009,1324.29,1017.59,1295.05,1010.17,1283.72Z" transform="translate(-411.75 -369.02)"/><path class="cls-64" d="M923.92,1189.56s2,30.6-27.75,35.72c-36.68,6.31-56.9-89.89-48.89-96.92,9.28-8.14,21,6.07,44.14-3.42,9.76-4,16.36-18.51,23.84-5.31,8.52,15,8.3,44.17,8.3,44.17s7.52-8.64,10.3-.21C937.5,1174.62,930.18,1183.12,923.92,1189.56Z" transform="translate(-411.75 -369.02)"/><path class="cls-65" d="M869.19,1078.15c-13,10.76-21.88,33.34-15,45.87,10,18,46.38,4,58.4,26.06,5.27,9.64,3.62,22.1,6.85,22.23,2.69.11,5.16-8.39,7.43-15.35,12.53-38.4,22.77-41.79,21-53.34C944.18,1080.13,895.86,1056.05,869.19,1078.15Z" transform="translate(-411.75 -369.02)"/><path class="cls-66" d="M1084.77,1319.38c40.46,2.56,44.52-9.57,89.3,23.24,128.6,94.2,212,359.92,84.49,488.34-70.92,71.43-200.36,115-310.47,60.52-89.63-44.38-122.7-132.12-130.72-155.61q2.21-35.32,4.42-70.66c50.35,54.32,93.61,68,125,69.72,53.41,2.86,75.6-29,167-34,35.59-2,55.47,1.59,59.61-8.09,8.58-20-69.08-52.28-105.66-111.63C1041,1537.91,1024.85,1461.86,1084.77,1319.38Z" transform="translate(-411.75 -369.02)"/><path class="cls-67" d="M927,1120.64c-9.12,8.11,5.78,39.61,35.95,102.3,18.56,38.58,27.85,57.88,34.21,66.46,34.26,46.22,96.08,85.49,162.38,88.66,45.5,2.17,53.92-14.53,90.37-4.5,55,15.13,82,65.85,84.79,63.62,3.09-2.47-26.76-66.9-94.06-125-55.06-47.55-72.5-36.74-159.84-103.75-6.33-4.86-33.15-25.56-71.29-49.68C964.61,1130.37,936,1112.58,927,1120.64Z" transform="translate(-411.75 -369.02)"/><path class="cls-68" d="M569,1475.52l93.51,231.35a14.85,14.85,0,0,0,9.42,9l107.81,34.24a14.82,14.82,0,0,0,18.82-17.9l-57.64-218.73c-1.32-5-5.09-16.12-14.63-19.15l-131.32-38C583.22,1452.9,564.71,1464.07,569,1475.52Z" transform="translate(-411.75 -369.02)"/><path class="cls-69" d="M567.76,1479.18l82.8,223.91a14.85,14.85,0,0,0,9.42,9l107.8,34.24a14.82,14.82,0,0,0,18.82-17.9L729,1509.69a14.83,14.83,0,0,0-10.12-10.44l-133-39.42A14.82,14.82,0,0,0,567.76,1479.18Z" transform="translate(-411.75 -369.02)"/><path class="cls-70" d="M827.55,1684.15l-11.34-10.58s-16.12-22-28.26-32.73-24-12.82-36.92-2.55-1.94,27.27,7.38,42.09c5.67,9,21.65,14.74,35,18.2,9.35,2.43,25.73,14.64,25.73,14.64Z" transform="translate(-411.75 -369.02)"/><path class="cls-71" d="M580.34,1582.93,591,1571.68s22.18-15.94,33-28,13-23.93,2.86-36.9-27.25-2.17-42.15,7c-9.07,5.6-14.92,21.53-18.48,34.8-2.51,9.34-14.85,25.61-14.85,25.61Z" transform="translate(-411.75 -369.02)"/><path class="cls-72" d="M549.56,1560.18,591,1580.86c4.23,5.39,54.6,71.51,27.71,134.91-3.5,8.25-16.72,39.43-42.8,45-40.25,8.53-98.88-46.64-97-105.86C480.22,1615.17,508.52,1578.7,549.56,1560.18Z" transform="translate(-411.75 -369.02)"/></g></g></svg>